<?xml version="1.0" encoding="iso-8859-1"?>
<!-- Generator: Adobe Illustrator 19.0.0, SVG Export Plug-In . SVG Version: 6.00 Build 0)  -->
<svg version="1.1" id="Capa_1" xmlns="http://www.w3.org/2000/svg" xmlns:xlink="http://www.w3.org/1999/xlink" x="0px" y="0px"
	 viewBox="0 0 512 512" style="enable-background:new 0 0 512 512;" xml:space="preserve">
<g>
	<g>
		<g>
			<path d="M285.9,203.507c0,4.143,3.357,7.5,7.5,7.5s7.5-3.357,7.5-7.5c0-3.396,2.763-6.159,6.159-6.159s6.159,2.763,6.159,6.159
				c0,4.143,3.357,7.5,7.5,7.5c4.142,0,7.5-3.357,7.5-7.5c0-11.667-9.492-21.159-21.159-21.159S285.9,191.84,285.9,203.507z"/>
			<path d="M488.142,159.219c-2.451-3.339-7.147-4.059-10.484-1.609c-3.339,2.451-4.06,7.145-1.609,10.484
				C489.755,186.772,497,208.303,497,230.361c0,65.393-63.098,118.594-140.655,118.594c-76.437,0-138.825-51.675-140.613-115.767
				c0-0.028-0.001-0.055-0.001-0.083c-0.025-0.912-0.041-1.827-0.041-2.744c0-47.184,32.854-88.017,80.285-107.1
				c0.126,3.363,0.383,6.336,0.745,8.734c0.561,3.716,3.76,6.381,7.406,6.381c0.373,0,0.75-0.027,1.13-0.085
				c4.096-0.619,6.914-4.44,6.296-8.536c-0.414-2.741-0.688-6.783-0.669-11.627c13.204-3.813,27.286-6.016,41.918-6.322
				c0.006,0,0.012,0,0.018,0c1.172-0.025,2.348-0.038,3.527-0.038c15.099,0,29.916,2.035,43.967,5.934
				c-0.039,5.693,0.277,10.646,0.828,14.294c0.562,3.716,3.76,6.381,7.406,6.381c0.373,0,0.75-0.027,1.13-0.085
				c4.096-0.619,6.914-4.44,6.296-8.536c-0.275-1.819-0.485-4.224-0.593-7.042c13.039,5.092,25.189,11.885,35.997,20.246
				c3.276,2.534,7.984,1.933,10.521-1.344c2.534-3.276,1.933-7.986-1.344-10.521c-13.316-10.301-28.451-18.445-44.715-24.212
				c1.323-14.827,5.356-32.785,14.835-45.605c4.943,4.069,11.269,6.515,18.156,6.515c15.777,0,28.613-12.836,28.613-28.613
				c0-15.777-12.836-28.613-28.613-28.613c-15.777,0-28.613,12.836-28.613,28.613c0,3.248,0.552,6.367,1.553,9.279
				c-11.489,13.255-16.729,30.851-19.098,43.86c-0.618,3.396-1.093,6.784-1.456,10.103c-14.422-3.717-29.52-5.653-44.87-5.653
				c-0.022,0-0.044,0.001-0.067,0.001c-9.388-11.904-21.546-21.131-35.189-27.017c1.51-2.993,3.218-5.844,5.163-8.475
				c4.943,4.069,11.269,6.515,18.156,6.515c15.777,0,28.613-12.836,28.613-28.613c0-15.777-12.836-28.613-28.613-28.613
				c-15.777,0-28.613,12.836-28.613,28.613c0,3.248,0.552,6.367,1.553,9.279c-4.363,5.034-7.843,10.68-10.585,16.48
				c-6.903-1.688-14.043-2.568-21.279-2.568c-31.102,0-59.553,15.941-75.936,41.588c-16.037-24.994-44.072-41.588-75.91-41.588
				c-49.695,0-90.126,40.431-90.126,90.126c0,29.926,14.664,56.486,37.18,72.887c-11.823,11.775-20.957,25.745-26.99,40.993
				c-17.315,7.166-33.154,17.107-47.116,29.587C2.4,299.708-0.001,305.075,0,310.69c0,5.615,2.401,10.982,6.588,14.725
				c13.966,12.483,29.808,22.427,47.127,29.592c10.6,26.694,30.482,48.726,55.639,62.103c-0.537,18.369-2.939,30.553-12.265,43.031
				c-4.131,5.525-5.862,12.329-4.876,19.157c0.987,6.829,4.574,12.863,10.099,16.992c4.499,3.363,9.842,5.142,15.449,5.142
				c8.111,0,15.851-3.875,20.702-10.365c15.711-21.021,20.286-41.788,21.829-60.056c1.799,0.08,3.606,0.128,5.425,0.128h13.973
				c-1.303,10.29-4.22,19.539-11.294,29.002c-8.525,11.407-6.182,27.624,5.224,36.148c4.499,3.364,9.841,5.143,15.45,5.143
				c8.111,0,15.851-3.875,20.701-10.365c15.75-21.071,20.277-41.777,21.818-59.928h19.41c-1.303,10.29-4.22,19.539-11.292,29.002
				c-4.131,5.525-5.862,12.329-4.876,19.157c0.987,6.829,4.574,12.863,10.1,16.993c4.5,3.363,9.842,5.141,15.449,5.141
				c8.111,0,15.851-3.875,20.702-10.365c15.758-21.085,20.281-41.802,21.818-59.959c6.653-0.087,13.21-0.727,19.623-1.878
				c-1.232,11.4-4.185,21.117-11.506,30.911c-4.131,5.525-5.862,12.329-4.876,19.157c0.987,6.829,4.574,12.863,10.1,16.993
				c4.5,3.363,9.842,5.141,15.449,5.141c8.111,0,15.851-3.875,20.702-10.365c21.674-29,22.644-58.695,22.694-85.229
				c16.86-13.055,30.308-30.583,38.39-51.204C471.121,335.045,512,286.724,512,230.361C512,205.089,503.75,180.488,488.142,159.219z
				 M448.829,25.565c7.507,0,13.613,6.106,13.613,13.613c0,7.507-6.107,13.613-13.613,13.613c-7.506,0-13.613-6.106-13.613-13.613
				C435.216,31.671,441.322,25.565,448.829,25.565z M344.408,25.565c7.507,0,13.613,6.106,13.613,13.613
				c0,7.507-6.107,13.613-13.613,13.613c-7.506,0-13.613-6.106-13.613-13.613C330.795,31.671,336.901,25.565,344.408,25.565z
				 M315.658,83.735c7.802,3.433,15.007,8.187,21.275,14.07c-8.579,0.92-16.94,2.448-25.031,4.52
				C312.643,96.314,313.84,89.956,315.658,83.735z M285.483,77.369c5.401,0,10.736,0.593,15.924,1.726
				c-1.393,4.671-2.42,9.173-3.157,13.222c-0.911,5.008-1.524,10.009-1.899,14.777c-30.189,10.864-55.57,29.667-72.587,53.349
				v-7.948c0-11.432-2.145-22.372-6.044-32.444C230.185,94.023,256.454,77.369,285.483,77.369z M47.904,335.788
				c-11.298-5.828-21.792-13.039-31.32-21.557C15.206,312.999,15,311.484,15,310.69s0.206-2.31,1.585-3.543
				c9.529-8.518,20.024-15.731,31.325-21.559c-1.738,8.174-2.644,16.579-2.644,25.101C45.267,319.295,46.181,327.689,47.904,335.788
				z M58.512,152.495c0-41.425,33.701-75.126,75.126-75.126s75.126,33.701,75.126,75.126v35.375
				c-4.911,12.531-7.707,25.886-8.034,39.752h-67.092C92.213,227.622,58.512,193.92,58.512,152.495z M126.448,482.087
				c-2.064,2.762-5.231,4.346-8.688,4.346c-2.345,0-4.581-0.745-6.469-2.156c-2.315-1.73-3.819-4.261-4.232-7.123
				c-0.414-2.862,0.312-5.715,2.044-8.031c11.165-14.938,14.14-29.662,15.01-45.391c6.82,2.518,13.93,4.43,21.263,5.683
				C144.015,446.104,140.077,463.852,126.448,482.087z M197.757,482.087c-2.064,2.762-5.231,4.346-8.688,4.346
				c-2.346,0-4.581-0.745-6.468-2.156c-4.782-3.574-5.765-10.372-2.191-15.154c9.803-13.114,13.081-25.898,14.388-37.982h21.725
				C215.046,446.812,210.936,464.454,197.757,482.087z M182.064,416.141L182.064,416.141c-5.787-5.376-11.148-11.522-15.954-18.314
				c-2.394-3.382-7.074-4.181-10.455-1.789c-3.381,2.393-4.182,7.074-1.789,10.455c2.35,3.321,4.825,6.504,7.405,9.546
				C105.18,413.7,60.266,367.345,60.266,310.689c0-29.444,12.233-57.326,33.719-77.274c10.67,5.25,22.519,8.455,35.037,9.09
				c-11.752,41.935-9.049,91.659,7.594,132.285c1.189,2.903,3.989,4.659,6.943,4.659c0.946,0,1.91-0.181,2.84-0.561
				c3.833-1.57,5.668-5.95,4.098-9.783c-15.956-38.951-18.096-86.888-5.88-126.482h56.147c0.195,0,0.389-0.014,0.584-0.018
				c2.348,22.071,10.971,42.608,24.331,60.278c0.662,23.846,5.205,47.383,13.204,68.219c6.656,17.333,15.44,32.408,26.192,45.039
				H182.064z M269.066,482.087c-2.064,2.762-5.231,4.346-8.688,4.346c-2.345,0-4.582-0.745-6.47-2.156
				c-2.315-1.73-3.819-4.261-4.232-7.123c-0.414-2.862,0.311-5.715,2.044-8.031c9.802-13.114,13.08-25.898,14.386-37.982h21.725
				C286.355,446.81,282.245,464.453,269.066,482.087z M340.376,482.087c-2.065,2.762-5.232,4.346-8.688,4.346
				c-2.345,0-4.582-0.745-6.47-2.156c-2.316-1.73-3.819-4.261-4.233-7.123s0.312-5.715,2.044-8.031
				c10.449-13.98,13.793-27.793,14.874-43.698c7.697-2.464,15.09-5.697,22.087-9.607
				C359.528,438.395,356.788,460.126,340.376,482.087z M301.319,416.14h-15.518c-23.465-21.828-39.156-56.305-43.784-95.222
				c28.458,26.446,69.175,43.038,114.327,43.038c13.196,0,26.012-1.422,38.256-4.087C376.555,394.037,340.733,416.14,301.319,416.14
				z"/>
			<path d="M408.001,203.507c0,4.143,3.357,7.5,7.5,7.5s7.5-3.357,7.5-7.5c0-3.396,2.763-6.159,6.159-6.159s6.159,2.763,6.159,6.159
				c0,4.143,3.357,7.5,7.5,7.5s7.5-3.357,7.5-7.5c0-11.667-9.492-21.159-21.159-21.159S408.001,191.84,408.001,203.507z"/>
			<path d="M376.944,214.545c-2.23,2.561-5.451,4.028-8.835,4.028c-3.384,0-6.604-1.469-8.836-4.029
				c-2.721-3.122-7.458-3.447-10.582-0.725c-3.122,2.722-3.446,7.459-0.725,10.582c5.081,5.829,12.423,9.172,20.143,9.172
				c7.721,0,15.064-3.344,20.143-9.173c2.722-3.123,2.396-7.86-0.727-10.582C384.403,211.097,379.666,211.422,376.944,214.545z"/>
		</g>
	</g>
</g>
<g>
</g>
<g>
</g>
<g>
</g>
<g>
</g>
<g>
</g>
<g>
</g>
<g>
</g>
<g>
</g>
<g>
</g>
<g>
</g>
<g>
</g>
<g>
</g>
<g>
</g>
<g>
</g>
<g>
</g>
</svg>
