<?xml version="1.0" encoding="iso-8859-1"?>
<!-- Generator: Adobe Illustrator 19.0.0, SVG Export Plug-In . SVG Version: 6.00 Build 0)  -->
<svg version="1.1" id="Capa_1" xmlns="http://www.w3.org/2000/svg" xmlns:xlink="http://www.w3.org/1999/xlink" x="0px" y="0px"
	 viewBox="0 0 512 512" style="enable-background:new 0 0 512 512;" xml:space="preserve">
<g>
	<g>
		<g>
			<path d="M314.03,103.952c3.432,2.317,8.095,1.417,10.413-2.017c2.44-3.612,6.495-5.77,10.847-5.77
				c7.21,0,13.076,5.866,13.076,13.076v14.938c0,4.143,3.357,7.5,7.5,7.5s7.5-3.357,7.5-7.5v-14.938
				c0-7.21,5.866-13.076,13.076-13.076c4.352,0,8.406,2.157,10.849,5.771c2.318,3.432,6.982,4.334,10.413,2.015
				c3.432-2.319,4.334-6.981,2.015-10.413c-5.234-7.747-13.937-12.372-23.276-12.372c-8.122,0-15.445,3.47-20.576,9.001
				c-5.131-5.531-12.454-9.001-20.576-9.001c-9.341,0-18.042,4.625-23.276,12.373C309.695,96.971,310.598,101.633,314.03,103.952z"
				/>
			<path d="M390.435,141.498h-69.138c-62.437,0-113.233,50.796-113.233,113.232v22.37c0,21.099-17.165,38.264-38.264,38.264
				c-10.281,0-18.646-8.364-18.646-18.646v-34.504c0-3.206,1.973-6.141,5.025-7.477c37.818-16.555,62.256-53.919,62.256-95.192
				c0-9.906-8.06-17.966-17.966-17.966c-32.657,0-63.815,15.656-83.348,41.879c-1.863,2.501-4.745,3.936-7.905,3.936
				c-3.16,0-6.041-1.435-7.904-3.936c-19.532-26.223-50.69-41.879-83.349-41.879C8.06,141.579,0,149.639,0,159.545
				c0,41.273,24.438,78.639,62.257,95.191c3.053,1.337,5.025,4.272,5.025,7.478v43.396c0,45.277,30.432,85.367,74.005,97.492
				c3.994,1.11,8.127-1.226,9.236-5.215c1.11-3.991-1.225-8.126-5.215-9.236c-37.109-10.326-63.026-44.474-63.026-83.041v-43.396
				c0-9.164-5.499-17.492-14.011-21.219C35.91,226.831,15,194.859,15,159.545c0-1.636,1.33-2.966,2.966-2.966
				c28.359,0,54.354,13.063,71.319,35.84c4.722,6.339,11.986,9.975,19.933,9.975c0.001,0,0.001,0,0.001,0
				c7.946,0,15.212-3.636,19.935-9.975c16.965-22.776,42.96-35.84,71.318-35.84c1.636,0,2.966,1.33,2.966,2.966
				c0,35.314-20.91,67.286-53.271,81.451c-8.511,3.726-14.01,12.054-14.01,21.218v34.504c0,18.552,15.094,33.646,33.646,33.646
				c29.37,0,53.264-23.894,53.264-53.264v-22.37c0-54.165,44.067-98.232,98.233-98.232h69.138
				c56.238,0,102.435,43.791,106.297,99.064h-77.85c-17.589,0-34.653,3.591-50.721,10.672c-3.79,1.671-5.508,6.098-3.838,9.889
				c1.237,2.807,3.985,4.477,6.867,4.477c1.01,0,2.037-0.205,3.021-0.639c6.568-2.895,13.328-5.119,20.234-6.68
				c-1.76,21.086-6.276,40.232-13.463,57.024c-12.118,28.31-31.61,48.977-57.915,61.492h-16.232
				c14.246-17.782,22.781-40.328,22.781-64.832c0-3.012-0.754-5.848-2.068-8.343c5.384-7.834,11.741-14.945,18.969-21.172
				c3.138-2.703,3.49-7.439,0.786-10.577c-2.704-3.139-7.441-3.488-10.577-0.786c-8,6.892-15.056,14.745-21.071,23.378
				c-1.29-0.295-2.626-0.466-4.004-0.466c-50.057,0-91.955,35.593-101.72,82.799h-27.618c-4.143,0-7.5,3.357-7.5,7.5
				s3.357,7.5,7.5,7.5h25.65c-0.117,2.01-0.182,4.033-0.182,6.071c0,9.906,8.06,17.966,17.967,17.966
				c25.218,0,48.362-9.037,66.374-24.037h32.605c0.023,0,0.046,0.005,0.069,0.005c0.03,0,0.061-0.004,0.092-0.005h43.379
				c10.888,0,21.495-1.224,31.696-3.529c0.23-0.044,0.46-0.083,0.687-0.15C464.362,388.391,512,331.185,512,263.063
				C512,196.031,457.467,141.498,390.435,141.498z M225.749,415.833c-1.637,0-2.967-1.33-2.967-2.966
				c0-49.003,39.867-88.87,88.87-88.87c1.636,0,2.966,1.331,2.966,2.967C314.618,375.967,274.752,415.833,225.749,415.833z
				 M395.599,388.867c-8.813,1.913-17.955,2.93-27.332,2.93h-16.261c18.517-13.866,32.865-32.458,42.768-55.589
				c8.231-19.229,13.223-41.161,14.887-65.262c3.054-0.252,6.128-0.384,9.223-0.384h36.378c-0.878,19.973-4.249,38.244-10.055,54.4
				C435.422,352.188,418.725,373.67,395.599,388.867z M435.449,372.833c21.237-26.29,33.096-60.9,34.817-102.271h26.51
				C494.279,313.81,470.339,351.401,435.449,372.833z"/>
			<path d="M357.356,218.355v-8.156c0-4.143-3.357-7.5-7.5-7.5s-7.5,3.357-7.5,7.5v8.156c0,4.143,3.357,7.5,7.5,7.5
				S357.356,222.497,357.356,218.355z"/>
			<path d="M455.62,218.355v-8.156c0-4.143-3.357-7.5-7.5-7.5s-7.5,3.357-7.5,7.5v8.156c0,4.143,3.357,7.5,7.5,7.5
				S455.62,222.497,455.62,218.355z"/>
			<path d="M398.988,232.117c7.133,0,13.915-3.089,18.607-8.475c2.722-3.122,2.396-7.86-0.728-10.581
				c-3.123-2.722-7.86-2.397-10.581,0.728c-1.844,2.115-4.504,3.328-7.299,3.328c-2.795,0-5.456-1.214-7.301-3.329
				c-2.721-3.122-7.459-3.448-10.581-0.726c-3.123,2.722-3.447,7.459-0.726,10.581C385.074,229.028,391.856,232.117,398.988,232.117
				z"/>
		</g>
	</g>
</g>
<g>
</g>
<g>
</g>
<g>
</g>
<g>
</g>
<g>
</g>
<g>
</g>
<g>
</g>
<g>
</g>
<g>
</g>
<g>
</g>
<g>
</g>
<g>
</g>
<g>
</g>
<g>
</g>
<g>
</g>
</svg>
