<?xml version="1.0" encoding="iso-8859-1"?>
<!-- Generator: Adobe Illustrator 19.0.0, SVG Export Plug-In . SVG Version: 6.00 Build 0)  -->
<svg version="1.1" id="Capa_1" xmlns="http://www.w3.org/2000/svg" xmlns:xlink="http://www.w3.org/1999/xlink" x="0px" y="0px"
	 viewBox="0 0 512 512" style="enable-background:new 0 0 512 512;" xml:space="preserve">
<g>
	<g>
		<g>
			<path d="M511.13,375.91c-1.633-4.486-5.374-7.866-10.007-9.041c-9.326-2.365-23.128-5.137-39.545-6.209
				c7.575-18.123,11.383-34.227,13.128-43.404c0.895-4.695-0.588-9.515-3.964-12.892c-3.378-3.379-8.202-4.861-12.895-3.967
				c-2.974,0.566-6.036,1.222-9.101,1.948c-4.031,0.955-6.523,4.997-5.568,9.027c0.955,4.03,4.999,6.522,9.027,5.568
				c2.56-0.606,5.113-1.159,7.603-1.646c-3.471,17.765-14.665,60.379-45.896,91.608c-9.504,9.504-22.317,16.523-38.148,20.945
				c-0.173-6.04-0.229-12.088-0.169-18.134c0.582-0.328,1.132-0.732,1.628-1.227l55.438-55.439c2.929-2.93,2.929-7.678,0-10.607
				c-2.93-2.928-7.678-2.928-10.607,0l-45.764,45.764c0.14-2.503,0.293-5.004,0.472-7.5l2.098-29.096
				c12.271-9.954,26.745-18.357,43.073-24.999c3.837-1.561,5.682-5.937,4.121-9.773s-5.934-5.682-9.773-4.121
				c-13.636,5.547-26.108,12.262-37.258,20.028c0.432-1.52,0.62-3.112,0.504-4.713l-2.767-38.363
				c-1.611-22.341-1.611-44.996,0-67.337l2.767-38.362c0.273-3.774-1.05-7.527-3.627-10.298c-2.578-2.77-6.226-4.358-10.01-4.358
				h-75.563c-3.784,0-7.432,1.589-10.01,4.358c-2.577,2.77-3.899,6.523-3.627,10.297l2.767,38.363
				c1.611,22.341,1.611,44.996,0,67.337l-2.767,38.362c-0.18,2.489,0.347,4.962,1.456,7.156c-1.11,2.195-1.636,4.668-1.456,7.156
				l2.767,38.363c1.611,22.341,1.611,44.996,0,67.337l-2.767,38.362c-0.273,3.774,1.05,7.527,3.627,10.298
				c2.578,2.77,6.226,4.358,10.01,4.358h75.563c3.784,0,7.432-1.589,10.01-4.358c2.577-2.77,3.899-6.523,3.627-10.297l-1.652-22.905
				c4.171,0.442,8.255,0.67,12.242,0.67c11.225,0,21.698-1.751,31.302-5.246c46.088-16.774,76.792-54.299,87.855-69.653
				C512.071,385.392,512.763,380.398,511.13,375.91z M361.802,449.121l2.664,36.94h-72.709l2.664-36.94
				c1.663-23.056,1.663-46.438,0-69.493l-2.664-36.942h72.709l-0.33,4.578c0,0.001,0,0.002,0,0.004l-2.334,32.359
				C360.139,402.684,360.139,426.065,361.802,449.121z M361.802,290.747l2.664,36.94h-72.709l2.664-36.94
				c1.663-23.056,1.663-46.437,0-69.493l-2.664-36.94h72.709l-2.664,36.94C360.139,244.311,360.139,267.692,361.802,290.747z
				 M416.291,444.829c-11.551,4.205-24.822,5.353-39.512,3.439l-0.016-0.226c-0.117-1.617-0.206-3.239-0.306-4.859
				c19.871-5.025,36.028-13.637,48.064-25.672c1.067-1.067,2.112-2.147,3.137-3.237l28.384-10.331
				c3.892-1.417,5.9-5.721,4.482-9.613c-1.416-3.892-5.718-5.897-9.613-4.482l-5.798,2.11c3.605-5.522,6.816-11.103,9.653-16.623
				c17.354,0.625,32.055,3.432,41.836,5.864C485.947,395.834,457.79,429.724,416.291,444.829z"/>
			<path d="M246.695,328.031l-2.767-38.362c-1.611-22.341-1.611-44.996,0-67.336l2.767-38.362c0.18-2.489-0.347-4.962-1.456-7.156
				c1.108-2.195,1.634-4.669,1.454-7.158l-2.767-38.362c-1.491-20.674-1.603-41.649-0.333-62.341
				c0.254-4.134-2.892-7.691-7.026-7.945c-4.14-0.242-7.691,2.893-7.945,7.027c-1.311,21.354-1.195,43.001,0.344,64.338l2.665,36.94
				h-72.709l2.664-36.942c1.663-23.056,1.663-46.437,0-69.493l-2.664-36.94h72.709l-0.403,5.592
				c-0.298,4.131,2.809,7.722,6.941,8.019c4.135,0.299,7.722-2.811,8.02-6.941l0.506-7.014c0.273-3.774-1.05-7.527-3.627-10.298
				c-2.577-2.769-6.226-4.358-10.009-4.358h-75.563c-3.784,0-7.432,1.589-10.009,4.358c-2.578,2.771-3.9,6.523-3.627,10.297
				l2.767,38.362c0.028,0.39,0.047,0.781,0.074,1.172C113.073,35.933,71.4,25.384,54.155,22.105
				c-4.693-0.897-9.515,0.587-12.892,3.964c-3.377,3.377-4.86,8.196-3.967,12.893c1.746,9.178,5.554,25.282,13.13,43.406
				c-16.419,1.073-30.22,3.843-39.547,6.208c-4.637,1.176-8.378,4.556-10.01,9.044c-1.633,4.487-0.939,9.48,1.854,13.358
				c11.062,15.354,41.767,52.879,87.855,69.653c9.529,3.468,20.104,5.204,31.387,5.204c7.046,0,14.373-0.694,21.888-2.05
				c0.004,0.061-0.001,0.122,0.004,0.184l2.767,38.363c1.611,22.341,1.611,44.996,0,67.337l-2.767,38.362
				c-0.18,2.489,0.347,4.962,1.456,7.156c-1.11,2.195-1.636,4.668-1.456,7.156l0.41,5.684
				c-33.178-27.626-73.285-37.742-90.115-40.942c-4.694-0.898-9.515,0.588-12.892,3.964c-3.377,3.377-4.86,8.196-3.967,12.893
				c1.746,9.178,5.554,25.282,13.13,43.406c-16.419,1.073-30.22,3.844-39.545,6.208c-4.633,1.175-8.374,4.555-10.008,9.042
				c-1.633,4.488-0.94,9.482,1.854,13.36c11.062,15.354,41.767,52.879,87.854,69.653c9.535,3.471,20.108,5.207,31.388,5.207
				c7.449,0,15.211-0.774,23.18-2.29l-1.289,17.876c-0.273,3.774,1.05,7.527,3.627,10.298c2.577,2.77,6.226,4.358,10.009,4.358
				h75.563c3.784,0,7.432-1.589,10.009-4.358c2.578-2.77,3.9-6.523,3.627-10.298l-2.767-38.362c-1.611-22.341-1.611-44.996,0-67.336
				l2.767-38.364c0.18-2.489-0.347-4.962-1.456-7.156C246.349,332.993,246.875,330.52,246.695,328.031z M143.94,168.507
				c-13.788,2.803-31.646,4.065-48.232-1.972c-41.498-15.104-69.655-48.996-80.31-63.63c9.778-2.431,24.478-5.238,41.836-5.864
				c2.837,5.52,6.048,11.101,9.653,16.623l-5.799-2.111c-3.89-1.413-8.196,0.591-9.613,4.482c-1.416,3.893,0.59,8.196,4.483,9.613
				l28.384,10.331c1.025,1.089,2.07,2.169,3.137,3.236c16.617,16.617,38.843,24.164,56.585,27.573L143.94,168.507z M147.172,122.472
				c-0.358-1.053-0.949-2.045-1.789-2.886L89.945,64.149c-2.929-2.928-7.678-2.928-10.606,0c-2.929,2.93-2.929,7.678,0,10.607
				l55.438,55.438c1.464,1.464,3.384,2.196,5.303,2.196c1.919,0,3.839-0.732,5.303-2.196c0.608-0.608,1.083-1.298,1.438-2.031
				c-0.068,1.043-0.122,2.089-0.197,3.131l-1.473,20.422c-15.211-3.124-33.583-9.625-47.066-23.106
				C66.858,97.382,55.662,54.768,52.191,37.003c17.765,3.471,60.379,14.665,91.608,45.896c1.325,1.325,2.631,2.76,3.903,4.276
				C147.964,98.944,147.794,110.739,147.172,122.472z M146.267,452.995c-14.204,3.161-33.089,4.881-50.559-1.479
				c-41.498-15.103-69.655-48.995-80.31-63.63c9.778-2.431,24.478-5.238,41.836-5.864c2.837,5.52,6.048,11.101,9.653,16.623
				l-5.799-2.111c-3.89-1.413-8.196,0.59-9.613,4.482c-1.416,3.893,0.59,8.196,4.483,9.613l28.384,10.331
				c1.025,1.089,2.07,2.169,3.137,3.236c17.198,17.197,40.369,24.729,58.846,27.99L146.267,452.995z M147.266,437.114
				c-15.902-3-35.166-9.508-49.181-23.523c-31.228-31.228-42.423-73.842-45.895-91.608c17.765,3.471,60.379,14.665,91.608,45.896
				c0.684,0.684,1.371,1.413,2.055,2.164l0.769,10.664C147.973,399.413,148.176,418.336,147.266,437.114z M161.585,221.254
				l-2.664-36.94h72.708l-2.664,36.94c-1.663,23.056-1.663,46.438,0,69.494l2.664,36.939h-72.708l2.664-36.94
				C163.248,267.691,163.248,244.31,161.585,221.254z M228.965,449.122l2.665,36.939h-72.709l2.664-36.94
				c1.663-23.056,1.663-46.438,0-69.493l-2.664-36.942h72.709l-2.665,36.942C227.302,402.684,227.302,426.065,228.965,449.122z"/>
			<path d="M89.945,349.129c-2.929-2.928-7.678-2.928-10.606,0c-2.929,2.93-2.929,7.678,0,10.607l55.438,55.439
				c1.464,1.464,3.384,2.196,5.303,2.196c1.919,0,3.839-0.732,5.303-2.196c2.929-2.93,2.929-7.678,0-10.607L89.945,349.129z"/>
		</g>
	</g>
</g>
<g>
</g>
<g>
</g>
<g>
</g>
<g>
</g>
<g>
</g>
<g>
</g>
<g>
</g>
<g>
</g>
<g>
</g>
<g>
</g>
<g>
</g>
<g>
</g>
<g>
</g>
<g>
</g>
<g>
</g>
</svg>
