<?xml version="1.0" encoding="iso-8859-1"?>
<!-- Generator: Adobe Illustrator 19.0.0, SVG Export Plug-In . SVG Version: 6.00 Build 0)  -->
<svg version="1.1" id="Capa_1" xmlns="http://www.w3.org/2000/svg" xmlns:xlink="http://www.w3.org/1999/xlink" x="0px" y="0px"
	 viewBox="0 0 511.999 511.999" style="enable-background:new 0 0 511.999 511.999;" xml:space="preserve">
<g>
	<g>
		<g>
			<path d="M202.223,403.081c1.687,0,3.384-0.566,4.784-1.727c3.188-2.645,3.63-7.372,0.986-10.561l-50.122-60.443
				c-2.645-3.19-7.373-3.629-10.561-0.986c-3.189,2.645-3.63,7.372-0.986,10.561l50.122,60.443
				C197.929,402.157,200.068,403.081,202.223,403.081z"/>
			<path d="M364.692,329.364c-3.189-2.644-7.916-2.203-10.561,0.986l-50.122,60.443c-2.644,3.188-2.203,7.916,0.986,10.561
				c1.4,1.161,3.097,1.727,4.784,1.727c2.155,0,4.294-0.924,5.777-2.713l50.121-60.443
				C368.322,336.736,367.881,332.009,364.692,329.364z"/>
			<path d="M398.667,288.394c-4.902-4.066-11.427-5.25-17.453-3.165c-21.568,7.459-61.954,25.093-90.628,59.464v-53.072
				c12.324-2.852,23.097-7.323,31.897-13.341c19.004-12.999,29.05-33.183,29.05-58.37c0-8.488-2.56-18.899-5.326-28.885
				c-1.106-3.991-5.241-6.332-9.23-5.226c-3.992,1.105-6.332,5.238-5.226,9.23c2.484,8.966,4.782,18.185,4.782,24.881
				c0,19.262-7.638,49.664-53.501,58.135c-0.841,0.006-1.647,0.155-2.401,0.417c-7.259,1.186-15.425,1.844-24.63,1.844
				c-9.205,0-17.371-0.658-24.63-1.844c-0.754-0.262-1.559-0.411-2.401-0.417c-45.863-8.471-53.501-38.873-53.501-58.135
				c0-22.899,7.705-67.486,59.304-108.82c8.018-6.423,16.208-12.05,24.35-16.925c0.478-0.218,0.935-0.485,1.362-0.803
				c7.385-4.348,14.722-8.084,21.845-11.212c0.508-0.157,0.993-0.365,1.449-0.621c19.217-8.253,36.792-12.142,49.459-12.142
				c12.489,0,20.084,3.848,20.318,10.292c0.202,5.564-4.76,12.411-11.461,12.898c-8.757,0.637-25.056,1.822-25.169,28.107
				c-0.051,11.877,1.706,24.777,5.531,40.598c0.973,4.026,5.027,6.507,9.052,5.528c4.026-0.974,6.501-5.026,5.528-9.052
				c-3.533-14.615-5.157-26.375-5.111-37.01c0.053-12.396,3.103-12.618,11.257-13.211c14.27-1.038,25.884-14.046,25.363-28.404
				c-0.435-11.963-9.939-24.747-35.309-24.747c-13.307,0-28.92,3.359-45.067,9.325c0.405-3.636,1.035-7.092,1.871-10.336
				c2.033,0.489,4.151,0.755,6.332,0.755c14.924,0,27.065-12.142,27.065-27.066C323.438,12.142,311.297,0,296.373,0
				s-27.066,12.142-27.066,27.065c0,7.166,2.804,13.685,7.366,18.531c-2.361,7.401-3.716,15.618-4.006,24.571
				c-5.57,2.58-11.136,5.436-16.629,8.542c-5.524-3.13-11.117-5.999-16.707-8.581c-0.292-8.938-1.646-17.142-4.004-24.531
				c4.562-4.847,7.366-11.366,7.366-18.531C242.695,12.142,230.553,0,215.629,0c-14.924,0-27.065,12.142-27.065,27.065
				c0,14.924,12.142,27.066,27.065,27.066c2.181,0,4.299-0.266,6.332-0.755c0.835,3.238,1.464,6.689,1.869,10.318
				c-16.289-5.994-31.944-9.307-45.065-9.307c-25.371,0-34.874,12.784-35.309,24.748c-0.521,14.358,11.094,27.365,25.362,28.402
				c8.154,0.594,11.204,0.815,11.257,13.212c0.051,11.767-1.898,24.666-6.304,41.758c-8.737,18.4-13.303,37.764-13.303,57.402
				c0,25.188,10.045,45.371,29.05,58.37c8.8,6.019,19.572,10.49,31.896,13.341v53.073c-28.675-34.375-69.061-52.007-90.627-59.464
				c-6.025-2.082-12.55-0.902-17.453,3.163c-4.903,4.065-7.273,10.259-6.341,16.566c1.009,6.819,2.341,13.73,3.961,20.542
				c0.958,4.029,4.997,6.52,9.032,5.561c4.03-0.959,6.52-5.002,5.561-9.032c-1.52-6.392-2.77-12.874-3.715-19.266
				c-0.222-1.498,0.579-2.413,1.076-2.825c0.497-0.411,1.546-1.026,2.976-0.534c20.158,6.971,57.911,23.411,84.272,55.202
				c4.333,5.225,8.111,11.493,11.258,18.625v56.431c-18.261-4.739-44.951-14.593-60.932-33.865
				c-10.57-12.747-19.372-28.052-26.163-45.49c-1.502-3.859-5.849-5.77-9.71-4.268c-3.86,1.503-5.771,5.851-4.268,9.711
				c7.374,18.939,16.995,35.634,28.593,49.621c19.747,23.813,52.33,34.918,72.479,39.747V482.9
				c0,16.045,13.054,29.099,29.099,29.099h10.975c16.045,0,29.099-13.054,29.099-29.099v-37.783
				c20.153-4.83,52.734-15.936,72.479-39.746c28.689-34.597,38.592-77.763,41.941-100.414
				C405.94,298.651,403.57,292.459,398.667,288.394z M296.373,15c6.653,0,12.065,5.412,12.065,12.065s-5.413,12.066-12.065,12.066
				c-6.653,0-12.066-5.412-12.066-12.066C284.307,20.412,289.72,15,296.373,15z M215.629,39.131
				c-6.653,0-12.065-5.412-12.065-12.066c0-6.653,5.413-12.065,12.065-12.065c6.653,0,12.066,5.412,12.066,12.065
				C227.695,33.719,222.282,39.131,215.629,39.131z M169.907,92.576c-6.701-0.487-11.663-7.333-11.461-12.897
				c0.234-6.444,7.83-10.292,20.318-10.292c17.327,0,40.06,6.769,62.52,18.391c-5.469,3.644-10.793,7.521-15.89,11.604
				c-11.704,9.375-21.935,19.475-30.606,30.127c0.201-3.01,0.299-5.943,0.286-8.824C194.977,97.585,182.921,93.524,169.907,92.576z
				 M275.587,371.683v111.218c0,7.774-6.325,14.099-14.099,14.099h-10.975c-7.774,0-14.099-6.324-14.099-14.099V371.683
				c0-0.026,0-0.051,0-0.077V294.21c6.239,0.727,12.78,1.095,19.586,1.095c6.806,0,13.347-0.368,19.586-1.095v77.396h0.001
				C275.587,371.632,275.587,371.657,275.587,371.683z M390.168,302.765c-3.12,21.101-12.29,61.246-38.649,93.033
				c-15.979,19.27-42.669,29.124-60.932,33.864v-56.43c3.147-7.131,6.924-13.4,11.258-18.626
				c26.359-31.787,64.113-48.229,84.272-55.201c1.431-0.492,2.479,0.123,2.976,0.535
				C389.589,300.352,390.39,301.267,390.168,302.765z"/>
		</g>
	</g>
</g>
<g>
</g>
<g>
</g>
<g>
</g>
<g>
</g>
<g>
</g>
<g>
</g>
<g>
</g>
<g>
</g>
<g>
</g>
<g>
</g>
<g>
</g>
<g>
</g>
<g>
</g>
<g>
</g>
<g>
</g>
</svg>
