<?xml version="1.0" encoding="iso-8859-1"?>
<!-- Generator: Adobe Illustrator 19.0.0, SVG Export Plug-In . SVG Version: 6.00 Build 0)  -->
<svg version="1.1" id="Capa_1" xmlns="http://www.w3.org/2000/svg" xmlns:xlink="http://www.w3.org/1999/xlink" x="0px" y="0px"
	 viewBox="0 0 512 512" style="enable-background:new 0 0 512 512;" xml:space="preserve">
<g>
	<g>
		<g>
			<path d="M480.145,136.074c-5.531-18.797-16.472-35.29-31.641-47.693c-3.206-2.623-7.931-2.148-10.554,1.058
				c-2.622,3.207-2.148,7.932,1.059,10.554c12.822,10.485,22.071,24.427,26.746,40.316c4.675,15.89,4.45,32.618-0.651,48.377
				c-5.749,17.76-22.153,29.691-40.819,29.691H87.715c-18.667,0-35.071-11.933-40.819-29.692
				c-5.101-15.759-5.326-32.486-0.651-48.376c4.675-15.89,13.924-29.831,26.746-40.316l42.728-34.94
				C155.191,32.775,205.011,15,256,15s100.809,17.775,140.281,50.053l13.238,10.825c3.205,2.622,7.931,2.148,10.554-1.058
				c2.622-3.207,2.148-7.932-1.059-10.554l-13.238-10.825C363.632,18.979,310.44,0,256,0S148.368,18.979,106.224,53.441
				l-42.728,34.94c-15.169,12.403-26.11,28.896-31.641,47.693c-5.531,18.798-5.264,38.588,0.77,57.23
				c7.758,23.969,29.898,40.072,55.09,40.072h96.453L173.7,301.355c-1.004,6.521,1.726,12.928,7.126,16.719
				c4.203,2.951,9.345,3.833,14.151,2.594L184.42,452.707c-0.55,6.871,0.17,13.67,2.138,20.207c0.977,3.246,3.956,5.34,7.179,5.34
				c0.716,0,1.444-0.104,2.165-0.32c3.966-1.194,6.213-5.378,5.019-9.344c-1.428-4.743-1.95-9.685-1.549-14.688l11.289-141.179
				l0.066-0.036c4.491-2.45,10.036-2.387,14.47,0.166l12.148,6.993c5.754,3.311,12.205,4.968,18.656,4.968
				c6.451,0,12.902-1.656,18.656-4.968l12.148-6.993c4.434-2.553,9.979-2.616,14.47-0.166l0.065,0.036l11.289,141.179
				c0.898,11.232-2.817,21.979-10.461,30.259C294.523,492.44,284.107,497,272.839,497h-33.678c-6.999,0-13.874-1.829-19.882-5.289
				c-3.588-2.067-8.175-0.833-10.242,2.756c-2.067,3.59-0.833,8.175,2.756,10.242c8.282,4.769,17.746,7.291,27.368,7.291h33.678
				c15.278,0,29.985-6.439,40.35-17.664c10.364-11.225,15.609-26.399,14.392-41.629l-10.558-132.038
				c4.805,1.239,9.948,0.356,14.151-2.595c5.4-3.791,8.131-10.198,7.126-16.719l-10.468-67.979h96.453
				c25.193,0,47.332-16.104,55.09-40.073C485.409,174.662,485.676,154.872,480.145,136.074z M215.943,295.973
				c-4.294,0.266-8.541,1.441-12.401,3.546l-11.751,6.411c-1.002,0.547-1.829,0.229-2.345-0.133s-1.094-1.03-0.92-2.159
				l10.819-70.262h22.94L215.943,295.973z M279.32,299.853l-12.148,6.993c-6.89,3.967-15.453,3.968-22.345,0l-12.147-6.993
				c-0.638-0.367-1.291-0.702-1.95-1.018l6.632-65.458h37.276l6.632,65.458C280.611,299.152,279.959,299.486,279.32,299.853z
				 M322.554,305.798c-0.517,0.363-1.343,0.679-2.345,0.133l-11.751-6.411c-3.86-2.106-8.107-3.282-12.401-3.548l-6.342-62.595
				h22.94l10.819,70.262C323.648,304.768,323.069,305.435,322.554,305.798z"/>
			<circle cx="435.696" cy="145.714" r="7.287"/>
			<circle cx="401.966" cy="126.278" r="7.287"/>
			<path d="M173.614,101.109v12.641c0,4.143,3.358,7.5,7.5,7.5c4.142,0,7.5-3.357,7.5-7.5v-12.641c0-4.143-3.358-7.5-7.5-7.5
				C176.972,93.609,173.614,96.967,173.614,101.109z"/>
			<circle cx="87.554" cy="148.727" r="7.287"/>
			<circle cx="85.893" cy="114.717" r="7.287"/>
			<circle cx="116.621" cy="94.798" r="7.287"/>
			<path d="M240.489,94.586c-7.347,0-13.324,5.978-13.324,13.324v15.511c0,15.899,12.936,28.835,28.835,28.835
				s28.835-12.936,28.835-28.835V107.91c0-7.347-5.977-13.324-13.324-13.324H240.489z M269.835,123.421
				c0,7.629-6.207,13.835-13.835,13.835c-7.628,0-13.835-6.206-13.835-13.835v-13.835h27.67V123.421z"/>
			<circle cx="394.678" cy="185.751" r="7.287"/>
			<path d="M323.386,101.109v12.641c0,4.143,3.358,7.5,7.5,7.5c4.142,0,7.5-3.357,7.5-7.5v-12.641c0-4.143-3.358-7.5-7.5-7.5
				C326.744,93.609,323.386,96.967,323.386,101.109z"/>
		</g>
	</g>
</g>
<g>
</g>
<g>
</g>
<g>
</g>
<g>
</g>
<g>
</g>
<g>
</g>
<g>
</g>
<g>
</g>
<g>
</g>
<g>
</g>
<g>
</g>
<g>
</g>
<g>
</g>
<g>
</g>
<g>
</g>
</svg>
