<?xml version="1.0" encoding="iso-8859-1"?>
<!-- Generator: Adobe Illustrator 19.0.0, SVG Export Plug-In . SVG Version: 6.00 Build 0)  -->
<svg version="1.1" id="Capa_1" xmlns="http://www.w3.org/2000/svg" xmlns:xlink="http://www.w3.org/1999/xlink" x="0px" y="0px"
	 viewBox="0 0 512 512" style="enable-background:new 0 0 512 512;" xml:space="preserve">
<g>
	<g>
		<g>
			<path d="M297.901,401.291c15.438,0,27.999-12.561,27.999-27.999c0-15.439-12.561-27.998-27.999-27.998
				c-15.439,0-27.998,12.56-27.998,27.998S282.463,401.291,297.901,401.291z M297.901,360.294c7.168,0,12.999,5.831,12.999,12.998
				c0,7.168-5.831,12.999-12.999,12.999c-7.167,0-12.998-5.831-12.998-12.999C284.903,366.125,290.734,360.294,297.901,360.294z"/>
			<path d="M488.788,341.424c-1.093-1.023-1.824-2.314-2.115-3.732c-6.3-30.776-29.225-55.056-59.183-63.304
				c-1.143-21.146-6.034-41.311-14.013-59.846c-0.156-0.484-0.36-0.95-0.61-1.392c-9.27-21.028-22.529-39.913-38.818-55.694
				c-0.374-0.462-0.806-0.873-1.278-1.236c-16.26-15.44-35.451-27.82-56.643-36.203c-6.039-17.806-17.492-33.74-32.543-45.171
				c-16.59-12.6-36.398-19.259-57.281-19.259c-13.058,0-25.711,2.61-37.608,7.758c-1.112,0.481-2.334,0.409-3.269-0.191
				c-11.658-7.486-25.161-11.443-39.05-11.443c-19.758,0-38.215,7.813-51.971,22.001c-2.883,2.974-2.81,7.722,0.164,10.605
				c2.975,2.883,7.723,2.81,10.605-0.164c10.905-11.248,25.538-17.442,41.201-17.442c11.01,0,21.71,3.135,30.943,9.063
				c5.146,3.307,11.625,3.807,17.331,1.339c10.007-4.33,20.656-6.525,31.652-6.525c30.026,0,57.362,17.174,70.885,43.175
				c-14.583-3.919-29.903-6.021-45.707-6.021c-69.119,0-129.063,39.994-157.935,98.051H23.591c-4.737,0-8.591-3.854-8.591-8.591
				c0-34.738,25.985-63.985,60.443-68.029c7.26-0.852,13.098-6.509,14.196-13.753c0.357-2.354,0.866-4.704,1.512-6.984
				c1.128-3.985-1.189-8.131-5.175-9.259c-3.987-1.128-8.131,1.189-9.259,5.175c-0.814,2.879-1.456,5.844-1.908,8.815
				c-0.091,0.595-0.538,1.04-1.114,1.107C31.682,119.204,0,154.855,0,197.2c0,13.008,10.583,23.591,23.591,23.591h63.35
				c-7.571,19.636-11.733,40.951-11.733,63.224c0,21.301,3.799,41.73,10.753,60.649c0.121,0.428,0.279,0.844,0.474,1.246
				c17.877,47.514,55.709,85.329,103.235,103.183c0.376,0.178,0.763,0.329,1.162,0.443c18.919,6.954,39.349,10.753,60.65,10.753
				c26.603,0,52.17-5.779,75.992-17.178c3.736-1.788,5.316-6.267,3.528-10.003c-1.787-3.737-6.265-5.313-10.003-3.528
				c-21.785,10.424-45.174,15.709-69.518,15.709c-14.673,0-28.89-1.981-42.41-5.67c16.721-15.031,26.365-36.356,26.365-59.444
				c0-44.175-35.939-80.114-80.115-80.114c-23.088,0-44.413,9.644-59.444,26.366c-3.689-13.52-5.67-27.737-5.67-42.41
				c0-88.927,72.348-161.274,161.274-161.274c37.688,0,72.394,12.998,99.881,34.742c-18.724,6.723-32.155,24.648-32.155,45.656
				c0,26.742,21.756,48.498,48.498,48.498c14.609,0,28.137-6.599,37.184-17.384c4.74,14.576,7.461,30.053,7.821,46.104
				c0,0.035,0.001,0.07,0.001,0.105c0.026,1.182,0.045,2.366,0.045,3.554c0,50.35-22.884,96.9-62.784,127.717
				c-3.278,2.531-3.884,7.241-1.352,10.52c2.532,3.281,7.244,3.883,10.52,1.351c3.023-2.335,5.947-4.76,8.789-7.256h122.647
				c11.813,0,21.424-9.61,21.424-21.424C512,374.734,503.54,355.237,488.788,341.424z M155.321,315.059
				c35.904,0,65.115,29.21,65.115,65.114c0,21.763-10.546,41.599-28.383,53.766c-41.203-16.39-74.107-49.294-90.498-90.497
				C113.722,325.606,133.558,315.059,155.321,315.059z M367.705,236.637c-18.471,0-33.498-15.027-33.498-33.498
				c0-17.612,13.666-32.083,30.973-33.389c13.645,13.578,24.876,29.576,32.995,47.287
				C392.774,228.868,380.878,236.637,367.705,236.637z M490.576,401.346H383.077c27.349-30.527,43.152-69.516,44.564-111.208
				c22.494,7.762,39.471,26.793,44.336,50.563c0.918,4.48,3.187,8.519,6.56,11.675C490.443,363.523,497,378.633,497,394.923
				C497,398.465,494.118,401.346,490.576,401.346z"/>
			<path d="M209.135,179.914c0-15.438-12.561-27.999-27.999-27.999s-27.999,12.561-27.999,27.999
				c0,15.439,12.561,27.998,27.999,27.998C196.574,207.912,209.135,195.353,209.135,179.914z M181.136,192.912
				c-7.168,0-12.999-5.831-12.999-12.998c0-7.168,5.831-12.999,12.999-12.999c7.168,0,12.999,5.831,12.999,12.999
				C194.135,187.081,188.304,192.912,181.136,192.912z"/>
			<path d="M201.995,255.903c4.143,0,7.5-3.357,7.5-7.5v-8.215c0-4.143-3.357-7.5-7.5-7.5s-7.5,3.357-7.5,7.5v8.215
				C194.495,252.546,197.852,255.903,201.995,255.903z"/>
			<path d="M308.468,248.403v-8.215c0-4.143-3.357-7.5-7.5-7.5s-7.5,3.357-7.5,7.5v8.215c0,4.143,3.357,7.5,7.5,7.5
				S308.468,252.546,308.468,248.403z"/>
			<path d="M269.457,243.114c-3.124-2.723-7.861-2.399-10.582,0.725c-1.868,2.144-4.563,3.372-7.394,3.372s-5.525-1.229-7.393-3.372
				c-2.723-3.122-7.458-3.448-10.582-0.725c-3.122,2.722-3.446,7.459-0.725,10.582c4.717,5.411,11.533,8.515,18.7,8.515
				s13.983-3.104,18.7-8.515C272.903,250.573,272.579,245.836,269.457,243.114z"/>
			<path d="M360.282,355.294c22.648,0,41.074-18.426,41.074-41.074s-18.426-41.074-41.074-41.074
				c-22.649,0-41.075,18.426-41.075,41.074S337.633,355.294,360.282,355.294z M360.282,288.146
				c14.377,0,26.074,11.697,26.074,26.074s-11.697,26.074-26.074,26.074c-14.378,0-26.075-11.697-26.075-26.074
				C334.207,299.844,345.904,288.146,360.282,288.146z"/>
		</g>
	</g>
</g>
<g>
</g>
<g>
</g>
<g>
</g>
<g>
</g>
<g>
</g>
<g>
</g>
<g>
</g>
<g>
</g>
<g>
</g>
<g>
</g>
<g>
</g>
<g>
</g>
<g>
</g>
<g>
</g>
<g>
</g>
</svg>
