<?xml version="1.0" encoding="iso-8859-1"?>
<!-- Generator: Adobe Illustrator 19.0.0, SVG Export Plug-In . SVG Version: 6.00 Build 0)  -->
<svg version="1.1" id="Capa_1" xmlns="http://www.w3.org/2000/svg" xmlns:xlink="http://www.w3.org/1999/xlink" x="0px" y="0px"
	 viewBox="0 0 512 512" style="enable-background:new 0 0 512 512;" xml:space="preserve">
<g>
	<g>
		<g>
			<circle cx="353.079" cy="346.597" r="7.208"/>
			<circle cx="258.387" cy="345.458" r="7.208"/>
			<circle cx="296.992" cy="308.608" r="7.208"/>
			<path d="M119.198,417.261H73.971c-4.142,0-7.5,3.357-7.5,7.5s3.358,7.5,7.5,7.5h45.227c4.142,0,7.5-3.357,7.5-7.5
				S123.34,417.261,119.198,417.261z"/>
			<circle cx="157.856" cy="339.388" r="7.207"/>
			<circle cx="205.803" cy="319.156" r="7.208"/>
			<path d="M332.535,84.516c-2.93-2.928-7.678-2.928-10.607,0l-46.064,46.064c-2.929,2.93-2.929,7.678,0,10.607
				c1.465,1.464,3.385,2.196,5.304,2.196s3.839-0.732,5.304-2.196l46.065-46.064C335.464,92.193,335.464,87.444,332.535,84.516z"/>
			<path d="M243.691,58.323v65.145c0,4.143,3.358,7.5,7.5,7.5c4.142,0,7.5-3.357,7.5-7.5V58.323c0-4.143-3.358-7.5-7.5-7.5
				C247.049,50.823,243.691,54.18,243.691,58.323z"/>
			<path d="M226.519,141.186c2.929-2.93,2.929-7.678,0-10.607l-46.064-46.064c-2.928-2.928-7.677-2.928-10.606,0
				c-2.929,2.93-2.929,7.678,0,10.607l46.064,46.064c1.464,1.464,3.384,2.196,5.303,2.196
				C223.134,143.383,225.054,142.65,226.519,141.186z"/>
			<path d="M208.799,158.358h-65.145c-4.142,0-7.5,3.357-7.5,7.5s3.358,7.5,7.5,7.5h65.145c4.142,0,7.5-3.357,7.5-7.5
				C216.299,161.716,212.941,158.358,208.799,158.358z"/>
			<path d="M293.584,173.358h65.144c4.143,0,7.5-3.357,7.5-7.5s-3.357-7.5-7.5-7.5h-65.144c-4.143,0-7.5,3.357-7.5,7.5
				S289.441,173.358,293.584,173.358z"/>
			<path d="M300.743,463.88c4.143,0,7.5-3.357,7.5-7.5s-3.357-7.5-7.5-7.5h-81.449c-4.142,0-7.5,3.357-7.5,7.5s3.358,7.5,7.5,7.5
				H300.743z"/>
			<path d="M424.935,422.706c4.143,0,7.5-3.357,7.5-7.5s-3.357-7.5-7.5-7.5H370.11c-4.143,0-7.5,3.357-7.5,7.5s3.357,7.5,7.5,7.5
				H424.935z"/>
			<path d="M482.477,364.441h-43.009c-20.218-27.084-46.556-49.607-76.423-65.259c-24.191-12.678-50.744-20.836-77.973-24.078
				c-9.017-23.212-11.703-51.175-7.891-81.652c12.586,5.854,28.966,10.621,48.975,10.621c37.273,0,61.936-16.395,73.321-26.167
				c3.523-3.025,5.545-7.417,5.546-12.048c0-4.63-2.02-9.02-5.544-12.046c-1.559-1.337-3.196-2.653-4.867-3.913
				c-3.31-2.494-8.01-1.832-10.504,1.475c-2.493,3.308-1.833,8.011,1.475,10.504c1.421,1.07,2.81,2.188,4.127,3.317
				c0.208,0.178,0.313,0.401,0.313,0.662c0,0.263-0.107,0.487-0.316,0.668c-9.81,8.421-31.11,22.548-63.551,22.548
				c-31.719,0-52.837-13.624-62.602-21.746c-7.162-5.958-17.563-5.958-24.727,0c-9.765,8.122-30.882,21.746-62.601,21.746
				c-32.441,0-53.742-14.128-63.552-22.549c-0.209-0.18-0.315-0.403-0.315-0.666c0-0.262,0.106-0.485,0.315-0.665
				c9.809-8.421,31.108-22.549,63.551-22.549l0.24,0.006c0.183,0.005,0.365,0.009,0.55,0.011h0.052c3.032,0,5.768-1.827,6.929-4.632
				c1.168-2.82,0.509-6.067-1.666-8.21l-0.564-0.553c-22.939-22.94-28.011-47.99-28.993-60.881c-0.021-0.275,0.063-0.51,0.248-0.695
				c0.187-0.186,0.42-0.268,0.694-0.248c12.891,0.981,37.941,6.054,60.887,29L215.151,97c2.144,2.175,5.391,2.832,8.211,1.665
				c2.821-1.168,4.652-3.929,4.631-6.981c-0.001-0.183-0.006-0.362-0.011-0.542l-0.005-0.247c0-32.44,14.127-53.741,22.547-63.551
				c0.359-0.418,0.975-0.417,1.334-0.001c8.42,9.811,22.547,31.112,22.547,63.552L274.4,91.15c-0.005,0.177-0.01,0.354-0.011,0.534
				c-0.021,3.057,1.814,5.819,4.64,6.985c2.828,1.167,6.076,0.499,8.216-1.683l0.538-0.55
				c22.943-22.942,47.996-28.014,60.888-28.994c0.272-0.02,0.501,0.063,0.688,0.251c0.186,0.187,0.271,0.416,0.25,0.682
				c-0.981,12.894-6.053,37.949-28.995,60.891l-0.564,0.554c-2.174,2.143-2.833,5.39-1.665,8.21c1.161,2.806,3.897,4.632,6.93,4.632
				h0.052c0.186-0.002,0.367-0.006,0.55-0.011l0.24-0.006c12.099,0,23.742,1.98,34.607,5.886c3.896,1.403,8.194-0.622,9.595-4.521
				c1.401-3.898-0.623-8.194-4.521-9.595c-7.895-2.838-16.132-4.792-24.614-5.847c17.916-22.991,22.364-46.21,23.342-59.057
				c0.351-4.622-1.326-9.151-4.602-12.426c-3.275-3.276-7.798-4.942-12.432-4.6c-12.843,0.977-36.056,5.423-59.048,23.339
				c-3.589-28.919-16.857-48.479-25.245-58.252c-3.025-3.523-7.417-5.544-12.049-5.544c-4.631,0-9.022,2.021-12.047,5.545
				c-8.388,9.771-21.656,29.332-25.246,58.25c-22.988-17.914-46.199-22.359-59.041-23.338c-4.628-0.347-9.165,1.324-12.44,4.6
				c-3.275,3.274-4.951,7.809-4.598,12.439c0.978,12.841,5.423,36.049,23.338,59.04c-28.924,3.589-48.48,16.858-58.252,25.247
				c-3.523,3.024-5.544,7.415-5.545,12.046c0,4.632,2.021,9.022,5.544,12.048c11.385,9.773,36.048,26.168,73.322,26.168
				c13.933,0,26.105-2.314,36.466-5.693c-0.438,5.442-0.732,10.846-0.843,16.151c-0.457,21.989,1.908,42.963,7.035,62.479
				c-22.722,4.03-44.778,11.494-65.156,22.173c-29.866,15.651-56.204,38.175-76.423,65.259H29.523
				C13.244,364.441,0,377.685,0,393.965v33.104c0,40.198,32.704,72.902,72.903,72.902h36.381c4.142,0,7.5-3.357,7.5-7.5
				s-3.358-7.5-7.5-7.5H72.903C40.975,484.972,15,458.997,15,427.069v-33.104c0-8.008,6.515-14.523,14.523-14.523h51.535
				c0.004,0,0.009,0.001,0.013,0.001c0.006,0,0.011-0.001,0.017-0.001h401.389c8.008,0,14.523,6.516,14.523,14.523v33.104
				c0,31.928-25.976,57.902-57.903,57.902H144.491c-4.142,0-7.5,3.357-7.5,7.5s3.358,7.5,7.5,7.5h294.606
				c40.199,0,72.903-32.704,72.903-72.902v-33.104C512,377.685,498.756,364.441,482.477,364.441z M226.847,214.844
				c0.156-7.489,0.682-15.183,1.526-22.922c8.769-4.421,15.477-9.26,20.047-13.061c1.607-1.336,3.938-1.336,5.544,0
				c2.439,2.029,5.491,4.354,9.137,6.754c-4.843,32.352-2.936,62.489,5.541,88.157c-3.415-0.156-6.833-0.26-10.255-0.26
				c-8.206,0-16.397,0.475-24.534,1.365C228.767,256.235,226.405,236.077,226.847,214.844z M96.411,364.441
				c17.787-21.305,39.759-39.123,64.28-51.973c29.909-15.674,63.692-23.958,97.696-23.958s67.787,8.284,97.696,23.958
				c24.521,12.85,46.493,30.667,64.28,51.973H96.411z"/>
		</g>
	</g>
</g>
<g>
</g>
<g>
</g>
<g>
</g>
<g>
</g>
<g>
</g>
<g>
</g>
<g>
</g>
<g>
</g>
<g>
</g>
<g>
</g>
<g>
</g>
<g>
</g>
<g>
</g>
<g>
</g>
<g>
</g>
</svg>
