<?xml version="1.0" encoding="iso-8859-1"?>
<!-- Generator: Adobe Illustrator 19.0.0, SVG Export Plug-In . SVG Version: 6.00 Build 0)  -->
<svg version="1.1" id="Capa_1" xmlns="http://www.w3.org/2000/svg" xmlns:xlink="http://www.w3.org/1999/xlink" x="0px" y="0px"
	 viewBox="0 0 512.001 512.001" style="enable-background:new 0 0 512.001 512.001;" xml:space="preserve">
<g>
	<g>
		<g>
			<path d="M215.426,203.583c-11.866-9.66-28.161-12.414-42.524-7.184c-17.753,6.462-29.294,23.483-28.717,42.356
				c0.124,4.062,3.456,7.271,7.492,7.271c0.078,0,0.156-0.001,0.233-0.004c4.14-0.126,7.394-3.585,7.268-7.726
				c-0.379-12.387,7.198-23.56,18.854-27.802c9.571-3.486,20.011-1.719,27.925,4.722c3.212,2.615,7.936,2.131,10.551-1.082
				C219.124,210.921,218.639,206.197,215.426,203.583z"/>
			<path d="M229.596,130.105c4.595,0,8.721,2.734,10.511,6.968c1.614,3.815,6.014,5.598,9.829,3.985
				c3.815-1.613,5.6-6.014,3.986-9.829c-4.143-9.795-13.691-16.124-24.326-16.124c-11.648,0-21.785,7.471-25.227,18.59
				c-1.225,3.957,0.99,8.157,4.947,9.383c0.739,0.229,1.485,0.337,2.22,0.337c3.201,0,6.166-2.066,7.162-5.284
				C220.185,133.33,224.564,130.105,229.596,130.105z"/>
			<path d="M400.97,231.48c0.804,0.275,1.622,0.405,2.426,0.405c3.119,0,6.032-1.961,7.097-5.077
				c6.251-18.294,1.647-38.147-12.017-51.811c-14.622-14.621-36.347-18.803-55.351-10.653c-3.807,1.633-5.569,6.042-3.937,9.849
				c1.633,3.807,6.042,5.572,9.849,3.937c13.333-5.715,28.574-2.782,38.833,7.475c9.586,9.587,12.815,23.518,8.429,36.355
				C394.958,225.877,397.05,230.141,400.97,231.48z"/>
			<path d="M473.733,190.58c-2.709-2.536-4.525-5.754-5.252-9.304c-2.142-10.466-5.519-20.685-10.036-30.373
				c-1.751-3.754-6.214-5.381-9.967-3.627c-3.754,1.75-5.378,6.212-3.628,9.967c4.022,8.625,7.028,17.723,8.936,27.041
				c1.353,6.61,4.706,12.574,9.694,17.245c21.615,20.237,33.52,47.67,33.52,77.244c0,9.09-7.395,16.485-16.485,16.485H31.485
				c-9.09,0-16.485-7.396-16.485-16.485c0-40.102,22.426-75.461,55.978-93.369c0.342-0.145,0.667-0.322,0.981-0.514
				c11.077-5.764,23.338-9.641,36.388-11.172c9.178-1.078,16.56-8.233,17.952-17.402c3.168-20.872,13.746-40.028,29.787-53.939
				c16.2-14.05,36.947-21.787,58.421-21.787c17.116,0,33.752,4.874,48.111,14.096c6.638,4.265,15.005,4.902,22.383,1.713
				c10.645-4.606,21.763-7.638,33.202-9.07c0.146-0.011,0.291-0.03,0.437-0.05c4.946-0.601,9.949-0.909,15.002-0.909
				c35.022,0,68.457,15.032,91.729,41.241c2.751,3.098,7.491,3.378,10.588,0.629c3.097-2.751,3.378-7.491,0.628-10.588
				c-26.118-29.413-63.64-46.282-102.946-46.282c-3.843,0-7.66,0.164-11.45,0.474c-16.176-32.944-49.566-53.945-86.587-53.945
				c-13.287,0-26.165,2.656-38.277,7.896c-1.177,0.508-2.473,0.432-3.466-0.206c-11.859-7.616-25.596-11.643-39.725-11.643
				c-17.724,0-34.85,6.388-48.223,17.986C92.679,43.409,83.95,59.223,81.334,76.462c-0.102,0.672-0.61,1.176-1.262,1.252
				c-42.75,5.017-74.989,41.293-74.989,84.382c0,13.18,10.722,23.901,23.901,23.901H43.41C16.746,208.271,0,241.751,0,278.773
				c0,17.361,14.124,31.485,31.485,31.485h37.224l-16.97,49.245c-1.381,4.006-0.736,8.458,1.725,11.908
				c2.46,3.451,6.459,5.511,10.697,5.511h12.854l-9.406,38.862c-1.064,4.397,0.83,8.913,4.712,11.236
				c1.647,0.985,3.472,1.469,5.286,1.469c2.462,0,4.902-0.891,6.843-2.628l12.405-11.098c3.087-2.762,3.351-7.503,0.589-10.591
				c-2.763-3.086-7.503-3.35-10.59-0.589l-1.097,0.981l7.226-29.856c0.752-3.104,0.051-6.325-1.924-8.836
				c-1.976-2.511-4.94-3.951-8.135-3.951H66.771l17.804-51.664h35.605l-8.252,34.093c-0.751,3.104-0.049,6.325,1.926,8.835
				c1.975,2.511,4.94,3.95,8.134,3.95h16.788l-26.91,24.073c-3.087,2.762-3.351,7.503-0.589,10.591
				c1.481,1.655,3.533,2.499,5.592,2.499c1.78,0,3.567-0.63,4.998-1.91l32.001-28.628c3.862-3.455,5.163-8.815,3.313-13.656
				c-1.85-4.841-6.393-7.969-11.575-7.969h-17.71l7.716-31.878h65.404l-28.973,84.073c-1.73,5.019-0.922,10.595,2.16,14.917
				c3.082,4.322,8.091,6.902,13.399,6.902h26.028l-16.26,67.18c-1.234,5.098,0.961,10.331,5.461,13.024
				c1.909,1.142,4.025,1.702,6.126,1.702c2.853,0,5.681-1.033,7.932-3.046l110.266-98.643c4.759-4.257,6.362-10.862,4.083-16.827
				c-2.279-5.966-7.878-9.82-14.263-9.82h-33.74l14.393-59.463h75.288l-16.97,49.245c-1.381,4.006-0.736,8.458,1.725,11.908
				c2.46,3.451,6.459,5.511,10.697,5.511h12.855l-9.406,38.862c-1.064,4.397,0.83,8.913,4.712,11.236
				c1.648,0.985,3.472,1.47,5.286,1.469c2.461,0,4.902-0.891,6.843-2.628l69.418-62.101c3.862-3.455,5.163-8.815,3.313-13.656
				c-1.85-4.841-6.393-7.969-11.575-7.969h-17.71l7.716-31.878h40.696c17.361,0,31.485-14.124,31.485-31.485
				C512,245.494,498.052,213.348,473.733,190.58z M28.984,171.001v-0.003c-4.908,0-8.901-3.993-8.901-8.901
				c0-35.482,26.541-65.353,61.738-69.484c7.334-0.861,13.232-6.577,14.343-13.899c2.082-13.716,9.035-26.306,19.578-35.449
				c10.646-9.233,24.282-14.318,38.396-14.318c11.248,0,22.182,3.203,31.619,9.264c5.206,3.343,11.759,3.848,17.527,1.352
				c10.22-4.421,21.094-6.663,32.321-6.663c29.585,0,56.43,15.88,70.807,41.164c-9.365,1.88-18.511,4.737-27.367,8.568
				c-2.784,1.205-5.894,0.993-8.321-0.566c-16.782-10.777-36.222-16.475-56.217-16.475c-25.084,0-49.322,9.04-68.249,25.455
				c-18.732,16.245-31.087,38.626-34.789,63.021c-0.387,2.548-2.344,4.459-4.87,4.755c-14.462,1.698-28.076,5.916-40.429,12.179
				H28.984z M316.975,384.721c0.1,0,0.146,0.013,0.15,0.013c0.073,0.053,0.152,0.26,0.135,0.339c0,0-0.023,0.042-0.106,0.116
				l-102.871,92.027l14.814-61.207c0.874-3.607,0.058-7.35-2.237-10.268c-2.296-2.918-5.741-4.591-9.454-4.591h-29.804
				c-0.621,0-0.988-0.332-1.186-0.611c-0.199-0.279-0.394-0.734-0.191-1.321l30.657-88.96h65.312l-14.427,59.604
				c-0.874,3.607-0.058,7.35,2.237,10.268c2.296,2.918,5.741,4.591,9.454,4.591H316.975z M442.981,357.137l-53.017,47.429
				l7.226-29.856c0.753-3.104,0.051-6.325-1.924-8.836c-1.976-2.511-4.94-3.951-8.135-3.951h-16.153l17.804-51.664h35.605
				l-8.252,34.093c-0.751,3.104-0.049,6.325,1.926,8.835c1.975,2.511,4.94,3.95,8.134,3.95H442.981z"/>
		</g>
	</g>
</g>
<g>
</g>
<g>
</g>
<g>
</g>
<g>
</g>
<g>
</g>
<g>
</g>
<g>
</g>
<g>
</g>
<g>
</g>
<g>
</g>
<g>
</g>
<g>
</g>
<g>
</g>
<g>
</g>
<g>
</g>
</svg>
