<?xml version="1.0" encoding="iso-8859-1"?>
<!-- Generator: Adobe Illustrator 19.0.0, SVG Export Plug-In . SVG Version: 6.00 Build 0)  -->
<svg version="1.1" id="Capa_1" xmlns="http://www.w3.org/2000/svg" xmlns:xlink="http://www.w3.org/1999/xlink" x="0px" y="0px"
	 viewBox="0 0 512 512" style="enable-background:new 0 0 512 512;" xml:space="preserve">
<g>
	<g>
		<g>
			<path d="M249.019,478.863l6.98-6.982l6.98,6.982c1.465,1.464,3.385,2.196,5.304,2.196c1.919,0,3.839-0.733,5.304-2.196
				c2.929-2.93,2.929-7.678,0-10.607l-12.284-12.284c-2.93-2.928-7.678-2.928-10.607,0l-12.284,12.284
				c-2.929,2.93-2.929,7.678,0,10.607C241.341,481.791,246.089,481.791,249.019,478.863z"/>
			<path d="M332.367,308.872v-11.624c0-4.142-3.357-7.5-7.5-7.5s-7.5,3.358-7.5,7.5v11.624c0,4.142,3.357,7.5,7.5,7.5
				C329.01,316.372,332.367,313.015,332.367,308.872z"/>
			<path d="M346.982,251.402l-12.284-12.284c-2.93-2.928-7.678-2.928-10.607,0l-12.284,12.284c-2.929,2.93-2.929,7.678,0,10.607
				c2.93,2.928,7.678,2.928,10.607,0l6.98-6.981l6.98,6.981c1.465,1.464,3.385,2.196,5.304,2.196c1.919,0,3.839-0.732,5.304-2.196
				C349.911,259.08,349.911,254.332,346.982,251.402z"/>
			<path d="M322.414,409.302l6.98-6.981l6.98,6.981c1.465,1.464,3.385,2.196,5.304,2.196c1.919,0,3.839-0.732,5.304-2.196
				c2.929-2.93,2.929-7.678,0-10.607l-12.284-12.284c-2.93-2.928-7.678-2.928-10.607,0l-12.284,12.284
				c-2.929,2.93-2.929,7.678,0,10.607C314.736,412.229,319.484,412.229,322.414,409.302z"/>
			<path d="M213.997,421.19l-12.284,12.284c-2.929,2.93-2.929,7.678,0,10.607c2.93,2.928,7.678,2.928,10.607,0l6.98-6.981
				l6.98,6.981c1.465,1.464,3.385,2.196,5.304,2.196s3.839-0.732,5.304-2.196c2.929-2.93,2.929-7.678,0-10.607l-12.284-12.284
				C221.675,418.263,216.927,418.263,213.997,421.19z"/>
			<path d="M283.12,303.502c0-7.089-5.768-12.857-12.857-12.857h-28.529c-7.089,0-12.856,5.768-12.856,12.857v14.265
				c0,14.954,12.166,27.12,27.121,27.12c14.955,0,27.121-12.166,27.121-27.12V303.502z M268.12,317.767
				c0,6.683-5.438,12.12-12.121,12.12c-6.683,0-12.121-5.438-12.121-12.12v-12.121h24.242V317.767z"/>
			<path d="M261.303,386.41c-2.93-2.928-7.678-2.928-10.607,0l-12.284,12.284c-2.929,2.93-2.929,7.678,0,10.607
				c2.93,2.928,7.678,2.928,10.607,0l6.98-6.981l6.98,6.981c1.465,1.464,3.385,2.196,5.304,2.196s3.839-0.732,5.304-2.196
				c2.929-2.93,2.929-7.678,0-10.607L261.303,386.41z"/>
			<path d="M285.717,444.082l6.98-6.981l6.98,6.981c1.465,1.464,3.385,2.196,5.304,2.196c1.919,0,3.839-0.732,5.304-2.196
				c2.929-2.93,2.929-7.678,0-10.607l-12.284-12.284c-2.93-2.928-7.678-2.928-10.608,0l-12.284,12.284
				c-2.929,2.93-2.929,7.678,0,10.607C278.039,447.01,282.787,447.01,285.717,444.082z"/>
			<path d="M255.999,56.334c-4.143,0-7.5,3.357-7.5,7.5v87.165c0,4.143,3.357,7.5,7.5,7.5s7.5-3.357,7.5-7.5V63.834
				C263.499,59.691,260.142,56.334,255.999,56.334z"/>
			<path d="M182.604,402.32l6.98,6.981c1.465,1.464,3.385,2.196,5.304,2.196s3.839-0.732,5.304-2.196
				c2.929-2.93,2.929-7.678,0-10.607l-12.284-12.284c-2.93-2.928-7.678-2.928-10.607,0l-12.284,12.284
				c-2.929,2.93-2.929,7.678,0,10.607c2.93,2.928,7.678,2.928,10.607,0L182.604,402.32z"/>
			<path d="M453.544,107.286c-3.342-4.315-8.37-6.778-13.827-6.778c-0.07,0-0.141,0.001-0.211,0.002
				c-3.13,0.037-6.34,0.149-9.541,0.335c-4.135,0.239-7.293,3.785-7.054,7.921c0.239,4.135,3.778,7.293,7.921,7.054
				c2.973-0.172,5.951-0.276,8.85-0.312h0.033c1.065,0,1.691,0.602,1.97,0.962c0.282,0.364,0.713,1.132,0.429,2.178
				c-5.589,20.626-19.668,58.868-51.157,83.254c-7.836,6.068-16.804,11.259-26.702,15.486c-5.037-6.256-10.631-12.105-16.751-17.458
				c-0.21-0.184-0.425-0.362-0.637-0.544l60.8-47.085c3.275-2.536,3.874-7.247,1.338-10.521c-2.536-3.277-7.248-3.875-10.522-1.338
				l-63.889,49.478c-2.583-1.772-5.221-3.452-7.909-5.04c16.27-14.864,28.457-31.296,36.271-48.974
				c0.45-1.019,0.875-2.042,1.295-3.065c10.553-5.447,22.402-9.706,35.298-12.641c4.039-0.92,6.568-4.939,5.648-8.977
				c-0.918-4.039-4.939-6.57-8.977-5.648c-9.05,2.059-17.648,4.733-25.739,7.963c8.083-33.43,3.114-66.2-1.235-84.695
				c-1.267-5.389-4.894-9.762-9.949-11.997c-5.058-2.235-10.732-1.976-15.573,0.716c-10.813,6.012-29.956,18.063-47.2,36.079
				c-7.998-20.053-18.759-36.35-26.571-46.688C266.613,2.533,261.527,0,255.999,0s-10.614,2.533-13.952,6.95
				c-7.813,10.338-18.573,26.636-26.571,46.688c-17.245-18.016-36.388-30.067-47.201-36.08c-4.838-2.689-10.513-2.95-15.572-0.715
				c-5.056,2.235-8.683,6.608-9.949,11.997c-4.349,18.493-9.318,51.258-1.238,84.684c-26.973-10.754-53.93-12.838-69.024-13.015
				c-5.535-0.084-10.652,2.405-14.036,6.776c-3.385,4.371-4.495,9.942-3.048,15.285c6.081,22.438,21.502,64.123,56.452,91.189
				c8.028,6.217,17.07,11.597,26.949,16.077c-10.767,16.891-17.845,36.041-20.552,56.211c-4.696,34.989-4.696,70.471,0,105.459
				c3.499,26.072,14.248,50.494,31.086,70.626c2.657,3.176,7.387,3.598,10.564,0.941c3.178-2.657,3.599-7.388,0.941-10.564
				c-15.017-17.954-24.604-39.738-27.725-62.998c-4.518-33.664-4.518-67.804,0-101.468c3.995-29.767,18.644-57.05,41.249-76.824
				c22.605-19.774,51.595-30.664,81.628-30.664c30.033,0,59.022,10.89,81.628,30.664c22.605,19.774,37.254,47.058,41.249,76.824
				c4.518,33.664,4.518,67.804,0,101.468c-3.995,29.767-18.644,57.05-41.249,76.824C315.021,486.11,286.032,497,255.999,497
				c-25.427,0-49.882-7.658-70.722-22.146c-3.403-2.365-8.076-1.524-10.439,1.877c-2.364,3.401-1.523,8.075,1.877,10.439
				c23.366,16.244,50.782,24.83,79.284,24.83c33.667,0,66.164-12.208,91.504-34.374c25.34-22.166,41.762-52.751,46.24-86.118
				c4.696-34.989,4.696-70.471,0-105.46c-2.707-20.17-9.785-39.319-20.552-56.211c9.878-4.48,18.921-9.859,26.949-16.077
				c34.951-27.065,50.371-68.751,56.452-91.189C458.039,117.229,456.929,111.657,453.544,107.286z M177.405,189.919l-63.889-49.478
				c-3.275-2.537-7.986-1.939-10.521,1.338c-2.536,3.274-1.938,7.985,1.338,10.521l60.8,47.085c-0.211,0.183-0.426,0.36-0.637,0.544
				c-6.12,5.354-11.714,11.202-16.751,17.458c-9.898-4.228-18.866-9.418-26.702-15.486c-31.489-24.387-45.568-62.629-51.157-83.254
				c-0.284-1.046,0.148-1.813,0.429-2.178c0.279-0.36,0.905-0.962,1.969-0.962h0.033c16.205,0.191,47.169,2.728,75.421,17.304
				c0.424,1.033,0.852,2.065,1.307,3.093c7.814,17.678,20.001,34.11,36.271,48.974C182.626,186.466,179.988,188.147,177.405,189.919
				z M199.611,177.515c-16.849-14.434-29.237-30.454-36.849-47.676c-0.751-1.7-1.44-3.41-2.098-5.124
				c-0.009-0.023-0.018-0.047-0.027-0.071c-13.415-35.009-7.943-72.554-3.282-92.37c0.248-1.056,0.992-1.525,1.413-1.712
				c0.423-0.185,1.271-0.418,2.219,0.106c11.163,6.206,31.896,19.342,48.961,39.187c-3.322,11.717-5.433,24.345-5.433,37.561
				c0,2.912,0.102,5.839,0.305,8.777l-19.449-43.999c-1.675-3.789-6.105-5.505-9.892-3.827c-3.788,1.674-5.502,6.104-3.827,9.892
				l35.24,79.724c1.238,2.803,3.984,4.47,6.863,4.47c0.708,0,1.423-0.107,2.127-0.317c1.124,2.763,2.322,5.531,3.611,8.303
				C212.694,172.29,206.048,174.658,199.611,177.515z M277.419,167.219c-7.047-1.099-14.206-1.663-21.42-1.663
				c-7.214,0-14.373,0.565-21.42,1.663c-9.994-20.45-15.064-40.545-15.064-59.802c0-12.804,2.241-25.056,5.7-36.362
				c0.183-0.438,0.323-0.89,0.421-1.351c7.363-23.253,19.801-42.362,28.378-53.71c0.654-0.865,1.524-0.994,1.985-0.994
				s1.331,0.129,1.985,0.995c8.577,11.348,21.016,30.456,28.378,53.709c0.098,0.461,0.237,0.913,0.421,1.351
				c3.459,11.306,5.7,23.558,5.7,36.362C292.483,126.674,287.413,146.769,277.419,167.219z M312.387,177.515
				c-6.437-2.858-13.083-5.226-19.883-7.077c1.289-2.772,2.488-5.539,3.611-8.303c0.704,0.21,1.419,0.317,2.127,0.317
				c2.879,0,5.625-1.667,6.863-4.47l35.24-79.724c1.675-3.788-0.039-8.218-3.827-9.892c-3.79-1.676-8.218,0.039-9.892,3.827
				l-19.449,43.999c0.203-2.938,0.305-5.865,0.305-8.777c0-13.216-2.112-25.844-5.433-37.561
				c17.065-19.846,37.799-32.981,48.96-39.186c0.95-0.529,1.799-0.293,2.22-0.107c0.421,0.187,1.165,0.656,1.413,1.712
				c4.661,19.817,10.133,57.362-3.282,92.371c-0.01,0.024-0.018,0.048-0.028,0.073c-0.658,1.713-1.346,3.423-2.097,5.122
				C341.624,147.061,329.236,163.081,312.387,177.515z"/>
			<path d="M179.631,297.248v11.624c0,4.142,3.357,7.5,7.5,7.5s7.5-3.358,7.5-7.5v-11.624c0-4.142-3.357-7.5-7.5-7.5
				S179.631,293.105,179.631,297.248z"/>
			<path d="M250.695,239.118l-12.284,12.284c-2.929,2.93-2.929,7.678,0,10.607c2.93,2.928,7.678,2.928,10.607,0l6.98-6.981
				l6.98,6.981c1.465,1.464,3.385,2.196,5.304,2.196s3.839-0.732,5.304-2.196c2.929-2.93,2.929-7.678,0-10.607l-12.284-12.284
				C258.373,236.19,253.625,236.19,250.695,239.118z"/>
			<path d="M298.001,204.337c-2.93-2.928-7.678-2.928-10.608,0l-12.284,12.284c-2.929,2.93-2.929,7.678,0,10.607
				c2.93,2.928,7.678,2.928,10.607,0l6.98-6.981l6.98,6.981c1.465,1.464,3.385,2.196,5.304,2.196c1.919,0,3.839-0.732,5.304-2.196
				c2.929-2.93,2.929-7.678,0-10.607L298.001,204.337z"/>
			<path d="M177.3,239.118l-12.284,12.284c-2.929,2.93-2.929,7.678,0,10.607c2.93,2.928,7.678,2.928,10.607,0l6.981-6.981
				l6.98,6.981c1.465,1.464,3.385,2.196,5.304,2.196s3.839-0.732,5.304-2.196c2.929-2.93,2.929-7.678,0-10.607l-12.284-12.284
				C184.978,236.19,180.229,236.19,177.3,239.118z"/>
			<path d="M224.604,204.337c-2.93-2.928-7.678-2.928-10.607,0l-12.284,12.284c-2.929,2.93-2.929,7.678,0,10.607
				c2.93,2.928,7.678,2.928,10.607,0l6.98-6.981l6.98,6.981c1.465,1.464,3.385,2.196,5.304,2.196s3.839-0.732,5.304-2.196
				c2.929-2.93,2.929-7.678,0-10.607L224.604,204.337z"/>
		</g>
	</g>
</g>
<g>
</g>
<g>
</g>
<g>
</g>
<g>
</g>
<g>
</g>
<g>
</g>
<g>
</g>
<g>
</g>
<g>
</g>
<g>
</g>
<g>
</g>
<g>
</g>
<g>
</g>
<g>
</g>
<g>
</g>
</svg>
