<?xml version="1.0" encoding="iso-8859-1"?>
<!-- Generator: Adobe Illustrator 19.0.0, SVG Export Plug-In . SVG Version: 6.00 Build 0)  -->
<svg version="1.1" id="Capa_1" xmlns="http://www.w3.org/2000/svg" xmlns:xlink="http://www.w3.org/1999/xlink" x="0px" y="0px"
	 viewBox="0 0 512 512" style="enable-background:new 0 0 512 512;" xml:space="preserve">
<g>
	<g>
		<g>
			<circle cx="448.076" cy="213.173" r="7.282"/>
			<circle cx="319.232" cy="294.81" r="7.282"/>
			<path d="M500.859,283.184c-7.258-18.482-10.304-38.646-8.811-58.312c0.313-4.13-2.78-7.732-6.911-8.046
				c-4.137-0.315-7.733,2.78-8.046,6.911c-1.663,21.904,1.727,44.356,9.805,64.929c11.446,29.157,13.198,60.609,5.068,90.955
				c-10.36,38.665-35.369,70.617-70.42,89.973c-35.032,19.344-75.439,23.47-113.772,11.615c-13.646-4.22-26.428-10.37-38.046-18.187
				c-0.102-0.072-0.204-0.144-0.309-0.211c-7.321-4.953-14.178-10.567-20.488-16.79c-0.195-0.221-0.402-0.428-0.618-0.621
				c-9.435-9.418-17.641-20.187-24.34-32.109c-2.919-5.195-5.502-10.52-7.75-15.949c-0.062-0.173-0.132-0.344-0.207-0.514
				c-11.753-28.684-14.114-60.202-6.513-90.463c7.809-31.088,25.083-58.097,49.954-78.106c0.872-0.702,1.713-1.429,2.567-2.146
				c0.021-0.018,0.043-0.035,0.064-0.053c23.766-19.974,40.42-45.778,48.214-74.865l0.638-2.384
				c6.164-23.002,20.941-42.186,41.609-54.016c20.666-11.829,44.693-14.855,67.661-8.52c21.374,5.898,39.614,19.627,51.36,38.659
				c11.648,18.876,15.955,41.287,12.125,63.105c-0.717,4.08,2.01,7.968,6.09,8.684c4.076,0.722,7.968-2.011,8.684-6.09
				c4.467-25.44-0.554-51.569-14.134-73.575c-13.741-22.266-35.098-38.332-60.135-45.24c-26.847-7.407-54.939-3.87-79.101,9.959
				c-24.164,13.831-41.44,36.259-48.647,63.154l-0.638,2.384c-2.79,10.411-6.861,20.355-12.09,29.698
				c-0.2-2.915-0.311-5.828-0.311-8.73v-1.272c0-57.416-46.161-104.471-102.901-104.891c-0.266-0.002-0.527-0.003-0.792-0.003
				c-17.413,0-34.167,4.266-49.083,12.305c-1.244-1.615-2.509-3.195-3.789-4.722C95.863,32.775,50.559,16.357,26.313,9.857
				C19.726,8.092,12.68,9.65,7.462,14.029c-5.217,4.378-7.978,11.047-7.383,17.84c2.191,25.008,10.494,72.473,41.478,109.397
				c9.483,11.299,21.048,21.532,34.41,30.463c-0.716,26.793-9.724,52.754-26.203,75.284c-20.788,28.421-31.482,62.123-30.928,97.466
				c0.646,41.145,16.954,80.135,45.919,109.783c28.974,29.656,67.571,46.853,108.682,48.421c2.114,0.081,4.222,0.121,6.324,0.121
				c30.535,0,59.917-8.481,85.626-24.697c11.725,7.382,24.458,13.258,37.954,17.432c15.816,4.892,31.952,7.315,47.979,7.315
				c26.803-0.001,53.299-6.779,77.476-20.13c38.652-21.345,66.231-56.582,77.656-99.221
				C515.421,350.039,513.486,315.348,500.859,283.184z M53.047,131.625C24.708,97.852,17.059,53.809,15.022,30.561
				c-0.171-1.95,0.588-3.788,2.082-5.042c1.494-1.253,3.437-1.68,5.325-1.174c22.542,6.043,64.588,21.224,92.927,54.997
				c0.867,1.033,1.723,2.1,2.574,3.182c-3.939,2.936-7.699,6.167-11.248,9.69c-4.44,4.407-8.427,9.145-11.947,14.155L51.666,55.042
				c-2.662-3.172-7.393-3.588-10.565-0.924c-3.173,2.662-3.587,7.393-0.924,10.565l46.451,55.359
				c-5.2,10.554-8.557,21.959-9.908,33.82C67.724,147.089,59.78,139.649,53.047,131.625z M174.01,487.697
				c-37.257-1.421-72.247-17.017-98.524-43.915c-26.274-26.894-41.065-62.243-41.651-99.538
				c-0.503-32.051,9.192-62.61,28.038-88.374c19.08-26.086,29.166-56.375,29.166-87.596v-2.47c0-15.184,3.8-29.767,10.924-42.698
				c0.127-0.201,0.245-0.406,0.352-0.617c3.994-7.112,8.983-13.723,14.935-19.632c16.9-16.774,39.316-25.952,63.15-25.739
				c48.531,0.36,88.014,40.686,88.014,89.891v1.272c0,9.112,0.888,18.31,2.634,27.392c-3.131,3.864-6.49,7.58-10.076,11.129
				c-3.143-12.533-4.737-25.444-4.737-38.522v-1.271c0-42.541-34.06-77.404-75.953-77.715l-0.555-0.002
				c-42.186,0-76.508,34.321-76.508,76.509v2.47c0,33.822-10.897,66.6-31.515,94.785c-17.268,23.61-26.152,51.617-25.69,80.993
				c0.47,29.982,10.726,58.209,29.659,81.632c1.482,1.833,3.65,2.785,5.838,2.785c1.655,0,3.322-0.545,4.71-1.667
				c3.222-2.605,3.722-7.326,1.118-10.547c-16.806-20.791-25.91-45.84-26.327-72.437c-0.409-26.086,7.475-50.948,22.8-71.902
				c22.51-30.773,34.407-66.612,34.407-103.641v-2.47c0-33.916,27.593-61.51,61.481-61.51l0.499,0.002
				c33.655,0.25,61.037,28.384,61.037,62.716v1.271c0,16.908,2.436,33.565,7.23,49.596c-18.679,15.417-33.359,34.464-43.366,56.093
				c-8.089-3.04-16.591-4.582-25.373-4.582c-39.978,0-72.504,32.525-72.504,72.504c0,39.98,32.525,72.505,72.504,72.505
				c8.858,0,17.427-1.568,25.577-4.659c1.722,3.684,3.583,7.32,5.594,10.897c5.764,10.256,12.537,19.743,20.179,28.351
				c-15.901,7.627-33.464,11.637-51.348,11.637c-1.543,0-3.119-0.03-4.682-0.089c-24.432-0.933-47.639-9.307-67.114-24.217
				c-3.29-2.52-7.998-1.892-10.514,1.396c-2.518,3.289-1.893,7.997,1.396,10.515c21.951,16.806,48.114,26.244,75.662,27.295
				c1.753,0.067,3.52,0.1,5.256,0.1c21.841,0,43.276-5.316,62.364-15.393c3.188,2.949,6.493,5.763,9.906,8.438
				C228.376,482.191,201.641,488.746,174.01,487.697z M199.576,395.874c-6.332,2.344-12.982,3.529-19.851,3.529
				c-31.708,0-57.505-25.797-57.505-57.506c0-31.708,25.797-57.505,57.505-57.505c6.818,0,13.423,1.167,19.715,3.477
				c-1.715,4.845-3.217,9.795-4.485,14.844C187.149,333.787,188.856,366.053,199.576,395.874z"/>
			<circle cx="265.789" cy="392.339" r="7.281"/>
			<circle cx="273.07" cy="335.671" r="7.281"/>
			<circle cx="450.989" cy="389.864" r="7.281"/>
			<circle cx="252.011" cy="294.809" r="7.281"/>
			<circle cx="443.708" cy="152.021" r="7.281"/>
			<circle cx="307.029" cy="362.361" r="7.281"/>
			<circle cx="295.351" cy="414.183" r="7.281"/>
			<circle cx="390.232" cy="130.107" r="7.282"/>
			<circle cx="465.552" cy="362.361" r="7.282"/>
			<circle cx="409.803" cy="178.229" r="7.282"/>
			<circle cx="455.357" cy="276.892" r="7.281"/>
		</g>
	</g>
</g>
<g>
</g>
<g>
</g>
<g>
</g>
<g>
</g>
<g>
</g>
<g>
</g>
<g>
</g>
<g>
</g>
<g>
</g>
<g>
</g>
<g>
</g>
<g>
</g>
<g>
</g>
<g>
</g>
<g>
</g>
</svg>
