<?xml version="1.0" encoding="iso-8859-1"?>
<!-- Generator: Adobe Illustrator 19.0.0, SVG Export Plug-In . SVG Version: 6.00 Build 0)  -->
<svg version="1.1" id="Capa_1" xmlns="http://www.w3.org/2000/svg" xmlns:xlink="http://www.w3.org/1999/xlink" x="0px" y="0px"
	 viewBox="0 0 512.002 512.002" style="enable-background:new 0 0 512.002 512.002;" xml:space="preserve">
<g>
	<g>
		<g>
			<path d="M356.716,271.303c-2.659,3.053-6.5,4.804-10.537,4.804c-4.036,0-7.878-1.751-10.538-4.805
				c-2.722-3.122-7.458-3.447-10.582-0.727c-3.122,2.721-3.448,7.459-0.727,10.582c5.51,6.322,13.473,9.949,21.847,9.949
				c8.375,0,16.338-3.627,21.848-9.95c2.721-3.123,2.395-7.861-0.728-10.582C364.176,267.854,359.438,268.179,356.716,271.303z"/>
			<path d="M277.262,265.583v10.195c0,4.143,3.357,7.5,7.5,7.5s7.5-3.357,7.5-7.5v-10.195c0-4.143-3.357-7.5-7.5-7.5
				S277.262,261.44,277.262,265.583z"/>
			<path d="M490.415,220.133c-2.213-3.502-6.849-4.547-10.347-2.331c-3.501,2.214-4.545,6.846-2.331,10.347
				C490.339,248.079,497,271.141,497,294.843c0,68.912-56.064,124.976-124.976,124.976h-83.091
				c-68.912,0-124.976-56.064-124.976-124.977s56.064-124.976,124.976-124.976h83.091c31.362,0,61.354,11.666,84.45,32.85
				c3.052,2.8,7.797,2.595,10.597-0.458c2.8-3.053,2.595-7.797-0.458-10.597c-4.354-3.993-8.93-7.676-13.692-11.054
				c27.246-40.298,26.396-81.384,25.751-111.801l-0.002-0.126c-0.103-4.815-0.198-9.362-0.198-13.778
				c0-19.595-15.941-35.536-35.536-35.536c-16.726,0-30.848,11.561-34.575,27.286l-11.59,1.37
				c-9.667,1.142-16.956,9.344-16.956,19.078c0,9.733,7.289,17.936,16.956,19.079l11.05,1.306
				c-0.034,4.378-0.176,8.975-0.551,13.563l-12.534-2.219c-9.588-1.701-18.933,4.054-21.741,13.372
				c-2.81,9.319,1.801,19.276,10.727,23.161l10.938,4.761c-3.421,5.177-7.608,10.173-12.645,15.099
				c-3.313-0.235-6.644-0.355-9.99-0.355h-83.091c-3.358,0-6.686,0.126-9.985,0.36c-5.039-4.928-9.228-9.926-12.65-15.104
				l10.938-4.761c8.926-3.886,13.536-13.843,10.727-23.161c-2.811-9.318-12.158-15.065-21.741-13.371l-12.535,2.218
				c-0.375-4.588-0.517-9.185-0.55-13.563l11.05-1.306c9.667-1.144,16.956-9.346,16.956-19.079c0-9.734-7.29-17.937-16.956-19.078
				l-11.591-1.37c-3.727-15.727-17.848-27.286-34.575-27.286c-19.595,0-35.537,15.941-35.537,35.536
				c0,4.46-0.097,9.047-0.201,13.903c-0.645,30.429-1.494,71.534,25.782,111.845C193.36,191.094,180.75,204.304,171,219.516h-63.349
				c-49.873,0-91.928,34.093-104.098,80.195c-0.067,0.213-0.126,0.429-0.174,0.648C1.174,308.932,0,317.915,0,327.167
				c0,22.122,6.661,43.377,19.263,61.466c1.458,2.093,3.789,3.214,6.16,3.214c1.48,0,2.975-0.438,4.281-1.347
				c3.399-2.368,4.234-7.043,1.867-10.441c-9.95-14.282-15.58-30.866-16.44-48.219c19.03,31.964,53.839,52.568,92.521,52.568h73.8
				c12.209,14.627,27.339,26.731,44.488,35.41H107.651c-12.877,0-25.412-2.63-36.994-7.682c-0.157-0.076-0.321-0.14-0.484-0.205
				c-5.309-2.352-10.414-5.216-15.256-8.574c-3.404-2.36-8.077-1.514-10.437,1.889c-2.36,3.404-1.515,8.077,1.889,10.438
				c4.241,2.941,8.662,5.544,13.221,7.825v30.961c0,21.045,17.121,38.166,38.167,38.166c21.045,0,38.166-17.121,38.166-38.166
				v-19.65h19.765v19.65c0,21.045,17.122,38.166,38.167,38.166c21.045,0,38.166-17.121,38.166-38.166v-19.65h22.517v19.65
				c0,21.045,17.122,38.166,38.167,38.166c21.045,0,38.166-17.121,38.166-38.166v-19.65h41.155
				c77.183,0,139.976-62.793,139.976-139.977C512,268.299,504.536,242.465,490.415,220.133z M389.708,121.607
				c-1.957-0.852-2.968-3.034-2.352-5.078c0.616-2.043,2.661-3.299,4.767-2.931l20.388,3.608c1.992,0.353,4.043-0.114,5.686-1.296
				c1.644-1.182,2.739-2.978,3.038-4.979c1.558-10.408,1.667-21.105,1.569-30.197c-0.041-3.771-2.875-6.925-6.62-7.367
				l-17.651-2.086c-2.119-0.25-3.717-2.049-3.717-4.183c0-2.134,1.598-3.932,3.717-4.182l17.288-2.044
				c3.628-0.429,6.42-3.411,6.609-7.06c0.565-10.906,9.573-19.449,20.507-19.449c11.323,0,20.536,9.213,20.536,20.536
				c0,4.574,0.098,9.199,0.201,14.096l0.003,0.126c0.636,30.017,1.401,67.023-23.438,103.464
				c-12.504-6.987-26.009-11.997-40.066-14.871c4.784-5.667,8.721-11.513,11.893-17.659c0.951-1.844,1.097-3.999,0.4-5.954
				c-0.695-1.955-2.17-3.534-4.072-4.362L389.708,121.607z M197.281,69.123c0.105-4.938,0.204-9.603,0.204-14.222
				c0-11.323,9.213-20.536,20.537-20.536c10.934,0,19.942,8.543,20.507,19.449c0.189,3.648,2.98,6.631,6.609,7.06l17.288,2.044
				c2.119,0.25,3.717,2.048,3.717,4.182c0,2.134-1.599,3.932-3.717,4.183l-17.653,2.086c-3.745,0.442-6.579,3.597-6.619,7.367
				c-0.098,9.092,0.012,19.788,1.569,30.197c0.3,2.001,1.395,3.797,3.038,4.979s3.695,1.651,5.687,1.296l20.387-3.607
				c2.103-0.369,4.15,0.889,4.767,2.931c0.616,2.043-0.395,4.226-2.352,5.077l-18.686,8.133c-1.902,0.828-3.377,2.407-4.073,4.362
				c-0.696,1.955-0.55,4.11,0.401,5.954c3.171,6.145,7.107,11.989,11.889,17.654c-14.248,2.921-27.709,8.021-40.03,14.923
				C195.88,136.178,196.644,99.153,197.281,69.123z M107.651,369.407L107.651,369.407c-41.575,0.001-77.95-27.644-89.164-67.455
				c11.008-38.874,46.812-67.437,89.164-67.437h54.988c-8.766,18.278-13.682,38.739-13.682,60.327
				c0,27.39,7.915,52.963,21.567,74.565H107.651z M120.922,454.469c0,12.773-10.392,23.166-23.166,23.166
				c-12.774,0-23.167-10.393-23.167-23.166v-24.832c10.588,3.413,21.71,5.181,33.062,5.181h13.271V454.469z M217.019,454.469
				c0,12.773-10.393,23.166-23.167,23.166s-23.166-10.393-23.166-23.166v-19.65h46.333V454.469z M315.869,454.469
				c0,12.773-10.393,23.166-23.166,23.166c-12.774,0-23.167-10.393-23.167-23.166v-19.65h46.333V454.469z"/>
			<path d="M400.097,265.583v10.195c0,4.143,3.357,7.5,7.5,7.5s7.5-3.357,7.5-7.5v-10.195c0-4.143-3.357-7.5-7.5-7.5
				C403.454,258.083,400.097,261.44,400.097,265.583z"/>
		</g>
	</g>
</g>
<g>
</g>
<g>
</g>
<g>
</g>
<g>
</g>
<g>
</g>
<g>
</g>
<g>
</g>
<g>
</g>
<g>
</g>
<g>
</g>
<g>
</g>
<g>
</g>
<g>
</g>
<g>
</g>
<g>
</g>
</svg>
