<?xml version="1.0" encoding="iso-8859-1"?>
<!-- Generator: Adobe Illustrator 19.0.0, SVG Export Plug-In . SVG Version: 6.00 Build 0)  -->
<svg version="1.1" id="Capa_1" xmlns="http://www.w3.org/2000/svg" xmlns:xlink="http://www.w3.org/1999/xlink" x="0px" y="0px"
	 viewBox="0 0 512.002 512.002" style="enable-background:new 0 0 512.002 512.002;" xml:space="preserve">
<g>
	<g>
		<g>
			<path d="M440.133,202.241l-71.098,23.102c-3.939,1.28-6.096,5.512-4.816,9.451c1.03,3.17,3.97,5.185,7.132,5.185
				c0.768,0,1.549-0.119,2.319-0.369l71.098-23.102c3.939-1.28,6.097-5.512,4.816-9.451
				C448.305,203.116,444.072,200.96,440.133,202.241z"/>
			<path d="M140.653,239.978c3.162,0,6.103-2.015,7.132-5.185c1.28-3.939-0.876-8.171-4.815-9.451l-71.098-23.102
				c-3.943-1.28-8.171,0.875-9.452,4.817c-1.28,3.939,0.876,8.171,4.816,9.451l71.098,23.102
				C139.104,239.859,139.885,239.978,140.653,239.978z"/>
			<path d="M166.71,477.129c-8.394,3.277-17.272,6.105-25.672,8.177c-2.413,0.599-4.902-0.879-5.542-3.286
				c-1.961-7.385-3.622-15.147-4.936-23.07c-1.216-7.337-8.185-12.401-15.54-11.29c-7.935,1.199-15.831,2.018-23.465,2.435
				c-2.5,0.155-4.659-1.772-4.839-4.254c-1.671-23.038-1.438-81.442,36.718-126.086c1.696-1.984,2.238-4.709,1.431-7.191
				c-0.807-2.482-2.846-4.367-5.385-4.976c-57.113-13.695-91.628-60.803-103.818-80.421c-1.313-2.113-0.678-4.933,1.413-6.285
				c6.424-4.15,13.292-8.129,20.417-11.823c6.6-3.423,9.262-11.618,5.934-18.268c-3.593-7.178-6.812-14.434-9.566-21.565
				c-0.898-2.323,0.246-4.978,2.55-5.916c21.393-8.708,77.008-26.534,131.259-4.043c2.41,0.997,5.169,0.674,7.281-0.861
				c2.112-1.534,3.274-4.056,3.068-6.659c-4.625-58.542,29.515-105.928,44.407-123.584c1.604-1.901,4.482-2.169,6.415-0.599
				c5.93,4.824,11.836,10.127,17.554,15.764c5.295,5.223,13.912,5.222,19.208,0c5.72-5.64,11.625-10.942,17.553-15.763
				c1.933-1.572,4.811-1.302,6.415,0.598c14.893,17.655,49.033,65.041,44.407,123.584c-0.206,2.603,0.957,5.125,3.068,6.659
				c2.111,1.535,4.871,1.858,7.281,0.861c26.742-11.086,56.788-13.786,89.304-8.029c4.082,0.73,7.972-1.998,8.694-6.078
				c0.722-4.078-1.999-7.972-6.078-8.693c-31.101-5.51-60.256-3.849-86.843,4.921c0.185-58.662-33.258-104.985-48.368-122.898
				c-6.843-8.112-19.111-9.261-27.346-2.563C267.716,20.785,261.77,26.1,256,31.734c-5.767-5.633-11.713-10.945-17.692-15.81
				c-8.236-6.696-20.504-5.547-27.347,2.564c-15.11,17.914-48.557,64.239-48.367,122.906
				c-55.739-18.308-110.131-0.813-131.837,8.022c-9.83,4-14.715,15.313-10.889,25.217c2.777,7.189,5.993,14.486,9.567,21.709
				c-7.135,3.742-14.027,7.757-20.501,11.94c-8.916,5.765-11.613,17.787-6.012,26.801c12.366,19.904,46.087,66.026,101.948,83.978
				C70.23,366.411,70.06,423.55,71.755,446.924c0.768,10.584,10.017,18.707,20.617,18.149c7.697-0.42,15.631-1.224,23.605-2.39
				c1.355,7.948,3.043,15.743,5.022,23.188c2.316,8.72,10.319,14.566,18.996,14.565c1.533,0,3.088-0.183,4.636-0.564
				c9.152-2.258,18.417-5.208,27.536-8.769c3.859-1.507,5.766-5.856,4.26-9.715C174.918,477.529,170.568,475.622,166.71,477.129z"/>
			<path d="M287.052,339.101c5.252,5.252,12.149,7.877,19.047,7.877s13.797-2.625,19.048-7.877
				c10.502-10.502,10.502-27.592,0-38.095c-8.663-8.661-21.802-10.171-32.034-4.547l-19.003-19.003h26.874
				c3.257,11.213,13.617,19.437,25.866,19.437c14.854,0,26.937-12.084,26.937-26.938c0-14.854-12.083-26.937-26.937-26.937
				c-12.249,0-22.609,8.222-25.866,19.436h-26.874l18.995-18.995c3.935,2.174,8.375,3.335,12.994,3.335
				c7.195,0,13.96-2.802,19.047-7.89s7.89-11.852,7.89-19.047c0-7.196-2.802-13.961-7.889-19.047
				c-5.088-5.089-11.852-7.891-19.047-7.891c-7.196,0-13.96,2.802-19.047,7.89s-7.89,11.852-7.89,19.048
				c0,4.62,1.161,9.059,3.334,12.993l-18.995,18.995v-26.874c11.213-3.257,19.436-13.616,19.436-25.866
				c0-14.854-12.083-26.938-26.937-26.938c-14.854,0-26.937,12.084-26.937,26.938c0,12.25,8.223,22.609,19.436,25.866v26.874
				l-18.995-18.995c2.173-3.934,3.334-8.374,3.334-12.993c0-7.196-2.802-13.961-7.889-19.047
				c-5.088-5.089-11.852-7.891-19.048-7.891c-7.195,0-13.96,2.802-19.047,7.89c-5.088,5.088-7.89,11.852-7.89,19.048
				c0,7.195,2.802,13.96,7.889,19.046c5.088,5.089,11.852,7.891,19.047,7.891c4.62,0,9.06-1.161,12.994-3.334l18.995,18.995h-26.874
				c-3.257-11.213-13.617-19.436-25.866-19.436c-14.854,0-26.937,12.083-26.937,26.937c0,14.854,12.084,26.938,26.937,26.938
				c12.249,0,22.609-8.223,25.866-19.437h26.874L218.89,296.46c-10.233-5.626-23.372-4.114-32.034,4.547c0,0,0,0-0.001,0.001
				c-10.501,10.502-10.501,27.592,0.001,38.095c5.252,5.251,12.149,7.876,19.047,7.876c6.898,0,13.797-2.625,19.048-7.877
				c8.661-8.661,10.172-21.8,4.547-32.034l19.003-19.003v26.875c-11.213,3.257-19.436,13.616-19.436,25.866
				c0,14.854,12.084,26.937,26.937,26.937c14.854,0,26.937-12.083,26.937-26.937c0-12.25-8.223-22.61-19.436-25.866v-26.875
				l19.003,19.003C276.88,317.3,278.392,330.439,287.052,339.101z M297.661,311.614c4.653-4.654,12.225-4.651,16.879-0.001
				c4.654,4.654,4.654,12.227,0,16.88c-4.653,4.654-12.225,4.656-16.879,0C293.007,323.839,293.007,316.266,297.661,311.614z
				 M326.851,258.02c6.582,0,11.935,5.354,11.935,11.935c0,6.582-5.354,11.936-11.935,11.936c-6.581,0-11.935-5.355-11.935-11.936
				C314.917,263.375,320.27,258.02,326.851,258.02z M297.661,211.418c2.254-2.254,5.251-3.495,8.44-3.495
				c3.188,0,6.185,1.241,8.439,3.496c2.254,2.254,3.495,5.251,3.495,8.439s-1.241,6.185-3.495,8.439c0,0,0,0,0,0.001
				c-2.254,2.254-5.252,3.495-8.439,3.495c-3.188,0-6.186-1.241-8.44-3.496c-2.254-2.254-3.495-5.251-3.495-8.439
				S295.406,213.672,297.661,211.418z M214.345,228.295c-0.001,0.001-0.001,0.001-0.002,0.002c-0.001,0.001-0.002,0.002-0.003,0.003
				c-2.254,2.253-5.25,3.493-8.437,3.493c-3.188,0-6.185-1.241-8.44-3.496c-2.254-2.254-3.495-5.251-3.495-8.439
				s1.241-6.186,3.495-8.44c2.254-2.254,5.252-3.495,8.44-3.495c3.188,0,6.186,1.241,8.439,3.495
				c0.001,0.001,0.001,0.001,0.001,0.001c2.254,2.254,3.495,5.251,3.495,8.439C217.839,223.044,216.598,226.039,214.345,228.295z
				 M185.153,281.891c-6.582,0-11.935-5.355-11.935-11.936c0-6.581,5.355-11.935,11.935-11.935s11.935,5.354,11.935,11.935
				C197.087,276.537,191.734,281.891,185.153,281.891z M214.343,328.493c-4.654,4.654-12.226,4.652-16.88,0.001
				c-4.654-4.654-4.654-12.227,0-16.881v0.001c4.653-4.654,12.223-4.651,16.877-0.003c0.001,0.001,0.002,0.002,0.003,0.003
				c0.001,0.001,0.001,0.001,0.002,0.002C218.997,316.271,218.996,323.841,214.343,328.493z M267.937,340.805
				c0,6.581-5.354,11.935-11.935,11.935c-6.582,0-11.935-5.355-11.935-11.935c0-6.581,5.355-11.935,11.935-11.935
				C262.584,328.87,267.937,334.225,267.937,340.805z M256.002,211.042c-6.582,0-11.935-5.355-11.935-11.935
				c0-6.582,5.355-11.936,11.935-11.936c6.582,0,11.935,5.355,11.935,11.936C267.937,205.687,262.584,211.042,256.002,211.042z"/>
			<path d="M365.165,432.968c1.468,2.021,3.755,3.093,6.075,3.093c1.528,0,3.071-0.466,4.403-1.434
				c3.351-2.435,4.094-7.126,1.66-10.477l-43.941-60.481c-2.435-3.352-7.125-4.097-10.477-1.659
				c-3.351,2.435-4.094,7.126-1.66,10.477L365.165,432.968z"/>
			<path d="M503.068,208.28c-6.475-4.185-13.367-8.198-20.5-11.94c3.573-7.224,6.79-14.522,9.567-21.709
				c3.826-9.904-1.059-21.216-10.888-25.217c-4.088-1.664-8.378-3.251-12.749-4.717c-3.93-1.315-8.179,0.802-9.496,4.73
				c-1.316,3.927,0.801,8.179,4.729,9.495c4.072,1.365,8.063,2.841,11.86,4.387c2.304,0.938,3.448,3.592,2.55,5.916
				c-2.754,7.132-5.974,14.388-9.567,21.565c-3.327,6.648-0.665,14.844,5.936,18.268c7.124,3.693,13.993,7.672,20.415,11.822
				c2.092,1.353,2.727,4.171,1.414,6.285c-12.187,19.618-46.702,66.727-103.817,80.421c-2.539,0.608-4.579,2.493-5.385,4.976
				c-0.807,2.482-0.265,5.207,1.431,7.191c38.156,44.645,38.389,103.049,36.718,126.087c-0.18,2.479-2.343,4.386-4.838,4.253
				c-7.635-0.416-15.53-1.235-23.467-2.435c-7.349-1.109-14.324,3.955-15.54,11.29c-1.313,7.924-2.974,15.686-4.936,23.07
				c-0.64,2.408-3.126,3.888-5.541,3.286c-22.426-5.53-77.897-23.801-108.568-73.888c-1.363-2.226-3.786-3.583-6.397-3.583
				c-2.61,0-5.034,1.357-6.397,3.583c-12.977,21.193-31.71,38.928-55.692,52.723l-0.552,0.316
				c-3.593,2.061-4.836,6.646-2.774,10.238c2.061,3.595,6.645,4.837,10.239,2.774l0.585-0.336
				c22.49-12.935,40.81-29.141,54.594-48.269c34.333,47.571,88.618,65.396,111.371,71.007c1.548,0.381,3.101,0.564,4.636,0.564
				c8.675,0,16.679-5.846,18.996-14.565c1.977-7.444,3.665-15.239,5.022-23.188c7.974,1.166,15.908,1.97,23.605,2.39
				c10.584,0.541,19.849-7.564,20.616-18.148c1.695-23.376,1.525-80.513-33.115-127.867c55.86-17.951,89.581-64.072,101.947-83.978
				C514.682,226.067,511.985,214.045,503.068,208.28z"/>
			<path d="M136.361,434.627c1.331,0.968,2.874,1.434,4.403,1.434c2.319,0,4.607-1.073,6.075-3.093l43.941-60.481
				c2.435-3.351,1.691-8.042-1.66-10.477c-3.352-2.438-8.042-1.692-10.477,1.659l-43.941,60.481
				C132.267,427.501,133.01,432.193,136.361,434.627z"/>
			<path d="M263.503,148.668V73.911c0-4.143-3.358-7.501-7.501-7.501c-4.142,0-7.501,3.357-7.501,7.501v74.756
				c0,4.143,3.358,7.501,7.501,7.501C260.144,156.168,263.503,152.811,263.503,148.668z"/>
		</g>
	</g>
</g>
<g>
</g>
<g>
</g>
<g>
</g>
<g>
</g>
<g>
</g>
<g>
</g>
<g>
</g>
<g>
</g>
<g>
</g>
<g>
</g>
<g>
</g>
<g>
</g>
<g>
</g>
<g>
</g>
<g>
</g>
</svg>
