<?xml version="1.0" encoding="iso-8859-1"?>
<!-- Generator: Adobe Illustrator 19.0.0, SVG Export Plug-In . SVG Version: 6.00 Build 0)  -->
<svg version="1.1" id="Capa_1" xmlns="http://www.w3.org/2000/svg" xmlns:xlink="http://www.w3.org/1999/xlink" x="0px" y="0px"
	 viewBox="0 0 511.999 511.999" style="enable-background:new 0 0 511.999 511.999;" xml:space="preserve">
<g>
	<g>
		<g>
			<path d="M485.852,184.944c7.671-18.514,11.181-38.097,10.427-58.284c-1.054-28.226-10.512-55.131-27.352-77.81
				c-6.131-8.255-14.479-14.479-24.138-17.994c-9.663-3.517-20.061-4.116-30.06-1.731c-27.476,6.547-52.016,21.079-70.966,42.023
				c-9.686,10.704-17.575,22.722-23.507,35.786c-10.331-1.195-20.579-2.037-30.596-2.597c-0.259-0.029-0.522-0.045-0.788-0.046
				h-0.037c-11.315-0.615-22.334-0.874-32.836-0.874s-21.521,0.259-32.837,0.874h-0.036c-0.266,0.001-0.529,0.018-0.788,0.046
				c-10.017,0.56-20.265,1.402-30.596,2.597c-5.931-13.065-13.82-25.081-23.506-35.786c-18.951-20.945-43.491-35.477-70.966-42.023
				c-10.004-2.384-20.397-1.786-30.061,1.731c-9.659,3.516-18.007,9.738-24.139,17.996c-2.34,3.152-4.565,6.427-6.614,9.732
				c-2.182,3.521-1.097,8.144,2.424,10.326c3.521,2.182,8.143,1.097,10.326-2.424c1.829-2.951,3.817-5.877,5.908-8.693
				c4.375-5.892,10.331-10.332,17.226-12.841c6.896-2.511,14.313-2.938,21.452-1.235c24.515,5.842,46.411,18.808,63.319,37.496
				c7.611,8.411,13.962,17.739,18.988,27.802c-9.152,1.382-18.311,3.065-27.378,5.1c-11.239-21.747-31.607-37.82-55.584-43.536
				c-7.63-1.817-15.579,1.075-20.255,7.371c-15.82,21.305-20.662,48.49-13.395,73.763c-8.098,5.888-15.607,12.455-22.376,19.776
				c-4.812-14.203-6.97-29.042-6.4-44.27c0.422-11.31,2.364-22.462,5.772-33.148c1.259-3.946-0.92-8.166-4.866-9.425
				c-3.946-1.256-8.167,0.922-9.425,4.866c-3.821,11.98-5.998,24.479-6.472,37.146c-0.755,20.186,2.755,39.77,10.427,58.284
				C3.468,216.708-4.516,257.108,2.422,305.263c4.132,28.682,13.29,54.692,27.222,77.31c13.615,22.107,31.832,41.055,54.144,56.318
				c43.434,29.712,102.983,45.417,172.212,45.417c76.677,0,140.723-19.054,185.216-55.102c3.218-2.607,3.713-7.33,1.105-10.549
				c-2.606-3.218-7.328-3.715-10.549-1.105c-41.791,33.858-102.573,51.756-175.773,51.756c-136.499,0-223.514-60.571-238.73-166.183
				c-6.579-45.661,1.246-83.425,23.252-112.396c0.136-0.164,0.263-0.333,0.384-0.507c1.44-1.876,2.938-3.715,4.498-5.516
				c14.557-16.804,38.882-35.398,79.344-48.607c7.207,22.719,19.669,36.035,34.14,36.035c17.517,0,32.04-19.722,37.799-50.737
				c6.178-0.661,12.583-1.218,19.21-1.667c2.119,40.578,18.72,70.276,40.102,70.276s37.983-29.698,40.102-70.276
				c6.626,0.449,13.031,1.006,19.21,1.667c5.759,31.015,20.283,50.737,37.799,50.737c14.471,0,26.933-13.316,34.14-36.035
				c40.461,13.208,64.787,31.802,79.344,48.607c1.56,1.801,3.058,3.641,4.498,5.516c0.121,0.174,0.249,0.343,0.384,0.507
				c22.006,28.972,29.831,66.735,23.252,112.396c-5.155,35.781-18.543,66.664-39.788,91.792c-2.675,3.163-2.279,7.896,0.884,10.57
				c3.164,2.673,7.895,2.277,10.57-0.885c23.091-27.309,37.618-60.731,43.182-99.339
				C516.516,257.108,508.531,216.708,485.852,184.944z M128.466,119.325c-0.118,0.023-0.236,0.039-0.353,0.068
				c-0.356,0.087-0.696,0.206-1.026,0.34c-19.287,5.729-37.744,13.307-54.336,23.233c-4.182-19.445,0.12-39.832,12.176-56.069
				c1.093-1.471,2.945-2.15,4.733-1.723c18.556,4.422,34.484,16.385,44.008,32.68C131.928,118.329,130.194,118.821,128.466,119.325z
				 M158.888,157.131c-7.105,0-14.813-10.108-19.745-25.309c2.05-0.552,4.135-1.091,6.258-1.615c0.57-0.068,1.139-0.208,1.699-0.414
				c10.393-2.506,21.66-4.676,33.87-6.429C175.961,145.369,166.366,157.131,158.888,157.131z M256,175.003
				c-5.45,0-11.537-6.107-16.283-16.338c-4.962-10.697-8.031-24.61-8.835-39.744c8.06-0.327,16.421-0.503,25.118-0.503
				c8.695,0,17.055,0.176,25.114,0.503C279.341,151.465,267.001,175.003,256,175.003z M353.112,157.131
				c-7.478,0-17.073-11.762-22.084-33.767c12.21,1.754,23.477,3.923,33.869,6.429c0.563,0.208,1.135,0.348,1.708,0.416
				c2.121,0.524,4.203,1.062,6.25,1.613C367.924,147.023,360.217,157.131,353.112,157.131z M439.249,142.965
				c-16.591-9.925-35.049-17.504-54.335-23.233c-0.331-0.133-0.67-0.253-1.026-0.34c-0.118-0.029-0.236-0.045-0.354-0.068
				c-1.728-0.505-3.462-0.996-5.202-1.471c9.523-16.296,25.452-28.258,44.007-32.68c1.785-0.424,3.642,0.251,4.734,1.723
				C439.129,103.133,443.431,123.521,439.249,142.965z M474.888,171.491c-6.769-7.32-14.279-13.887-22.376-19.776
				c7.266-25.273,2.423-52.458-13.395-73.763c-4.675-6.294-12.624-9.188-20.254-7.371c-23.979,5.715-44.346,21.788-55.585,43.536
				c-9.066-2.035-18.226-3.718-27.378-5.1c5.026-10.063,11.377-19.39,18.989-27.801c16.909-18.689,38.805-31.654,63.32-37.496
				c7.137-1.704,14.556-1.275,21.451,1.235c6.894,2.509,12.85,6.949,17.226,12.841c15.025,20.234,23.465,44.241,24.404,69.426
				C481.858,142.449,479.699,157.288,474.888,171.491z"/>
			<path d="M345.742,324.763c-0.478,4.115,2.471,7.838,6.585,8.315c20.303,2.356,49.21,12.782,65.177,28.15
				c1.455,1.399,3.329,2.096,5.2,2.096c1.968,0,3.933-0.77,5.405-2.299c2.872-2.985,2.781-7.732-0.203-10.605
				c-19.217-18.494-51.753-29.677-73.85-32.242C349.951,317.709,346.22,320.649,345.742,324.763z"/>
			<path d="M144.963,249.269V230.44c0-4.143-3.357-7.5-7.5-7.5s-7.5,3.357-7.5,7.5v18.829c0,4.143,3.357,7.5,7.5,7.5
				C141.605,256.769,144.963,253.412,144.963,249.269z"/>
			<path d="M74.445,318.171c1.408,2.338,3.889,3.632,6.432,3.632c1.317,0,2.652-0.347,3.862-1.076
				c18.984-11.434,49.482-15.178,69.805-12.96c4.128,0.457,7.819-2.526,8.268-6.643c0.448-4.118-2.525-7.819-6.643-8.269
				c-22.117-2.407-56.324,1.264-79.169,15.023C73.452,310.015,72.308,314.624,74.445,318.171z"/>
			<path d="M89.295,363.326c1.871,0,3.745-0.696,5.2-2.096c15.968-15.368,44.875-25.794,65.177-28.15
				c4.114-0.478,7.063-4.2,6.585-8.315c-0.478-4.114-4.194-7.056-8.315-6.585c-22.097,2.565-54.633,13.748-73.85,32.242
				c-2.984,2.873-3.075,7.62-0.203,10.605C85.362,362.556,87.327,363.326,89.295,363.326z"/>
			<path d="M382.038,249.269V230.44c0-4.143-3.357-7.5-7.5-7.5c-4.143,0-7.5,3.357-7.5,7.5v18.829c0,4.143,3.357,7.5,7.5,7.5
				C378.681,256.769,382.038,253.412,382.038,249.269z"/>
			<path d="M437.556,318.171c2.137-3.548,0.993-8.156-2.556-10.294c-22.844-13.76-57.054-17.434-79.169-15.023
				c-4.118,0.449-7.092,4.15-6.644,8.269c0.448,4.117,4.127,7.103,8.269,6.643c20.32-2.218,50.82,1.526,69.805,12.96
				c1.21,0.729,2.545,1.076,3.862,1.076C433.667,321.803,436.147,320.509,437.556,318.171z"/>
			<path d="M228.486,348.134c-8.375,0-16.343-3.631-21.86-9.962c-2.723-3.122-7.46-3.447-10.582-0.727
				c-3.122,2.722-3.448,7.459-0.727,10.582c8.367,9.601,20.457,15.107,33.169,15.107c10.077,0,19.764-3.46,27.514-9.678
				c7.75,6.218,17.437,9.678,27.514,9.678c12.712,0,24.802-5.506,33.169-15.107c2.722-3.123,2.396-7.86-0.727-10.582
				c-3.123-2.721-7.859-2.395-10.582,0.727c-5.518,6.331-13.484,9.962-21.86,9.962c-7.485,0-14.639-2.907-20.014-8.042v-19.168
				c17.649-3.329,41.363-17.543,48.691-40.791c3.087-9.795,0.169-16.714-2.822-20.793c-9.724-13.259-34.389-16.043-53.368-16.043
				c-18.979,0-43.645,2.783-53.368,16.043c-2.991,4.079-5.909,10.997-2.822,20.793c7.326,23.249,31.042,37.462,48.69,40.791v19.168
				C243.125,345.228,235.972,348.134,228.486,348.134z M214.117,275.626c-1.285-4.079-0.349-6.104,0.611-7.414
				c4.484-6.114,20.299-9.912,41.271-9.912c20.974,0,36.787,3.798,41.272,9.912c0.96,1.31,1.896,3.335,0.611,7.414
				c-5.975,18.962-28.797,31.061-41.883,31.061C242.914,306.688,220.093,294.587,214.117,275.626z"/>
		</g>
	</g>
</g>
<g>
</g>
<g>
</g>
<g>
</g>
<g>
</g>
<g>
</g>
<g>
</g>
<g>
</g>
<g>
</g>
<g>
</g>
<g>
</g>
<g>
</g>
<g>
</g>
<g>
</g>
<g>
</g>
<g>
</g>
</svg>
