<?xml version="1.0" encoding="iso-8859-1"?>
<!-- Generator: Adobe Illustrator 19.0.0, SVG Export Plug-In . SVG Version: 6.00 Build 0)  -->
<svg version="1.1" id="Capa_1" xmlns="http://www.w3.org/2000/svg" xmlns:xlink="http://www.w3.org/1999/xlink" x="0px" y="0px"
	 viewBox="0 0 511.999 511.999" style="enable-background:new 0 0 511.999 511.999;" xml:space="preserve">
<g>
	<g>
		<g>
			<path d="M164.73,215.24c-4.143,0-7.5,3.357-7.5,7.5v14.494c0,4.143,3.357,7.5,7.5,7.5s7.5-3.357,7.5-7.5v-14.494
				C172.23,218.598,168.872,215.24,164.73,215.24z"/>
			<path d="M498.997,165.245c-2.208-3.505-6.842-4.553-10.344-2.346c-3.505,2.209-4.555,6.84-2.346,10.344
				c9.434,14.966,12.777,32.772,9.415,50.142c-3.447,17.808-17.86,31.246-35.864,33.439c-4.974,0.606-9.897,0.404-14.618-0.521
				c-0.199-0.051-0.4-0.094-0.605-0.128c-14.036-2.945-26.219-12.297-32.54-25.855l-39.94-85.652
				c-2.983-6.4-2.818-13.658,0.454-19.917c3.271-6.257,9.14-10.534,16.098-11.734c18.731-3.228,38.273,2.51,52.28,15.354
				l26.151,23.982c3.055,2.8,7.799,2.595,10.597-0.458c2.8-3.053,2.595-7.797-0.458-10.597l-26.151-23.982
				c-17.408-15.965-41.692-23.101-64.968-19.082c-6.759,1.166-12.893,4.083-17.923,8.37c-31.969-20.636-70.63-31.518-112.257-31.518
				c-41.626,0-80.287,10.882-112.256,31.518c-5.028-4.287-11.162-7.204-17.923-8.37c-23.274-4.017-47.561,3.118-64.968,19.082
				l-33.53,30.749c-21.437,19.66-31.319,49.613-25.792,78.17c4.688,24.219,24.291,42.494,48.776,45.478
				c2.521,0.307,5.031,0.457,7.521,0.457c1.096,0,2.187-0.039,3.273-0.097c0.556,29.208,6.504,55.215,17.724,77.349
				c11.115,21.929,27.408,40.152,48.425,54.168c1.279,0.853,2.725,1.261,4.154,1.261c2.423,0,4.802-1.173,6.247-3.34
				c2.298-3.446,1.367-8.103-2.079-10.401c-39.059-26.045-59.064-66.996-59.505-121.718c16.161-5.029,29.906-16.641,37.41-32.733
				l39.939-85.652c4.868-10.44,4.696-22.247-0.422-32.523c29.323-18.601,64.768-28.398,103.003-28.398
				c13.338,0,26.334,1.2,38.852,3.542c-2.919,8.688-4.556,17.878-4.687,26.607c-0.212,13.981,3.388,26.66,10.409,36.665
				c14.79,21.077,41.305,26.516,64.729,26.515c2.817,0,5.582-0.086,8.285-0.226l24.933,53.47
				c7.504,16.094,21.251,27.706,37.411,32.734c-0.412,50.987-17.879,90.117-51.955,116.311
				c-30.814,23.686-75.067,36.205-127.978,36.205c-35.584,0-67.022-5.553-93.441-16.507c-3.827-1.584-8.214,0.231-9.801,4.057
				c-1.586,3.826,0.23,8.214,4.057,9.801c28.25,11.711,61.62,17.65,99.186,17.65c27.175,0,52.395-3.152,74.957-9.371
				c24.008-6.616,44.922-16.69,62.162-29.941c37.349-28.709,56.772-70.925,57.784-125.522c1.085,0.058,2.174,0.096,3.269,0.096
				c2.488,0,5.001-0.15,7.521-0.457c24.486-2.984,44.087-21.261,48.776-45.48C514.54,205.108,510.472,183.447,498.997,165.245z
				 M139.804,144.668l-39.94,85.652c-6.316,13.546-18.477,22.897-32.501,25.849c-0.228,0.037-0.452,0.084-0.673,0.142
				c-4.711,0.919-9.623,1.119-14.588,0.513l-0.908,7.445l0.907-7.445c-18.004-2.193-32.416-15.633-35.863-33.439
				c-4.544-23.478,3.581-48.103,21.205-64.265l33.53-30.749c11.436-10.487,26.563-16.239,41.923-16.239
				c3.453,0,6.919,0.291,10.357,0.884c5.499,0.948,10.311,3.825,13.705,8.076c0.034,0.04,0.066,0.083,0.1,0.123
				c0.86,1.093,1.632,2.272,2.293,3.536C142.622,131.009,142.787,138.268,139.804,144.668z M312.832,148.284
				c-6.962-9.921-11.558-28.897-3.307-51.319c17.794,4.774,34.43,11.988,49.458,21.52c-5.118,10.276-5.29,22.083-0.422,32.523
				l8.118,17.411C340.854,168.73,322.352,161.851,312.832,148.284z"/>
			<path d="M255.98,193.407c-17.259,0-35.434,9.895-49.864,27.146c-17.93,21.435-30.019,52.895-35.932,93.507
				c-4.285,29.432,0.519,52.421,14.278,68.329c14.496,16.761,38.559,25.26,71.517,25.26c32.958,0,57.021-8.498,71.517-25.26
				c13.76-15.909,18.565-38.897,14.278-68.329c-5.913-40.611-18.003-72.071-35.932-93.507
				C291.413,203.302,273.238,193.407,255.98,193.407z M272.998,368.56c0,9.384-7.635,17.018-17.02,17.018
				c-9.384,0-17.02-7.635-17.02-17.018v-22.014c3.072,1.128,6.258,1.958,9.519,2.459v16.339c0,4.142,3.357,7.5,7.5,7.5
				c4.143,0,7.5-3.358,7.5-7.5v-16.339c3.261-0.501,6.446-1.332,9.519-2.459V368.56z M225.324,271.211
				c-0.503-4.256,0.889-6.38,1.98-7.607c4.109-4.623,14.561-7.274,28.677-7.274c14.115,0,24.567,2.651,28.677,7.274
				c1.091,1.228,2.482,3.352,1.979,7.607c-1.748,14.792-17.793,31.035-30.656,31.035
				C243.116,302.246,227.072,286.004,225.324,271.211z M316.152,372.576c-8.129,9.399-20.625,15.513-37.246,18.306
				c5.621-5.772,9.094-13.646,9.094-22.322V337.8c1.874-1.592,3.646-3.323,5.285-5.203c2.721-3.122,2.396-7.86-0.727-10.582
				c-3.123-2.721-7.86-2.395-10.582,0.727c-4.884,5.604-11.384,9.425-18.496,11.014v-17.454c18.053-4.414,35.733-23.71,38.053-43.33
				c0.885-7.483-1.074-14.169-5.664-19.335c-7.26-8.168-20.681-12.31-39.889-12.31c-19.209,0-32.629,4.142-39.889,12.31
				c-4.59,5.165-6.549,11.851-5.664,19.335c2.32,19.62,20,38.916,38.053,43.33v17.454c-7.111-1.589-13.611-5.41-18.496-11.014
				c-2.723-3.124-7.46-3.447-10.582-0.727c-3.123,2.722-3.447,7.46-0.727,10.582c1.639,1.88,3.411,3.611,5.285,5.203v30.76
				c0,8.674,3.473,16.549,9.094,22.322c-16.622-2.793-29.117-8.906-37.246-18.306c-10.782-12.466-14.409-31.427-10.779-56.354
				c12.392-85.108,50.43-107.815,70.951-107.815c20.522,0,58.56,22.708,70.951,107.815
				C330.561,341.149,326.934,360.11,316.152,372.576z"/>
			<path d="M347.23,244.735c4.142,0,7.5-3.357,7.5-7.5v-14.494c0-4.143-3.358-7.5-7.5-7.5c-4.143,0-7.5,3.357-7.5,7.5v14.494
				C339.729,241.378,343.087,244.735,347.23,244.735z"/>
		</g>
	</g>
</g>
<g>
</g>
<g>
</g>
<g>
</g>
<g>
</g>
<g>
</g>
<g>
</g>
<g>
</g>
<g>
</g>
<g>
</g>
<g>
</g>
<g>
</g>
<g>
</g>
<g>
</g>
<g>
</g>
<g>
</g>
</svg>
