<?xml version="1.0" encoding="iso-8859-1"?>
<!-- Generator: Adobe Illustrator 19.0.0, SVG Export Plug-In . SVG Version: 6.00 Build 0)  -->
<svg version="1.1" id="Capa_1" xmlns="http://www.w3.org/2000/svg" xmlns:xlink="http://www.w3.org/1999/xlink" x="0px" y="0px"
	 viewBox="0 0 511.999 511.999" style="enable-background:new 0 0 511.999 511.999;" xml:space="preserve">
<g>
	<g>
		<g>
			<path d="M155.151,219.252c0,4.143,3.358,7.5,7.5,7.5s7.5-3.357,7.5-7.5c0-16.143-13.133-29.276-29.277-29.276
				s-29.277,13.133-29.277,29.276c0,4.143,3.358,7.5,7.5,7.5c4.142,0,7.5-3.357,7.5-7.5c0-7.871,6.404-14.275,14.276-14.275
				C148.747,204.976,155.151,211.381,155.151,219.252z"/>
			<path d="M511.551,158.759l-4.411-29.531c-2.891-19.351-12.216-37.513-26.259-51.137c-13.586-13.182-32.729-18.595-51.207-14.484
				l-34.682,7.717c-10.688,2.378-18.843,10.15-22.237,19.82C337.187,74.256,297.052,65.366,256,65.366
				c-41.052,0-81.187,8.891-116.755,25.778c-3.394-9.67-11.549-17.441-22.238-19.82l-34.682-7.717
				C63.846,59.5,44.705,64.91,31.118,78.091C17.076,91.715,7.751,109.877,4.86,129.227l-4.411,29.531
				c-2.044,13.686,2.975,27.271,13.426,36.339c4.53,3.931,9.758,6.725,15.305,8.315c-8.357,20.951-12.589,42.847-12.589,65.226
				c0,59.623,30.694,110.554,86.429,143.409c1.196,0.705,2.507,1.04,3.802,1.04c2.568,0,5.069-1.32,6.468-3.692
				c2.103-3.568,0.916-8.166-2.652-10.27c-24.866-14.658-44.308-33.031-57.786-54.609c-14.108-22.581-21.261-48.109-21.261-75.877
				c0-21.997,4.475-43.497,13.309-63.979c2.292-0.271,4.581-0.717,6.843-1.391c44.737-13.335,78.662-49.963,88.535-95.589
				c0.028-0.128,0.047-0.255,0.073-0.383c34.851-17.628,74.747-26.931,115.648-26.931c40.901,0,80.797,9.302,115.648,26.931
				c0.026,0.128,0.045,0.256,0.073,0.383c9.873,45.626,43.798,82.254,88.535,95.589c2.255,0.672,4.535,1.117,6.818,1.389
				c2.605,6.046,4.871,12.227,6.715,18.443c0.967,3.26,3.952,5.369,7.188,5.369c0.706,0,1.424-0.101,2.135-0.311
				c3.971-1.178,6.236-5.352,5.058-9.323c-1.536-5.179-3.327-10.338-5.353-15.422c5.548-1.59,10.777-4.384,15.307-8.315
				C508.576,186.029,513.595,172.444,511.551,158.759z M125.618,104.508c-8.716,40.278-38.665,72.613-78.16,84.386
				c-8.317,2.48-17.196,0.564-23.753-5.125c-6.555-5.688-9.703-14.209-8.421-22.793l4.411-29.531
				c2.408-16.116,10.174-31.241,21.87-42.588c7.759-7.527,17.99-11.596,28.537-11.596c2.979,0,5.985,0.324,8.966,0.988l34.682,7.717
				C122.104,87.824,127.428,96.142,125.618,104.508z M488.293,183.768c-6.555,5.688-15.436,7.605-23.753,5.125
				c-39.495-11.772-69.443-44.107-78.16-84.386c-1.81-8.365,3.514-16.683,11.868-18.541l34.683-7.717
				c13.531-3.012,27.553,0.954,37.503,10.607c11.695,11.347,19.461,26.472,21.87,42.588l4.411,29.531
				C497.996,169.558,494.849,178.079,488.293,183.768z"/>
			<path d="M486.949,249.209c-4.132,0.296-7.242,3.884-6.947,8.016c0.27,3.774,0.406,7.615,0.406,11.413
				c0,49.138-22.398,91.062-64.775,121.238C375.007,418.808,318.314,434.74,256,434.74c-40.556,0-79.525-6.854-112.692-19.823
				c-3.857-1.508-8.208,0.397-9.716,4.254c-1.509,3.858,0.396,8.208,4.254,9.717c34.89,13.642,75.747,20.853,118.154,20.853
				c65.406,0,125.188-16.921,168.335-47.646c22.383-15.94,39.851-35.152,51.921-57.104c12.708-23.114,19.152-48.803,19.152-76.354
				c0-4.153-0.149-8.353-0.444-12.482C494.668,252.024,491.088,248.91,486.949,249.209z"/>
			<path d="M290.761,314.448c13.423,0,23.547-16.561,23.547-38.522c0-21.962-10.122-38.523-23.547-38.523
				c-13.423,0-23.546,16.561-23.546,38.523C267.215,297.887,277.338,314.448,290.761,314.448z M286.076,257.434
				c1.91-3.691,3.847-5.031,4.684-5.031c0.837,0,2.775,1.34,4.685,5.031c2.454,4.744,3.861,11.484,3.861,18.49
				s-1.407,13.746-3.861,18.49c-1.91,3.691-3.848,5.031-4.685,5.031c-0.837,0-2.774-1.34-4.684-5.031
				c-2.454-4.745-3.861-11.484-3.861-18.49C282.215,268.92,283.622,262.18,286.076,257.434z"/>
			<path d="M273.139,367.288c-4.326,4.965-10.573,7.813-17.14,7.813c-6.566,0-12.814-2.848-17.14-7.813
				c-2.721-3.121-7.458-3.448-10.582-0.727c-3.123,2.721-3.448,7.459-0.727,10.582c7.176,8.234,17.545,12.957,28.449,12.957
				c10.903,0,21.273-4.723,28.449-12.957c2.721-3.123,2.396-7.861-0.727-10.582C280.598,363.84,275.861,364.165,273.139,367.288z"/>
			<path d="M221.238,314.448c13.423,0,23.546-16.561,23.546-38.522c0-21.962-10.123-38.523-23.546-38.523
				c-13.423,0-23.547,16.561-23.547,38.523C197.692,297.887,207.815,314.448,221.238,314.448z M216.554,257.434
				c1.909-3.691,3.847-5.031,4.684-5.031c0.837,0,2.775,1.34,4.684,5.031c2.454,4.744,3.861,11.483,3.861,18.49
				c0,7.007-1.407,13.746-3.861,18.49c-1.909,3.691-3.847,5.031-4.684,5.031s-2.775-1.34-4.684-5.031
				c-2.454-4.744-3.861-11.483-3.861-18.49C212.693,268.919,214.1,262.179,216.554,257.434z"/>
			<path d="M356.847,219.252c0-7.871,6.404-14.275,14.276-14.275s14.276,6.404,14.276,14.275c0,4.143,3.358,7.5,7.5,7.5
				s7.5-3.357,7.5-7.5c0-16.143-13.133-29.276-29.277-29.276s-29.277,13.133-29.277,29.276c0,4.143,3.358,7.5,7.5,7.5
				C353.49,226.753,356.847,223.395,356.847,219.252z"/>
			<path d="M147.929,290.285c-2.786,10.537-1.018,21.849,4.85,31.034c5.868,9.185,15.389,15.543,26.122,17.442
				c25.58,4.528,51.339,6.793,77.099,6.793s51.519-2.265,77.099-6.793c10.732-1.9,20.253-8.257,26.122-17.442
				c5.869-9.185,7.636-20.496,4.85-31.034c-8.517-32.21-30.183-59.821-59.439-75.757c-30.451-16.586-66.811-16.586-97.26,0v-0.001
				C178.112,230.464,156.446,258.075,147.929,290.285z M214.545,227.701c12.979-7.069,27.217-10.604,41.455-10.604
				c14.238,0,28.477,3.535,41.456,10.604c25.651,13.971,44.645,38.18,52.112,66.419c1.742,6.589,0.681,13.381-2.988,19.124
				c-3.669,5.742-9.386,9.56-16.096,10.748c-49.423,8.749-99.544,8.749-148.967,0c-6.71-1.188-12.427-5.006-16.096-10.749
				c-3.669-5.743-4.73-12.534-2.988-19.123C169.899,265.88,188.893,241.673,214.545,227.701z"/>
		</g>
	</g>
</g>
<g>
</g>
<g>
</g>
<g>
</g>
<g>
</g>
<g>
</g>
<g>
</g>
<g>
</g>
<g>
</g>
<g>
</g>
<g>
</g>
<g>
</g>
<g>
</g>
<g>
</g>
<g>
</g>
<g>
</g>
</svg>
