<?xml version="1.0" encoding="iso-8859-1"?>
<!-- Generator: Adobe Illustrator 19.0.0, SVG Export Plug-In . SVG Version: 6.00 Build 0)  -->
<svg version="1.1" id="Capa_1" xmlns="http://www.w3.org/2000/svg" xmlns:xlink="http://www.w3.org/1999/xlink" x="0px" y="0px"
	 viewBox="0 0 512 512" style="enable-background:new 0 0 512 512;" xml:space="preserve">
<g>
	<g>
		<g>
			<path d="M262.558,140.77c1.912,0.579,3.838,0.859,5.732,0.859c6.12-0.001,11.882-2.934,15.597-8.216
				c10.5-14.932,23.429-33.31,34.408-48.899c7.248-10.291,9.627-21.901,6.699-32.691c-2.774-10.223-10.096-18.695-20.09-23.246
				c-9.502-4.327-20.122-4.694-29.901-1.037c-9.779,3.659-17.548,10.908-21.876,20.411c-1.441,3.165-5.827,12.796-4.248,74.87
				C249.094,131.276,254.463,138.322,262.558,140.77z M266.778,54.167c2.667-5.856,7.455-10.324,13.482-12.579
				c2.749-1.028,5.604-1.541,8.454-1.541c3.398,0,6.788,0.729,9.974,2.18c5.917,2.695,10.229,7.624,11.83,13.523
				c1.763,6.497,0.211,13.456-4.486,20.127c-10.982,15.592-23.912,33.974-34.414,48.907c-1.598,2.274-3.83,1.896-4.716,1.628
				c-0.886-0.268-2.956-1.192-3.027-3.974C262.49,68.046,265.747,56.431,266.778,54.167z"/>
			<path d="M346.647,157.461c1.172,0,2.362-0.105,3.559-0.32c12.939-2.328,28.031-5.043,42.474-7.636
				c4.077-0.731,6.789-4.63,6.057-8.707c-0.732-4.077-4.633-6.798-8.707-6.057c-14.445,2.593-29.539,5.308-42.48,7.636
				c-2.728,0.498-4.056-1.345-4.497-2.158c-0.442-0.814-1.264-2.927,0.642-4.954c37.263-39.646,47.747-45.615,50.072-46.5
				c6.014-2.288,12.56-2.098,18.431,0.536c5.871,2.635,10.364,7.398,12.653,13.412c3.802,9.993,0.263,20.3-8.808,25.647
				c-3.568,2.104-4.755,6.702-2.651,10.27s6.703,4.755,10.27,2.651c15.348-9.05,21.602-27.104,15.209-43.903
				c-3.713-9.759-11.005-17.488-20.531-21.763c-9.528-4.276-20.148-4.585-29.907-0.871c-3.251,1.237-13.142,5.001-55.667,50.246
				c-5.793,6.164-6.93,14.949-2.896,22.382C333.32,153.736,339.668,157.461,346.647,157.461z"/>
			<path d="M335.307,339.855c-5.581-4.954-11.351-10.077-17.021-18.523c-2.31-3.438-6.968-4.353-10.408-2.045
				c-3.439,2.31-4.355,6.969-2.045,10.408c6.736,10.031,13.822,16.321,19.516,21.377c6.646,5.9,11.448,10.164,13.964,18.112
				c1.012,3.196,3.965,5.238,7.148,5.238c0.75,0,1.513-0.113,2.266-0.352c3.949-1.25,6.137-5.465,4.887-9.414
				C349.848,352.766,342.785,346.495,335.307,339.855z"/>
			<path d="M140.462,149.113c19.059,0.566,41.519,1.243,59.765,1.796c0.209,0.007,0.416,0.01,0.624,0.01
				c8.187,0,15.232-4.916,18.055-12.663c2.896-7.945,0.479-16.468-6.159-21.712c-48.722-38.494-59.059-40.762-62.457-41.507
				c-21.055-4.617-41.94,8.756-46.557,29.811c0,0,0,0-0.001,0c-2.352,10.727,0.036,21.668,6.553,30.019
				C117.164,143.68,127.881,148.74,140.462,149.113z M118.385,108.06c2.846-12.976,15.722-21.219,28.692-18.371
				c2.431,0.533,13.678,4.893,56.371,38.624c2.184,1.726,1.682,3.936,1.365,4.806c-0.317,0.869-1.358,2.84-4.131,2.798
				c-18.249-0.555-40.713-1.232-59.776-1.798c-8.155-0.241-14.654-3.174-18.795-8.48
				C118.351,120.819,116.993,114.412,118.385,108.06z"/>
			<path d="M485.835,406.453c19.131-26.696,24.576-58.408,26.097-75.762c0.498-5.68-1.81-11.258-6.173-14.919
				c-4.364-3.661-10.257-4.967-15.765-3.489c-8.394,2.251-20.138,6.086-32.619,12.248c-1.151-11.286-3.271-21.051-5.176-28.162
				c-1.475-5.508-5.551-9.959-10.904-11.907c-5.354-1.948-11.336-1.159-16.007,2.112c-5.542,3.882-12.668,9.367-20.103,16.367
				c-3.314-4.49-6.758-8.637-10.295-12.375c-3.887-4.108-7.906-8.821-11.97-14.035c0.097-5.038-1.188-10.148-4.01-14.71
				c-7.326-11.843-17.512-30.598-24.477-52.746c-7.82-28.779-34.08-48.863-63.914-48.863h-69.037
				c-29.888,0-56.187,20.156-63.933,48.934c-4.481,15.916-12.838,31.735-19.059,42.204c-3.132,5.269-4.367,11.423-3.597,17.427
				c-6.027,8.352-12,15.679-17.782,21.789c-3.538,3.739-6.981,7.886-10.296,12.376c-7.435-7-14.56-12.485-20.102-16.366
				c-4.67-3.272-10.654-4.063-16.007-2.114c-5.353,1.948-9.43,6.4-10.905,11.908c-1.904,7.111-4.024,16.876-5.176,28.162
				c-12.482-6.162-24.226-9.997-32.62-12.248c-5.505-1.476-11.4-0.173-15.765,3.489c-4.363,3.661-6.671,9.239-6.173,14.919
				c1.521,17.355,6.966,49.067,26.097,75.762C10.843,412.649,0,427.671,0,445.188c0,23.032,18.738,41.77,41.771,41.77h59.994
				c4.142,0,7.5-3.357,7.5-7.5c0-4.142-3.358-7.5-7.5-7.5H41.771C27.009,471.957,15,459.949,15,445.187
				c0-14.178,11.081-25.81,25.036-26.707c0.024-0.002,0.049-0.003,0.073-0.006c0.55-0.034,1.103-0.057,1.661-0.057h74.937
				c0.009,0,0.017,0.002,0.025,0.002c0.015,0,0.03-0.002,0.045-0.002h278.445c0.015,0,0.03,0.002,0.045,0.002
				c0.008,0,0.017-0.002,0.025-0.002h74.936c0.558,0,1.111,0.023,1.661,0.057c0.024,0.002,0.048,0.004,0.073,0.006
				C485.919,419.377,497,431.009,497,445.188c0,14.761-12.009,26.77-26.771,26.77H136.201c-4.142,0-7.5,3.358-7.5,7.5
				c0,4.143,3.358,7.5,7.5,7.5h334.028c23.032,0,41.771-18.738,41.771-41.77C512,427.671,501.157,412.648,485.835,406.453z
				 M151.384,259.012c6.681-11.243,15.679-28.315,20.626-45.885c6.009-22.324,26.352-37.916,49.471-37.916h69.037
				c23.119,0,43.462,15.592,49.471,37.916c0.026,0.099,0.055,0.197,0.086,0.295c7.432,23.697,18.283,43.69,26.077,56.289
				c3.472,5.612,1.766,13.078-3.802,16.645c-5.335,3.417-12.303,2.206-16.206-2.819c-12.457-16.034-28.099-30.996-39.027-40.725
				c-5.883-5.236-14.118-6.78-21.491-4.027c-7.369,2.75-12.576,9.306-13.588,17.109c-1.427,11.005-3.08,23.614-4.381,33.523
				c-0.809,6.154-6.101,10.795-12.311,10.795c-5.704,0-10.668-3.912-12.072-9.514c-3.558-14.197-8.53-28.545-14.776-42.644
				c-2.866-6.468-8.772-10.771-15.801-11.511c-0.707-0.074-1.41-0.11-2.108-0.11c-6.226,0-11.989,2.924-15.712,8.067
				c-8.555,11.818-17.337,22.542-24.093,29.42c-3.648,3.713-9.269,4.733-13.99,2.542c-3.204-1.489-5.542-4.168-6.585-7.542
				C149.169,265.557,149.586,262.037,151.384,259.012z M42.759,403.416v0.001c-20.658-24.725-26.253-56.985-27.748-74.035
				c-0.098-1.124,0.505-1.811,0.873-2.119c0.368-0.309,1.15-0.784,2.238-0.492c8.991,2.41,22.162,6.794,35.649,14.227
				c0,6.987,0.48,14.29,1.65,21.715l-13.565-16.166c-2.662-3.173-7.394-3.586-10.566-0.924c-3.173,2.662-3.587,7.393-0.924,10.566
				l39.264,46.792c0.083,0.145,0.162,0.291,0.246,0.435H42.759z M134.698,403.417h-12.714l-28.337-77.856
				c-1.418-3.893-5.722-5.896-9.613-4.482c-3.893,1.417-5.899,5.721-4.483,9.613l26.47,72.726H87.622
				c-5.349-7.758-9.554-15.788-12.513-23.918c-11.049-30.355-5.255-62.683-0.818-79.25c0.292-1.09,1.093-1.528,1.545-1.693
				c0.452-0.164,1.348-0.344,2.271,0.305c14.049,9.839,39.266,30.878,50.315,61.234
				C133.144,373.067,135.247,387.612,134.698,403.417z M362.298,403.417H149.702c0.552-17.539-1.853-33.806-7.184-48.453
				c-5.896-16.201-15.245-29.953-25.098-41.1c3.4-4.789,6.948-9.143,10.587-12.99c4.655-4.919,9.402-10.546,14.179-16.774
				c2.343,2.466,5.143,4.504,8.287,5.965c10.465,4.863,22.928,2.599,31.013-5.634c10.307-10.493,21.295-25.27,25.542-31.136
				c1.375-1.899,3.325-1.916,4.101-1.834c0.78,0.082,2.698,0.507,3.656,2.669c5.9,13.316,10.59,26.847,13.941,40.214
				c3.079,12.286,14.026,20.867,26.622,20.867c13.711,0,25.398-10.25,27.183-23.842c1.303-9.915,2.956-22.534,4.384-33.547
				c0.432-3.328,2.912-4.596,3.957-4.986c1.049-0.392,3.759-1.06,6.272,1.178c10.46,9.311,25.397,23.588,37.155,38.724
				c8.693,11.192,24.231,13.879,36.141,6.249c2.569-1.645,4.762-3.667,6.568-5.943c2.354,2.782,4.688,5.401,6.986,7.83
				c3.64,3.846,7.187,8.201,10.587,12.989c-9.853,11.147-19.202,24.899-25.098,41.1
				C364.151,369.611,361.746,385.878,362.298,403.417z M424.378,403.417H405.98l26.47-72.726c1.417-3.893-0.59-8.196-4.483-9.613
				c-3.893-1.414-8.196,0.591-9.613,4.482l-28.337,77.856h-12.714c-0.55-15.806,1.554-30.351,6.276-43.322
				c11.048-30.356,36.266-51.395,50.315-61.235c0.923-0.646,1.82-0.469,2.271-0.303c0.452,0.164,1.253,0.603,1.545,1.692
				c4.437,16.567,10.23,48.895-0.818,79.25C433.932,387.629,429.726,395.659,424.378,403.417z M469.242,403.417h-27.117
				c0.084-0.145,0.163-0.29,0.246-0.435l39.264-46.792c2.663-3.174,2.249-7.904-0.924-10.566c-3.174-2.665-7.904-2.249-10.566,0.924
				l-13.565,16.166c1.169-7.425,1.65-14.728,1.65-21.715c13.486-7.433,26.658-11.817,35.649-14.227
				c1.089-0.292,1.871,0.184,2.238,0.492c0.368,0.309,0.971,0.995,0.873,2.119C495.495,346.432,489.9,378.691,469.242,403.417z"/>
			<path d="M199.274,315.614c-3.961-1.202-8.152,1.032-9.356,4.995c-3.714,12.224-8.719,19.126-13.559,25.801
				c-3.957,5.455-7.693,10.608-10.115,17.743c-1.331,3.922,0.769,8.181,4.691,9.513c0.799,0.271,1.612,0.399,2.411,0.399
				c3.125,0,6.042-1.968,7.102-5.092c1.692-4.985,4.499-8.857,8.054-13.758c5.045-6.957,11.322-15.614,15.768-30.245
				C205.475,321.006,203.238,316.818,199.274,315.614z"/>
		</g>
	</g>
</g>
<g>
</g>
<g>
</g>
<g>
</g>
<g>
</g>
<g>
</g>
<g>
</g>
<g>
</g>
<g>
</g>
<g>
</g>
<g>
</g>
<g>
</g>
<g>
</g>
<g>
</g>
<g>
</g>
<g>
</g>
</svg>
