<?xml version="1.0" encoding="iso-8859-1"?>
<!-- Generator: Adobe Illustrator 19.0.0, SVG Export Plug-In . SVG Version: 6.00 Build 0)  -->
<svg version="1.1" id="Capa_1" xmlns="http://www.w3.org/2000/svg" xmlns:xlink="http://www.w3.org/1999/xlink" x="0px" y="0px"
	 viewBox="0 0 512 512" style="enable-background:new 0 0 512 512;" xml:space="preserve">
<g>
	<g>
		<g>
			<path d="M141.987,462.522c-4.143,0-7.5,3.357-7.5,7.5V504.5c0,4.143,3.357,7.5,7.5,7.5s7.5-3.357,7.5-7.5v-34.478
				C149.487,465.879,146.13,462.522,141.987,462.522z"/>
			<path d="M51.233,371.769c0-4.143-3.357-7.5-7.5-7.5H9.256c-4.143,0-7.5,3.357-7.5,7.5s3.358,7.5,7.5,7.5h34.477
				C47.876,379.269,51.233,375.912,51.233,371.769z"/>
			<path d="M67.209,435.941l-24.38,24.379c-2.93,2.929-2.93,7.678-0.001,10.607c1.465,1.465,3.384,2.197,5.304,2.197
				c1.919,0,3.839-0.732,5.303-2.196l24.38-24.379c2.93-2.929,2.93-7.678,0.001-10.606
				C74.885,433.013,70.136,433.012,67.209,435.941z"/>
			<path d="M426.044,403.52l19.396-19.396c2.927-2.929,2.927-7.677-0.002-10.607c-2.93-2.928-7.678-2.928-10.607,0l-19.396,19.395
				l-19.396-19.395c-2.93-2.928-7.678-2.928-10.607,0c-2.929,2.93-2.929,7.678,0,10.607l19.396,19.396l-19.396,19.395
				c-2.929,2.93-2.929,7.678,0,10.607c1.465,1.464,3.385,2.196,5.304,2.196s3.839-0.732,5.304-2.196l19.396-19.396l19.396,19.396
				c1.465,1.464,3.385,2.196,5.304,2.196s3.839-0.732,5.304-2.196c2.929-2.93,2.929-7.678,0-10.607L426.044,403.52z"/>
			<path d="M160.887,83.077c1.465,1.464,3.384,2.196,5.304,2.196c1.919,0,3.839-0.732,5.304-2.196l19.396-19.396l19.396,19.396
				c1.465,1.464,3.385,2.196,5.304,2.196s3.839-0.732,5.304-2.196c2.929-2.93,2.929-7.678,0-10.607l-19.396-19.396l19.396-19.395
				c2.929-2.93,2.929-7.678,0-10.607c-2.929-2.928-7.677-2.928-10.607,0l-19.396,19.396l-19.396-19.396
				c-2.93-2.928-7.678-2.928-10.607,0c-2.929,2.93-2.929,7.678,0,10.607l19.396,19.395L160.889,72.47
				C157.959,75.399,157.959,80.147,160.887,83.077z"/>
			<path d="M53.083,119.887h21.5v21.5c0,4.143,3.357,7.5,7.5,7.5s7.5-3.357,7.5-7.5v-21.5h21.5c4.143,0,7.5-3.357,7.5-7.5
				c0-4.143-3.357-7.5-7.5-7.5h-21.5v-21.5c0-4.143-3.357-7.5-7.5-7.5s-7.5,3.357-7.5,7.5v21.5h-21.5c-4.143,0-7.5,3.357-7.5,7.5
				C45.583,116.53,48.94,119.887,53.083,119.887z"/>
			<path d="M254.02,324.363l-13.413,36.853c-1.417,3.893,0.591,8.196,4.482,9.613c0.848,0.308,1.713,0.454,2.564,0.454
				c3.063,0,5.94-1.892,7.049-4.937l13.413-36.853c1.417-3.892-0.591-8.196-4.482-9.613
				C259.735,318.466,255.436,320.471,254.02,324.363z"/>
			<path d="M508.047,141.536c-18.978-18.977-40.244-21.381-54.747-20.054c-2.371,0.217-4.741,0.567-7.099,1.019
				c-5.798-12.69-14.028-24.296-24.458-34.248c-10.094-9.632-21.752-17.135-34.392-22.295c0.653-2.987,1.135-6.001,1.411-9.015
				c1.327-14.5-1.075-35.769-20.053-54.747c-2.93-2.928-7.678-2.928-10.607,0c-2.929,2.93-2.929,7.678,0,10.607
				c14.845,14.845,17.879,32.688,14.874,48.413c-8.977-2.292-18.305-3.48-27.809-3.48c-0.246,0-0.495,0.001-0.741,0.002
				c-29.037,0.188-56.358,11.374-76.93,31.499c-3.777,3.695-7.31,7.677-10.504,11.834c-2.523,3.285-1.905,7.993,1.38,10.517
				c3.286,2.523,7.994,1.904,10.517-1.38c2.764-3.599,5.824-7.047,9.098-10.249c17.777-17.392,41.407-27.059,66.536-27.221
				c0.215-0.002,0.428-0.002,0.643-0.002c7.933,0,15.721,0.959,23.232,2.803c-3.033,6.659-7.031,12.453-11.371,16.793
				c-2.929,2.93-2.929,7.678,0,10.607c1.465,1.464,3.385,2.196,5.304,2.196c1.919,0,3.839-0.732,5.304-2.196
				c6.243-6.244,11.393-14.08,15.085-22.637c10.519,4.44,20.233,10.751,28.669,18.801c8.493,8.104,15.298,17.475,20.252,27.702
				c-9.22,3.727-17.68,9.15-24.336,15.805c-2.929,2.93-2.929,7.678,0,10.607c1.465,1.464,3.385,2.196,5.304,2.196
				s3.839-0.732,5.304-2.196c5.229-5.229,11.887-9.506,19.169-12.467c2.581,8.562,3.974,17.542,4.082,26.745
				c0.306,26.082-9.682,50.601-28.123,69.042c-16.361,16.362-38.082,26.259-61.16,27.867c-2.147,0.15-4.274,0.441-6.372,0.851
				c-6.266-13.809-15.085-23.099-26.09-27.104c-21.979-7.997-50.3,5.423-79.754,37.793c-15.259,16.768-29.886,37.771-42.294,60.311
				l-23.38-23.38c22.541-12.409,43.543-27.036,60.312-42.294c32.369-29.454,45.791-57.778,37.793-79.754
				c-3.65-10.029-11.58-18.196-23.266-24.286c0.227-1.447,0.408-2.899,0.504-4.353c0.565-8.521,2.257-16.919,5.026-24.96
				c1.349-3.917-0.733-8.185-4.649-9.534c-3.921-1.349-8.186,0.733-9.533,4.649c-3.144,9.129-5.079,18.655-5.766,28.318
				c-11.844-3.722-26.113-5.977-42.531-6.636c-38.534-1.546-85.299,6.171-125.073,20.647c-23.307,8.482-39.872,23.845-47.905,44.426
				c-7.35,18.828-6.965,41.376,1.084,63.489c8.049,22.113,22.246,39.633,39.979,49.332c6.033,3.3,12.375,5.68,18.951,7.139
				c-9.684,27.028-3.155,57.369,17.63,78.154c14.328,14.328,33.628,21.916,53.168,21.915c7.583-0.001,15.2-1.165,22.578-3.501
				c1.455,5.048,3.459,9.947,6.034,14.654c9.699,17.733,27.219,31.932,49.332,39.98c11.763,4.281,23.347,6.357,34.363,6.357
				c28.567,0,53.318-13.964,67.456-39.668c1.996-3.629,0.673-8.189-2.957-10.185c-3.63-1.997-8.19-0.673-10.186,2.957
				c-16.071,29.218-48.085,39.348-83.546,26.443c-18.686-6.801-33.355-18.55-41.303-33.083c-8.473-15.488-9.269-33.79-2.304-52.925
				c13.844-38.036,36.863-76.959,61.577-104.119c24.724-27.17,47.88-39.488,63.529-33.792c14.263,5.19,23.904,26.51,26.454,58.491
				c2.576,32.306-2.222,72.045-13.164,109.03c-1.176,3.972,1.092,8.145,5.064,9.319c3.975,1.18,8.145-1.093,9.319-5.063
				c11.445-38.683,16.451-80.408,13.734-114.478c-0.887-11.123-2.59-21.137-5.044-29.947c0.754-0.099,1.512-0.18,2.274-0.233
				c26.686-1.858,51.804-13.303,70.725-32.223c21.32-21.321,32.868-49.67,32.515-79.825c-0.123-10.498-1.689-20.744-4.596-30.523
				c1.033-0.151,2.068-0.283,3.103-0.378c11.305-1.036,27.905,0.854,42.772,15.722c2.929,2.929,7.678,2.93,10.606,0.001
				C510.975,149.212,510.975,144.464,508.047,141.536z M67.158,318.761c-14.533-7.948-26.281-22.617-33.082-41.303
				c-6.802-18.686-7.229-37.474-1.207-52.904c6.42-16.445,19.928-28.819,39.064-35.784c34.836-12.68,75.187-19.94,109.919-19.94
				c3.189,0,6.335,0.061,9.421,0.186c18.506,0.743,33.858,3.61,45.267,8.273c0.486,0.274,1.007,0.503,1.565,0.667
				c0.01,0.003,0.02,0.003,0.029,0.006c10.331,4.525,17.173,10.611,19.861,17.998c5.695,15.648-6.621,38.805-33.793,63.528
				c-27.16,24.715-66.083,47.734-104.118,61.578C100.949,328.031,82.647,327.234,67.158,318.761z M175.082,385.029
				c-4.445,12.214-6.227,24.218-5.416,35.673c-21.587,7.657-46.123,2.301-62.518-14.095c-17.482-17.481-22.368-43.41-12.819-65.824
				c0.189,0.001,0.376,0.008,0.566,0.008c9.819,0,19.998-1.873,30.32-5.63c11.639-4.236,23.362-9.306,34.841-15.001l30.026,30.026
				C184.387,361.666,179.318,373.39,175.082,385.029z"/>
			<path d="M289.097,390.739l-12.626,34.688c-1.417,3.893,0.59,8.196,4.482,9.613c0.847,0.308,1.713,0.454,2.564,0.454
				c3.063,0,5.94-1.892,7.049-4.936l12.626-34.688c1.417-3.893-0.59-8.196-4.482-9.613
				C294.818,384.842,290.513,386.847,289.097,390.739z"/>
			<path d="M494.814,285.798h-21.5v-21.5c0-4.143-3.357-7.5-7.5-7.5s-7.5,3.357-7.5,7.5v21.5h-21.5c-4.143,0-7.5,3.357-7.5,7.5
				s3.357,7.5,7.5,7.5h21.5v21.5c0,4.143,3.357,7.5,7.5,7.5s7.5-3.357,7.5-7.5v-21.5h21.5c4.143,0,7.5-3.357,7.5-7.5
				C502.314,289.156,498.957,285.798,494.814,285.798z"/>
			<path d="M146.464,270.089c0.852,0,1.718-0.146,2.564-0.454l36.852-13.413c3.892-1.417,5.899-5.721,4.482-9.613
				c-1.416-3.892-5.72-5.896-9.613-4.482l-36.852,13.413c-3.892,1.417-5.9,5.721-4.482,9.613
				C140.523,268.198,143.399,270.089,146.464,270.089z"/>
			<path d="M123.986,211.533c-1.417-3.892-5.717-5.899-9.613-4.482l-34.688,12.625c-3.892,1.417-5.899,5.721-4.482,9.613
				c1.108,3.046,3.984,4.937,7.049,4.937c0.851,0,1.718-0.147,2.564-0.454l34.688-12.625
				C123.395,219.729,125.403,215.425,123.986,211.533z"/>
		</g>
	</g>
</g>
<g>
</g>
<g>
</g>
<g>
</g>
<g>
</g>
<g>
</g>
<g>
</g>
<g>
</g>
<g>
</g>
<g>
</g>
<g>
</g>
<g>
</g>
<g>
</g>
<g>
</g>
<g>
</g>
<g>
</g>
</svg>
