<?xml version="1.0" encoding="iso-8859-1"?>
<!-- Generator: Adobe Illustrator 19.0.0, SVG Export Plug-In . SVG Version: 6.00 Build 0)  -->
<svg version="1.1" id="Capa_1" xmlns="http://www.w3.org/2000/svg" xmlns:xlink="http://www.w3.org/1999/xlink" x="0px" y="0px"
	 viewBox="0 0 512.001 512.001" style="enable-background:new 0 0 512.001 512.001;" xml:space="preserve">
<g>
	<g>
		<g>
			<path d="M219.539,245.701c4.143,0,7.5-3.357,7.5-7.5v-36.934c0-4.143-3.357-7.5-7.5-7.5c-4.143,0-7.5,3.357-7.5,7.5v36.934
				C212.039,242.344,215.397,245.701,219.539,245.701z"/>
			<path d="M77.726,371.376c-4.143,0-7.5,3.357-7.5,7.5c0,4.143,3.357,7.5,7.5,7.5h32.079c4.143,0,7.5-3.357,7.5-7.5
				c0-4.143-3.357-7.5-7.5-7.5H77.726z"/>
			<path d="M194.67,411.781c-4.143,0-7.5,3.357-7.5,7.5c0,4.143,3.357,7.5,7.5,7.5h94.77c4.143,0,7.5-3.357,7.5-7.5
				c0-4.143-3.357-7.5-7.5-7.5H194.67z"/>
			<path d="M480.608,235.694c23.409-27.898,29.675-63.68,31.326-82.525c0.497-5.68-1.81-11.258-6.174-14.919
				c-4.363-3.662-10.257-4.966-15.765-3.489c-8.866,2.377-20.516,6.248-32.768,12.318c9.871-32.445,3.955-65.33-0.669-82.597
				c-1.475-5.508-5.552-9.959-10.903-11.907c-5.353-1.948-11.337-1.158-16.008,2.112c-15.494,10.852-43.349,34.168-55.804,68.392
				c-0.046,0.126-0.087,0.256-0.133,0.382c-2.493-2.082-5.018-4.129-7.591-6.121c-7.609-5.894-17.703-6.922-26.343-2.685
				c-8.374,4.106-13.659,12.323-13.978,21.586H186.203c-0.319-9.263-5.604-17.479-13.978-21.586
				c-8.639-4.236-18.734-3.208-26.342,2.685c-2.573,1.992-5.098,4.039-7.591,6.122c-0.045-0.126-0.087-0.256-0.132-0.38
				c-4.407-12.111-11.126-23.895-19.969-35.021c-2.576-3.243-7.296-3.783-10.537-1.205c-3.243,2.577-3.782,7.295-1.205,10.537
				c7.835,9.859,13.762,20.228,17.616,30.819c0.717,1.97,1.377,4.026,1.986,6.133c-5.562,5.26-10.891,10.749-15.972,16.452
				L89.287,93.674c-1.416-3.891-5.72-5.897-9.613-4.482c-3.893,1.417-5.899,5.721-4.482,9.613l23.77,65.307
				c-3.662,4.687-7.175,9.488-10.518,14.404c-7.877-9.891-13.817-20.252-17.694-30.902c-11.049-30.357-5.255-62.683-0.817-79.251
				c0.291-1.09,1.093-1.528,1.544-1.692c0.454-0.166,1.35-0.342,2.272,0.304c3.155,2.21,6.304,4.585,9.357,7.061
				c3.221,2.607,7.942,2.111,10.55-1.104c2.607-3.219,2.113-7.941-1.104-10.55c-3.326-2.694-6.757-5.283-10.198-7.693
				c-4.671-3.271-10.654-4.062-16.008-2.112c-5.352,1.948-9.428,6.399-10.903,11.907c-4.624,17.267-10.54,50.152-0.669,82.597
				c-12.252-6.07-23.901-9.941-32.768-12.318c-5.508-1.476-11.4-0.173-15.765,3.489c-4.363,3.661-6.671,9.239-6.174,14.919
				c1.651,18.846,7.917,54.627,31.326,82.525c5.954,7.094,13.015,13.638,21.015,19.52c-0.959,3.331-1.861,6.682-2.69,10.055
				l-14.721,59.892h-5.069c-16.257,0-29.483,13.227-29.483,29.484v33.044c0,40.135,32.651,72.787,72.786,72.787h316.083
				c4.143,0,7.5-3.358,7.5-7.5c0-4.143-3.357-7.5-7.5-7.5H73.23c-31.863,0-57.785-25.923-57.785-57.786v-33.044
				c0-7.986,6.497-14.484,14.483-14.484h10.923c0.011,0,0.021,0.002,0.032,0.002c0.008,0,0.015-0.002,0.023-0.002h97.63
				c1.432,8.46,5.29,16.303,11.32,22.733c8.327,8.881,20.083,13.975,32.253,13.975c6.87,0,13.456-1.535,19.575-4.564
				c6.805-3.367,14.809-2.45,20.89,2.395c9.45,7.528,21.321,11.675,33.427,11.675c12.105,0,23.977-4.147,33.427-11.675
				c6.082-4.844,14.086-5.761,20.889-2.395c6.12,3.029,12.706,4.564,19.576,4.564c12.17,0,23.926-5.094,32.253-13.975
				c6.03-6.43,9.888-14.273,11.32-22.733h97.63c0.008,0,0.015,0.002,0.023,0.002c0.011,0,0.022-0.002,0.032-0.002h10.923
				c7.986,0,14.484,6.498,14.484,14.484v33.044c0,31.863-25.923,57.786-57.786,57.786h-8.579c-4.142,0-7.5,3.357-7.5,7.5
				c0,4.142,3.358,7.5,7.5,7.5h8.579c40.135,0,72.787-32.651,72.787-72.787v-33.044c0-16.258-13.227-29.484-29.484-29.484h-5.071
				l-14.721-59.893c-0.829-3.373-1.731-6.724-2.691-10.055C467.593,249.332,474.654,242.788,480.608,235.694z M387.939,128.209
				c11.049-30.358,36.266-51.397,50.314-61.235c0.926-0.647,1.82-0.469,2.272-0.304c0.451,0.164,1.253,0.602,1.544,1.692
				c4.438,16.567,10.232,48.893-0.817,79.251c-3.876,10.65-9.816,21.011-17.694,30.902c-3.343-4.916-6.856-9.717-10.518-14.404
				l23.77-65.307c1.417-3.893-0.59-8.196-4.482-9.613c-3.894-1.414-8.197,0.591-9.613,4.482l-20.791,57.122
				c-5.08-5.703-10.409-11.193-15.971-16.453C386.561,132.236,387.221,130.18,387.939,128.209z M325.768,151.239v137.432
				c-5.443,0.509-10.752,1.994-15.638,4.441c-4.084,2.046-8.777,2.438-13.19,1.284v-47.662c0-4.143-3.357-7.5-7.5-7.5
				c-4.143,0-7.5,3.357-7.5,7.5v38.902c-7.898-4.349-16.852-6.686-25.938-6.686c-12.105,0-23.977,4.146-33.428,11.676
				c-6.019,4.794-14.145,5.77-20.702,2.486c-4.884-2.446-10.195-3.931-15.637-4.44V151.239H325.768z M42.884,226.051
				c-20.764-24.745-26.376-57.104-27.873-74.191c-0.099-1.125,0.504-1.811,0.872-2.12c0.368-0.309,1.151-0.784,2.238-0.491
				c12.142,3.255,29.953,9.539,46.657,21.015c4.188,7.4,9.263,14.599,15.192,21.545c-2.663,4.453-5.193,8.986-7.595,13.587
				l-30.519-36.371c-2.662-3.172-7.394-3.586-10.566-0.924c-3.173,2.662-3.587,7.393-0.924,10.566l34.848,41.53
				c-2.903,6.499-5.552,13.118-7.933,19.842C51.889,235.703,47.059,231.026,42.884,226.051z M138.542,325.162H50.444l13.841-56.313
				c13.575-55.23,45.815-104.827,90.783-139.651c3.095-2.396,7.041-2.798,10.554-1.076c3.515,1.724,5.612,5.09,5.612,9.004v152.682
				C154.476,294.059,141.49,307.946,138.542,325.162z M351.205,352.637c-5.584,5.955-13.152,9.234-21.312,9.234
				c-4.542,0-8.89-1.012-12.923-3.008c-11.894-5.887-26.371-4.272-36.888,4.105c-6.904,5.5-15.232,8.407-24.081,8.407
				c-8.85,0-17.177-2.907-24.081-8.407c-6.307-5.024-14.039-7.615-21.783-7.615c-5.17,0-10.345,1.154-15.105,3.51
				c-4.032,1.996-8.38,3.008-12.922,3.008c-8.159,0-15.728-3.279-21.312-9.234c-5.127-5.468-7.884-12.487-7.889-19.942
				c0-0.011,0.002-0.021,0.002-0.032c0-0.017-0.003-0.033-0.003-0.049c0.001-0.63,0.015-1.263,0.056-1.899
				c0.921-14.298,12.255-25.861,26.469-27.134c0.039-0.004,0.079-0.007,0.118-0.011c0.149-0.013,0.297-0.031,0.446-0.042
				c5.264-0.367,10.51,0.669,15.158,2.996c11.766,5.891,26.193,4.256,36.764-4.166c6.905-5.501,15.232-8.408,24.082-8.408
				c8.85,0,17.177,2.907,24.082,8.408c1.714,1.366,3.539,2.534,5.428,3.54c0.241,0.149,0.491,0.284,0.749,0.405
				c9.606,4.819,20.985,5.03,30.585,0.221c4.649-2.327,9.895-3.357,15.159-2.996c0.15,0.01,0.297,0.029,0.446,0.042
				c0.039,0.004,0.079,0.007,0.118,0.011c14.214,1.273,25.548,12.836,26.469,27.133c0.041,0.636,0.055,1.269,0.056,1.9
				c0,0.017-0.003,0.033-0.003,0.049c0.002,0.011,0.004,0.021,0.004,0.032C359.089,340.149,356.332,347.169,351.205,352.637z
				 M461.558,325.162H373.46c-2.948-17.216-15.934-31.104-32.692-35.355V137.125c0-3.914,2.098-7.28,5.612-9.004
				c3.515-1.721,7.46-1.321,10.555,1.076c44.966,34.824,77.207,84.421,90.782,139.651L461.558,325.162z M454.721,240.04
				c-2.381-6.724-5.029-13.343-7.933-19.842l34.848-41.53c2.663-3.174,2.249-7.904-0.924-10.566
				c-3.173-2.664-7.904-2.248-10.566,0.924l-30.519,36.371c-2.403-4.601-4.932-9.134-7.595-13.587
				c5.928-6.946,11.004-14.145,15.192-21.545c16.704-11.476,34.514-17.76,46.657-21.015c1.086-0.293,1.869,0.183,2.238,0.491
				c0.368,0.31,0.971,0.995,0.872,2.12c-1.497,17.086-7.109,49.445-27.873,74.191C464.942,231.026,460.112,235.703,454.721,240.04z"
				/>
			<path d="M439.037,392.821c0-4.142-3.358-7.5-7.5-7.5h-52.14c-4.143,0-7.5,3.358-7.5,7.5c0,4.143,3.357,7.5,7.5,7.5h52.14
				C435.68,400.321,439.037,396.963,439.037,392.821z"/>
		</g>
	</g>
</g>
<g>
</g>
<g>
</g>
<g>
</g>
<g>
</g>
<g>
</g>
<g>
</g>
<g>
</g>
<g>
</g>
<g>
</g>
<g>
</g>
<g>
</g>
<g>
</g>
<g>
</g>
<g>
</g>
<g>
</g>
</svg>
