<?xml version="1.0" encoding="iso-8859-1"?>
<!-- Generator: Adobe Illustrator 19.0.0, SVG Export Plug-In . SVG Version: 6.00 Build 0)  -->
<svg version="1.1" id="Capa_1" xmlns="http://www.w3.org/2000/svg" xmlns:xlink="http://www.w3.org/1999/xlink" x="0px" y="0px"
	 viewBox="0 0 512 512" style="enable-background:new 0 0 512 512;" xml:space="preserve">
<g>
	<g>
		<g>
			<circle cx="432.949" cy="222.327" r="7.275"/>
			<path d="M89.012,170.181v-10.546c0-4.143-3.358-7.5-7.5-7.5c-4.142,0-7.5,3.357-7.5,7.5v10.546c0,4.143,3.358,7.5,7.5,7.5
				C85.654,177.681,89.012,174.322,89.012,170.181z"/>
			<circle cx="353.112" cy="222.327" r="7.275"/>
			<path d="M466.179,215.066c-3.347-15.352-17.066-26.748-33.23-26.748c-16.081,0-29.743,11.279-33.177,26.508h-13.483
				c-3.436-15.23-17.098-26.508-33.177-26.508c-16.081,0-29.743,11.279-33.177,26.508h-30.183c-0.505,0-0.916-0.41-0.916-0.915
				c0-28.32-16.505-54.307-42.107-66.387c-0.269-21.659-17.972-39.195-39.693-39.195c-19.079,0-35.415,13.518-38.987,32.196H120.79
				c-3.573-18.68-19.908-32.196-38.987-32.196c-21.706,0-39.398,17.51-39.692,39.195c-24.671,11.633-40.754,35.68-42.027,62.908
				c-0.193,4.138,3.004,7.648,7.142,7.843c4.13,0.172,7.648-3.005,7.842-7.142c1.021-21.822,14.008-41.079,33.895-50.254
				c4.952-2.283,8.15-7.314,8.146-12.855c0-13.617,11.079-24.696,24.696-24.696c11.95,0,22.168,8.516,24.298,20.249
				c1.257,6.923,7.211,11.947,14.156,11.947h48.326c6.945,0,12.899-5.024,14.156-11.948c2.129-11.732,12.348-20.248,24.298-20.248
				c13.618,0,24.696,11.079,24.697,24.613c-0.001,0.026-0.001,0.097-0.001,0.123c-0.003,5.501,3.194,10.531,8.144,12.814
				c20.63,9.518,33.96,30.334,33.96,53.031c0,8.775,7.14,15.915,15.916,15.915h35.089c4.904,0,8.99-3.827,9.301-8.719
				c0.627-9.975,8.96-17.789,18.97-17.789s18.343,7.814,18.971,17.786c0.306,4.891,4.391,8.722,9.3,8.722h23.296
				c4.904,0,8.99-3.827,9.301-8.719c0.627-9.975,8.96-17.789,18.97-17.789s18.343,7.814,18.971,17.786
				c0.306,4.891,4.391,8.722,9.3,8.722c19.729,0,35.781,16.052,35.781,35.781v22.042c0,5.015-0.365,9.969-1.075,14.836H105.279
				c-12.612,0-25.192-3.89-36.381-11.249c-14.411-9.477-33.335-15.147-53.883-16.264c-0.004-0.395-0.015-0.788-0.015-1.184v-28.366
				c0-4.143-3.358-7.5-7.5-7.5c-4.142,0-7.5,3.357-7.5,7.5v28.366c0,71.618,58.266,129.884,129.884,129.884h266.093
				c17.809,0,34.897-3.931,50.792-11.682c3.724-1.815,5.27-6.306,3.454-10.028c-1.815-3.723-6.305-5.268-10.028-3.454
				c-13.83,6.744-28.707,10.164-44.218,10.164H129.884c-57.818,0-105.788-42.935-113.724-98.595
				c17.024,1.235,32.907,6.07,44.496,13.692c13.643,8.973,29.074,13.716,44.624,13.716h99.64v10.884
				c0,14.271,11.611,25.883,25.883,25.883c14.272,0,25.883-11.611,25.883-25.883v-10.884h13.061v10.884
				c0,14.271,11.611,25.883,25.883,25.883c14.273,0,25.884-11.611,25.884-25.883v-10.884h13.06v10.884
				c0,14.271,11.611,25.883,25.884,25.883c14.271,0,25.883-11.611,25.883-25.883v-10.884h13.061v10.884
				c0,14.271,11.611,25.883,25.883,25.883c14.272,0,25.884-11.611,25.884-25.883v-10.884h41.389
				c-4.925,16.036-13.846,30.663-26.27,42.707c-2.975,2.883-3.049,7.631-0.165,10.605c1.471,1.517,3.427,2.279,5.386,2.279
				c1.88,0,3.763-0.703,5.22-2.115C499.473,348.911,512,319.323,512,287.65v-22.042C512,239.28,491.86,217.567,466.179,215.066z
				 M241.685,328.369c0,6.001-4.882,10.883-10.883,10.883s-10.883-4.882-10.883-10.883v-10.884h21.766V328.369z M306.513,328.369
				c0,6.001-4.883,10.883-10.884,10.883c-6.001,0-10.883-4.882-10.883-10.883v-10.884h21.767V328.369z M371.339,328.369
				c0,6.001-4.882,10.883-10.883,10.883c-6.001,0-10.884-4.882-10.884-10.883v-10.884h21.767V328.369z M436.166,328.369
				c0,6.001-4.883,10.883-10.884,10.883c-6.001,0-10.883-4.882-10.883-10.883v-10.884h21.767V328.369z"/>
			<path d="M214.824,170.181v-10.546c0-4.143-3.358-7.5-7.5-7.5c-4.142,0-7.5,3.357-7.5,7.5v10.546c0,4.143,3.358,7.5,7.5,7.5
				C211.466,177.681,214.824,174.322,214.824,170.181z"/>
		</g>
	</g>
</g>
<g>
</g>
<g>
</g>
<g>
</g>
<g>
</g>
<g>
</g>
<g>
</g>
<g>
</g>
<g>
</g>
<g>
</g>
<g>
</g>
<g>
</g>
<g>
</g>
<g>
</g>
<g>
</g>
<g>
</g>
</svg>
