<?xml version="1.0" encoding="iso-8859-1"?>
<!-- Generator: Adobe Illustrator 19.0.0, SVG Export Plug-In . SVG Version: 6.00 Build 0)  -->
<svg version="1.1" id="Capa_1" xmlns="http://www.w3.org/2000/svg" xmlns:xlink="http://www.w3.org/1999/xlink" x="0px" y="0px"
	 viewBox="0 0 512.001 512.001" style="enable-background:new 0 0 512.001 512.001;" xml:space="preserve">
<g>
	<g>
		<g>
			<path d="M226.371,219.756c-13.044,0-23.656,10.611-23.656,23.655c0,4.143,3.358,7.5,7.5,7.5s7.5-3.357,7.5-7.5
				c0-4.773,3.883-8.655,8.656-8.655s8.656,3.883,8.656,8.655c0,4.143,3.358,7.5,7.5,7.5s7.5-3.357,7.5-7.5
				C250.026,230.367,239.415,219.756,226.371,219.756z"/>
			<path d="M70.902,311.776c0-51.85,20.196-100.59,56.868-137.244c5.685-5.682,11.66-10.966,17.891-15.842
				c0.209-0.141,0.403-0.299,0.598-0.461c33.835-26.265,75.163-40.5,118.688-40.5h0.102c54.675,0.028,107.111,23.627,143.866,64.746
				c2.761,3.09,7.502,3.354,10.59,0.594c3.088-2.761,3.354-7.502,0.594-10.59c-34.273-38.344-81.223-62.531-131.447-68.362
				c-6.803-32.682-21.008-64.299-40.339-89.573c-6.01-7.86-14.722-12.908-24.529-14.215c-9.805-1.303-19.535,1.284-27.391,7.295
				c-9.215,7.048-14.339,17.899-14.503,29.001c-11.157-6.554-22.655-12.003-34.332-16.265c-19.481-7.113-41.112,2.524-48.218,21.477
				c-3.51,9.364-3.129,19.515,1.072,28.582c1.352,2.918,3.045,5.606,5.033,8.023c-0.059-0.003-0.117-0.006-0.176-0.009
				c-9.879-0.483-19.353,2.907-26.685,9.554c-7.332,6.647-11.637,15.75-12.121,25.63c-0.998,20.398,14.786,37.805,35.185,38.803
				c7.918,0.387,15.975,1.541,24.076,3.423c-2.913,2.608-5.772,5.295-8.559,8.081C77.659,203.41,55.902,255.92,55.902,311.777
				c0,39.728-16.469,108.568-16.635,109.259c-0.036,0.15-0.068,0.302-0.094,0.454c-3.774,21.393,1.704,43.511,15.029,60.682
				c1.479,1.905,3.692,2.902,5.931,2.902c1.606,0,3.225-0.514,4.593-1.575c3.272-2.539,3.867-7.25,1.327-10.522
				c-10.69-13.775-15.111-31.498-12.146-48.662C55.161,419.072,70.902,352.503,70.902,311.776z M102.381,137.437
				c-12.137-0.594-21.528-10.95-20.935-23.088c0.288-5.877,2.849-11.293,7.213-15.249c4.363-3.956,10.004-5.978,15.875-5.685
				c8.048,0.394,16.314,1.35,24.566,2.841c4.633,0.838,9.156-1.932,10.508-6.446s-0.897-9.31-5.229-11.156
				c-2.577-1.099-5.2-2.129-7.799-3.062c-5.597-2.007-10.057-6.084-12.558-11.48c-2.5-5.395-2.726-11.436-0.636-17.01
				c4.157-11.084,17.45-16.878,29.03-12.652c15.057,5.496,29.827,13.142,43.899,22.725c3.197,2.176,7.484,1.941,10.424-0.567
				c2.94-2.51,3.844-6.705,2.198-10.203c-4.379-9.307-1.617-20.604,6.57-26.865c4.675-3.576,10.462-5.122,16.297-4.341
				c5.835,0.777,11.018,3.78,14.595,8.458c17.152,22.424,29.964,50.265,36.625,79.25c-2.65-0.104-5.304-0.176-7.966-0.177h-0.109
				c-45.652,0-89.066,14.543-124.967,41.426C127.377,140.31,114.748,138.04,102.381,137.437z"/>
			<path d="M346.83,327.221l0.515-2.852h14.037c4.644,0,9.014-2.044,11.992-5.607c2.978-3.563,4.212-8.228,3.387-12.799
				c-5.872-32.508-34.11-56.102-67.143-56.102h-19.714c-15.789,0-28.634,12.846-28.634,28.635v45.817
				c0,8.923,3.558,17.026,9.323,22.981c-3.878,11.447-9.358,21.553-16.692,30.764c-8.788,11.036-6.96,27.165,4.079,35.956
				c4.513,3.592,10.168,5.57,15.926,5.57c7.846,0,15.146-3.518,20.028-9.649c3.068-3.853,5.948-7.849,8.619-11.955
				c2.671,4.106,5.551,8.103,8.619,11.955c4.883,6.132,12.182,9.649,20.027,9.649c5.758,0,11.415-1.979,15.927-5.571
				c11.037-8.79,12.866-24.919,4.078-35.955c-7.123-8.945-12.495-18.712-16.344-29.725
				C340.95,343.014,345.301,335.682,346.83,327.221z M339.466,387.403c3.636,4.566,2.879,11.24-1.688,14.877
				c-1.895,1.509-4.171,2.306-6.583,2.306c-3.249,0-6.272-1.455-8.293-3.993c-5.23-6.568-9.852-13.591-13.735-20.872
				c-1.304-2.444-3.848-3.971-6.618-3.971c-2.77,0-5.315,1.526-6.618,3.971c-3.883,7.281-8.504,14.304-13.736,20.873
				c-2.02,2.537-5.042,3.992-8.293,3.992c-2.412,0-4.689-0.798-6.582-2.306c-4.567-3.637-5.324-10.31-1.688-14.877
				c7.686-9.652,13.597-20.129,17.942-31.826c3.377,1.166,6.996,1.808,10.764,1.808h16.39c3.764,0,7.411-0.576,10.854-1.64
				C325.918,367.366,331.809,377.785,339.466,387.403z M276.272,324.369h55.831l-0.033,0.186
				c-1.866,10.331-10.841,17.83-21.34,17.83h-16.39C284.394,342.385,276.302,334.308,276.272,324.369z M276.269,309.37v-0.001
				v-30.873c0-7.519,6.116-13.635,13.634-13.635h19.714c25.771,0,47.802,18.408,52.383,43.77c0.013,0.071,0.052,0.288-0.136,0.513
				c-0.188,0.226-0.409,0.226-0.481,0.226H276.269z"/>
			<path d="M442.022,201.729c-2.19-3.515-6.814-4.591-10.332-2.401c-3.516,2.19-4.591,6.815-2.401,10.331
				c19.434,31.2,29.706,67.178,29.706,104.046v121.19c0,34.245-27.86,62.105-62.105,62.105c-31.816,0-48.087-20.88-56.134-38.396
				c-2.444-5.319-7.614-8.629-13.494-8.638h-0.022c-5.87,0-11.039,3.294-13.494,8.6C305.634,476.099,289.321,497,257.681,497
				c-26.192,0-49.704-16.564-58.507-41.216c-2.048-5.735-7.1-9.626-13.186-10.155c-6.082-0.531-11.739,2.433-14.747,7.732
				c-22.726,40.028-48.977,45.309-67.029,42.665c-5.409-0.963-10.646-2.623-15.566-4.936c-3.748-1.76-8.215-0.149-9.978,3.599
				c-1.761,3.748-0.15,8.216,3.598,9.978c6.152,2.891,12.693,4.96,19.444,6.149c0.067,0.013,0.135,0.023,0.203,0.033
				c32.083,4.757,61.336-13.03,82.372-50.082c0.067-0.118,0.13-0.212,0.404-0.194c0.275,0.024,0.314,0.131,0.358,0.256
				c10.929,30.607,40.118,51.172,72.632,51.172c30.777,0,55.466-16.638,69.562-46.88c13.985,30.232,38.71,46.88,69.647,46.88
				c42.516,0,77.104-34.59,77.104-77.105V313.704C473.995,274.031,462.939,235.31,442.022,201.729z"/>
			<path d="M386.943,250.911c4.142,0,7.5-3.357,7.5-7.5c0-13.044-10.612-23.655-23.656-23.655
				c-13.044,0-23.656,10.611-23.656,23.655c0,4.143,3.358,7.5,7.5,7.5s7.5-3.357,7.5-7.5c0-4.773,3.883-8.655,8.656-8.655
				c4.773,0,8.656,3.883,8.656,8.655C379.443,247.554,382.801,250.911,386.943,250.911z"/>
		</g>
	</g>
</g>
<g>
</g>
<g>
</g>
<g>
</g>
<g>
</g>
<g>
</g>
<g>
</g>
<g>
</g>
<g>
</g>
<g>
</g>
<g>
</g>
<g>
</g>
<g>
</g>
<g>
</g>
<g>
</g>
<g>
</g>
</svg>
