<?xml version="1.0" encoding="iso-8859-1"?>
<!-- Generator: Adobe Illustrator 19.0.0, SVG Export Plug-In . SVG Version: 6.00 Build 0)  -->
<svg version="1.1" id="Capa_1" xmlns="http://www.w3.org/2000/svg" xmlns:xlink="http://www.w3.org/1999/xlink" x="0px" y="0px"
	 viewBox="0 0 512 512" style="enable-background:new 0 0 512 512;" xml:space="preserve">
<g>
	<g>
		<g>
			<path d="M194.632,279.791v-11.624c0-4.142-3.357-7.5-7.5-7.5s-7.5,3.358-7.5,7.5v11.624c0,4.142,3.357,7.5,7.5,7.5
				S194.632,283.933,194.632,279.791z"/>
			<path d="M332.366,279.791v-11.624c0-4.142-3.358-7.5-7.5-7.5c-4.143,0-7.5,3.358-7.5,7.5v11.624c0,4.142,3.357,7.5,7.5,7.5
				C329.008,287.291,332.366,283.933,332.366,279.791z"/>
			<path d="M383.153,62.481l-75.714,31.362c-3.827,1.586-5.645,5.973-4.059,9.799c1.196,2.888,3.988,4.632,6.932,4.632
				c0.956,0,1.929-0.184,2.867-0.573l75.714-31.362c3.827-1.585,5.645-5.973,4.059-9.799
				C391.366,62.713,386.979,60.895,383.153,62.481z"/>
			<path d="M462.43,173.917c-13.901-19.757-32.332-35.418-53.786-45.872c9.819-8.13,19.035-17.445,27.58-27.94
				c2.616-3.212,2.132-7.936-1.08-10.552c-3.211-2.615-7.936-2.13-10.551,1.08c-10.514,12.912-22.082,23.896-34.594,32.878
				c-0.231,0.145-0.453,0.302-0.668,0.472c-9.66,6.862-19.875,12.541-30.603,16.985c-17.44,7.224-37.638,8.866-55.416,4.503
				c-8.666-2.126-16.128-5.505-22.134-9.915c-0.266-0.234-0.549-0.441-0.841-0.632c-5.867-4.507-10.265-10.036-12.9-16.397
				c-11.148-26.916,12.057-65.246,48.686-80.419c49.266-20.406,99.026-10.182,124.304-2.27c3.761,1.177,6.785,3.946,8.298,7.598
				c1.513,3.651,1.332,7.748-0.495,11.24c-1.763,3.369-3.652,6.758-5.616,10.07c-2.111,3.564-0.935,8.164,2.628,10.276
				c3.565,2.111,8.164,0.936,10.276-2.628c2.098-3.54,4.117-7.161,6.003-10.764c3.894-7.441,4.28-16.165,1.063-23.934
				c-3.218-7.769-9.661-13.664-17.676-16.173c-27.217-8.519-80.884-19.491-134.524,2.726c-17.068,7.07-32.495,19.03-43.584,33.529
				c-5.813-16.504-12.785-31.294-20.815-44.104c-8.544-13.632-26.587-17.771-40.224-9.227c-13.634,8.545-17.773,26.589-9.228,40.224
				c1.351,2.156,2.668,4.413,3.947,6.762c-0.822-0.366-1.645-0.73-2.475-1.074C144.367,28.14,90.7,39.113,63.483,47.632
				c-8.015,2.509-14.457,8.404-17.675,16.173c-3.218,7.77-2.831,16.493,1.063,23.933c7.208,13.778,19.279,33.311,37.138,51.793
				C47.66,165.173,23.87,207.485,23.87,255.253c0,39.782,11.611,80.917,33.577,118.957c22.504,38.971,55.113,73.16,94.3,98.87
				c1.269,0.832,2.695,1.23,4.107,1.23c2.442,0,4.838-1.192,6.277-3.387c2.273-3.463,1.307-8.113-2.156-10.385
				c-37.238-24.43-68.199-56.877-89.538-93.829C49.786,330.947,38.87,292.406,38.87,255.254c0-69.77,56.762-126.532,126.531-126.532
				c22.49,0,44.217,5.868,63.431,17.037c0.136,0.085,0.277,0.16,0.419,0.236c2.803,1.644,5.554,3.399,8.244,5.268
				c1.457,1.012,2.982,1.882,4.553,2.628c-9.535,15.131-15.233,32.144-15.549,47.149c-0.087,4.141,3.199,7.569,7.341,7.656
				c0.054,0.001,0.106,0.001,0.16,0.001c4.068,0,7.409-3.255,7.495-7.342c0.289-13.774,6.57-30.498,16.554-44.401
				c5.793-0.363,11.506-2.252,16.457-5.692c0.495-0.344,1.016-0.696,1.552-1.054c6.815,4.304,14.759,7.641,23.682,9.831
				c7.685,1.885,15.744,2.815,23.881,2.815c13.903,0,28.028-2.717,40.85-8.028c10.657-4.414,20.833-9.937,30.503-16.505
				c22.221,9.192,41.248,24.411,55.19,44.227c15.025,21.355,22.966,46.497,22.966,72.707c0,45.469-16.602,93.341-46.745,134.796
				c-32.208,44.293-77.372,78.681-130.611,99.445c-25.647,10.004-53.901,10.004-79.549,0c-7.716-3.009-15.374-6.356-22.764-9.95
				c-3.727-1.812-8.213-0.259-10.025,3.466c-1.811,3.725-0.26,8.213,3.466,10.024c7.751,3.768,15.783,7.279,23.871,10.434
				C225.356,509.157,240.677,512,256,512c15.323,0,30.643-2.844,45.226-8.531c55.918-21.81,103.392-57.98,137.292-104.599
				c31.993-43.999,49.613-95.003,49.613-143.617C488.129,225.938,479.242,197.812,462.43,173.917z M205.15,119.402
				c1.314-3.731-0.498-7.88-4.197-9.412l-75.715-31.361c-3.825-1.583-8.214,0.232-9.799,4.059c-1.586,3.827,0.231,8.214,4.059,9.799
				l51.548,21.351c-1.877-0.074-3.759-0.114-5.646-0.114c-24.788,0-48.104,6.414-68.388,17.657
				c-17.856-17.855-29.816-37.151-36.85-50.593c-1.827-3.492-2.008-7.589-0.495-11.24c1.512-3.651,4.536-6.42,8.297-7.598
				c25.277-7.913,75.041-18.138,124.304,2.27c6.504,2.694,12.748,6.22,18.596,10.479c5.654,15.444,10.02,33,12.744,51.524
				C217.615,123.512,211.45,121.241,205.15,119.402z M254.782,142c-0.006-0.001-0.013,0-0.019-0.001
				c-3.068-0.216-6.088-1.232-8.711-3.054c-2.033-1.413-4.107-2.747-6.2-4.045c-2.707-24.165-8.128-47.271-15.593-67.145
				c-0.092-0.295-0.197-0.587-0.326-0.87c-4.279-11.249-9.215-21.443-14.69-30.177c-4.152-6.627-2.141-15.396,4.484-19.548
				c6.628-4.154,15.396-2.141,19.549,4.484c9.29,14.822,17.096,32.617,23.229,52.92c-8.11,17.2-9.192,34.578-2.925,49.707
				c2.435,5.879,5.916,11.2,10.287,15.903C261.032,141.602,257.885,142.214,254.782,142z"/>
			<path d="M283.119,288.686v-14.265c0-7.089-5.768-12.856-12.857-12.856h-28.528c-7.089,0-12.857,5.767-12.857,12.856v14.265
				c0,14.955,12.166,27.12,27.12,27.12C270.953,315.806,283.119,303.639,283.119,288.686z M243.878,288.686v-12.121h24.241v12.121
				c0,6.683-5.438,12.121-12.121,12.121C249.316,300.807,243.878,295.369,243.878,288.686z"/>
		</g>
	</g>
</g>
<g>
</g>
<g>
</g>
<g>
</g>
<g>
</g>
<g>
</g>
<g>
</g>
<g>
</g>
<g>
</g>
<g>
</g>
<g>
</g>
<g>
</g>
<g>
</g>
<g>
</g>
<g>
</g>
<g>
</g>
</svg>
