<?xml version="1.0" encoding="iso-8859-1"?>
<!-- Generator: Adobe Illustrator 19.0.0, SVG Export Plug-In . SVG Version: 6.00 Build 0)  -->
<svg version="1.1" id="Capa_1" xmlns="http://www.w3.org/2000/svg" xmlns:xlink="http://www.w3.org/1999/xlink" x="0px" y="0px"
	 viewBox="0 0 512 512" style="enable-background:new 0 0 512 512;" xml:space="preserve">
<g>
	<g>
		<g>
			<path d="M372.186,243.049l30.418,19.011c1.235,0.773,2.609,1.141,3.968,1.141c2.5,0,4.944-1.25,6.367-3.526
				c2.195-3.513,1.127-8.14-2.386-10.335l-30.418-19.011c-3.509-2.196-8.139-1.128-10.335,2.385
				C367.605,236.226,368.674,240.853,372.186,243.049z"/>
			<path d="M203.404,236.234c0.703,3.576,3.839,6.055,7.351,6.055c0.48,0,0.967-0.046,1.455-0.142l29.01-5.703
				c4.065-0.799,6.711-4.742,5.913-8.806c-0.8-4.065-4.75-6.711-8.806-5.912l-29.01,5.703
				C205.252,228.227,202.605,232.17,203.404,236.234z"/>
			<path d="M473.447,336.436c0.45-0.668,0.882-1.351,1.286-2.056l18.055-31.5c10.311-17.989,10.555-39.604,0.653-57.82
				l-35.044-64.474c-9.995-18.389-26.445-32.131-46.32-38.694c-3.932-1.299-8.175,0.837-9.474,4.77s0.837,8.174,4.77,9.473
				c4.11,1.357,8.039,3.093,11.751,5.169l-27.083,27.498c-3.867,3.925-9.007,6.456-14.475,7.127l-49.499,6.075
				c-13.109,1.611-25.884-5.261-31.762-17.103l-38.391-77.331c2.623,0.358,5.232,0.938,7.792,1.783l108.033,35.675
				c3.934,1.299,8.175-0.836,9.474-4.77c1.299-3.933-0.837-8.174-4.77-9.473L270.409,95.112c-8.395-2.773-17.171-3.557-25.689-2.501
				c-0.043,0.006-0.087,0.009-0.13,0.017c-11.718,1.479-22.941,6.447-31.998,14.571l-64.896,58.207
				c-3.245,2.911-6.938,5.222-10.974,6.869l-58.427,23.838c-26.957,10.999-41.73,39.562-35.127,67.919l14.263,61.247
				c0.939,4.033,2.571,7.741,4.743,11.022H41.77C18.738,336.3,0,355.038,0,378.07c0,23.032,18.738,41.77,41.77,41.77h428.459
				c23.032,0,41.771-18.738,41.771-41.771C512,356.121,494.98,338.085,473.447,336.436z M57.778,260.629
				c-2.587-11.107-0.768-22.253,4.45-31.523l81.386,16.658c4.707,0.963,8.667,3.76,11.148,7.874
				c2.482,4.114,3.109,8.921,1.767,13.533l-0.654,2.246c-1.158,3.977,1.128,8.14,5.105,9.297c0.7,0.204,1.405,0.301,2.1,0.301
				c3.249,0,6.244-2.129,7.198-5.406l0.654-2.247c2.491-8.558,1.278-17.842-3.326-25.474c-4.604-7.631-12.253-13.033-20.984-14.82
				l-73.187-14.98c3.142-2.449,6.665-4.512,10.526-6.087l58.427-23.838c5.636-2.3,10.792-5.527,15.323-9.591l64.896-58.207
				c5.482-4.917,12.034-8.265,18.979-9.948l41.283,83.156c7.859,15.832,24.034,25.665,41.403,25.665c1.863,0,3.74-0.113,5.622-0.344
				l49.498-6.075c8.814-1.081,17.101-5.162,23.334-11.49l28.713-29.153c5.485,4.991,10.152,10.906,13.776,17.574l35.044,64.474
				c7.398,13.609,7.216,29.757-0.487,43.197l-18.055,31.499c-0.463,0.808-0.988,1.568-1.556,2.286l-18.433-37.209
				c-11.578-23.374-40.043-33.023-63.448-21.514l-87.857,43.203c-3.717,1.828-5.249,6.323-3.421,10.04
				c1.828,3.717,6.322,5.249,10.04,3.421l87.856-43.203c16.009-7.874,35.471-1.271,43.388,14.711l18.621,37.588
				c-0.456,0.034-0.914,0.055-1.374,0.055h-293.5l9.629-33.087c1.158-3.977-1.128-8.14-5.105-9.297
				c-3.977-1.156-8.14,1.128-9.297,5.105L136.411,336.3H90.209c-8.72,0-16.191-5.932-18.169-14.424L57.778,260.629z M470.229,404.84
				H41.77c-14.761,0-26.77-12.009-26.77-26.77s12.009-26.77,26.77-26.77h100.245c0.009,0,0.019,0.002,0.028,0.002
				c0.008,0,0.016-0.002,0.024-0.002h328.162c14.762,0,26.771,12.009,26.771,26.771C497,392.831,484.991,404.84,470.229,404.84z"/>
			<path d="M183.147,196.449l33.104,10.509c0.755,0.24,1.52,0.354,2.271,0.354c3.181,0,6.133-2.04,7.146-5.232
				c1.254-3.948-0.931-8.164-4.879-9.418l-33.104-10.509c-3.949-1.253-8.164,0.931-9.418,4.879
				C177.015,190.98,179.199,195.196,183.147,196.449z"/>
		</g>
	</g>
</g>
<g>
</g>
<g>
</g>
<g>
</g>
<g>
</g>
<g>
</g>
<g>
</g>
<g>
</g>
<g>
</g>
<g>
</g>
<g>
</g>
<g>
</g>
<g>
</g>
<g>
</g>
<g>
</g>
<g>
</g>
</svg>
