<?xml version="1.0" encoding="iso-8859-1"?>
<!-- Generator: Adobe Illustrator 19.0.0, SVG Export Plug-In . SVG Version: 6.00 Build 0)  -->
<svg version="1.1" id="Capa_1" xmlns="http://www.w3.org/2000/svg" xmlns:xlink="http://www.w3.org/1999/xlink" x="0px" y="0px"
	 viewBox="0 0 512 512" style="enable-background:new 0 0 512 512;" xml:space="preserve">
<g>
	<g>
		<path d="M456.942,380.889h-11.345c1.424-75.048,12.359-123.089,34.265-150.828c6.608-8.368,7.035-19.534,1.087-28.447
			c-6.018-9.018-16.62-12.952-27.014-10.026c-10.713,3.018-24.87,8.556-39.755,18.675c10.207-23.068,22.251-42.191,33.892-57.518
			c6.975-9.181,6.698-21.314-0.688-30.191c-7.436-8.937-19.397-11.431-29.763-6.204c-26.387,13.3-48.83,30.081-67.108,50.082
			c12.308-40.025,29.019-77.514,48.275-107.888c6.236-9.836,4.911-21.995-3.298-30.256c-8.185-8.239-20.301-9.638-30.149-3.483
			c-6.597,4.123-13.137,8.615-19.438,13.351c-3.311,2.489-3.978,7.19-1.489,10.501c2.488,3.311,7.19,3.978,10.501,1.489
			c5.958-4.479,12.141-8.725,18.375-12.622c4.652-2.908,9.022-1.217,11.559,1.335c2.555,2.571,4.23,6.982,1.27,11.652
			c-25.088,39.573-45.976,90.658-58.816,143.845c-0.438,1.814-0.864,3.629-1.284,5.445c-0.011,0.042-0.02,0.085-0.03,0.127
			c-13.765,59.609-17.788,120.414-11.988,180.96H227.89c-5.916-58.869,0.205-118.122,17.801-171.787
			c17.74-54.101,46.724-101.574,83.823-137.287c2.984-2.873,3.074-7.621,0.202-10.605c-2.874-2.984-7.621-3.075-10.605-0.202
			c-37.676,36.27-67.323,84.001-85.954,138.301c-35.145-60.787-83.755-109.503-138.294-138.22c-9.934-5.231-21.7-3.178-29.277,5.108
			c-7.603,8.313-8.603,20.253-2.489,29.712c12.931,20.007,35.421,57.162,55.743,102.389c-17.327-8.587-36.064-13.563-55.97-14.798
			c-10.68-0.656-20.208,5.31-24.251,15.216c-3.993,9.783-1.408,20.57,6.583,27.481c10.941,9.461,22.307,21.581,32.764,35.76
			c-10.593-2.618-21.706-4.004-32.935-4.052h-0.11c-10.588,0-19.585,6.499-22.941,16.582c-3.398,10.21-0.02,20.942,8.605,27.34
			c16.718,12.403,36.979,36.046,41.558,79.06H55.058C24.699,380.889,0,405.588,0,435.948c0,30.359,24.699,55.058,55.058,55.058
			h47.292c4.142,0,7.5-3.358,7.5-7.5c0-4.142-3.358-7.5-7.5-7.5H55.058C32.97,476.006,15,458.035,15,435.948
			c0-22.088,17.97-40.059,40.058-40.059H169.73c0.005,0,0.01,0,0.015,0c0.003,0,0.007,0,0.01,0h51.378c0.004,0,0.007,0,0.01,0
			s0.006,0,0.008,0H322.29c0.003,0,0.007,0,0.01,0c0.003,0,0.006,0,0.009,0h61.724c0.007,0,0.014,0.001,0.021,0.001
			c0.005,0,0.01-0.001,0.015-0.001h72.872c22.088,0,40.058,17.97,40.058,40.059c0,22.088-17.97,40.058-40.058,40.058H138.863
			c-4.142,0-7.5,3.358-7.5,7.5c0,4.142,3.358,7.5,7.5,7.5h318.079c30.359,0,55.058-24.699,55.058-55.058
			C512,405.588,487.301,380.889,456.942,380.889z M119.499,380.889H87.213c-3.859-38.866-20.636-71.035-47.693-91.107
			c-4.034-2.993-4.355-7.416-3.31-10.557c0.494-1.485,2.58-6.318,8.705-6.318h0.049c16.291,0.069,32.256,3.257,46.337,9.222
			C108.015,310.471,119.936,344.514,119.499,380.889z M162.587,380.889h-28.09c0.431-40.155-12.984-77.574-31.558-108.413
			c-0.083-0.146-0.169-0.29-0.262-0.431c-14.2-23.468-31.371-43.103-47.665-57.192c-4.649-4.021-3.094-9.028-2.507-10.467
			c1.25-3.064,4.393-6.226,9.435-5.913c24.424,1.516,46.888,9.281,66.818,23.051c0.86,2.128,1.715,4.264,2.558,6.417
			C153.612,284.899,164.112,336.306,162.587,380.889z M212.821,380.889h-35.225c1.495-46.525-9.354-99.766-32.313-158.417
			c-1.113-2.844-2.246-5.659-3.389-8.459c-0.011-0.029-0.024-0.057-0.035-0.086c-22.812-55.886-50.967-102.644-66.166-126.16
			c-2.903-4.492-1.407-8.858,0.96-11.447c2.348-2.567,6.527-4.429,11.221-1.96c55.65,29.302,104.948,80.621,139.09,144.687
			C212.326,270.261,207.466,325.734,212.821,380.889z M375.615,380.889h-46.546c-5.804-58.962-2.028-118.193,11.237-176.273
			c19.529-31.397,47.797-56.59,84.068-74.872c4.923-2.48,9.158-0.386,11.481,2.404c2.281,2.742,3.551,7.208,0.274,11.523
			c-16.635,21.899-34.054,51.156-46.341,88.121c-0.151,0.36-0.271,0.728-0.364,1.102
			C376.244,273.048,369.148,322.231,375.615,380.889z M390.707,380.89v-0.001c-6.454-56.445,0.155-103.701,12.642-142.245
			c19.794-19.775,40.575-28.652,54.653-32.617c4.873-1.375,8.607,1.121,10.471,3.914c0.877,1.315,3.442,5.981-0.382,10.825
			c-24.052,30.456-36.015,81.452-37.495,160.124H390.707z"/>
	</g>
</g>
<g>
</g>
<g>
</g>
<g>
</g>
<g>
</g>
<g>
</g>
<g>
</g>
<g>
</g>
<g>
</g>
<g>
</g>
<g>
</g>
<g>
</g>
<g>
</g>
<g>
</g>
<g>
</g>
<g>
</g>
</svg>
