<?xml version="1.0" encoding="iso-8859-1"?>
<!-- Generator: Adobe Illustrator 19.0.0, SVG Export Plug-In . SVG Version: 6.00 Build 0)  -->
<svg version="1.1" id="Capa_1" xmlns="http://www.w3.org/2000/svg" xmlns:xlink="http://www.w3.org/1999/xlink" x="0px" y="0px"
	 viewBox="0 0 512 512" style="enable-background:new 0 0 512 512;" xml:space="preserve">
<g>
	<g>
		<g>
			<path d="M511.869,106.548c-0.681-10.369-3.979-20.638-9.54-30.078c-0.064-0.114-0.134-0.225-0.204-0.336
				c-3.326-5.579-7.438-10.866-12.277-15.706c-13.107-13.107-29.486-20.928-46.119-22.021c-17.515-1.153-34.241,5.297-47.104,18.16
				c-9.144,9.143-17.103,22.084-22.578,36.483c-33.962-23.977-75.585-37.114-118.046-37.114c-44.184,0-85.033,13.838-118.018,37.192
				c-5.475-14.43-13.446-27.401-22.606-36.561c-12.861-12.862-29.589-19.313-47.104-18.16C51.64,39.5,35.26,47.321,22.153,60.428
				c-4.855,4.855-8.98,10.16-12.311,15.759c-0.049,0.078-0.099,0.156-0.145,0.236c-5.577,9.453-8.884,19.739-9.566,30.125
				c-1.151,17.513,5.298,34.242,18.16,47.103c12.233,12.233,31.626,22.383,51.237,27.145c-7.513,19.878-11.619,41.29-11.619,63.599
				c0,6.975,0.437,14.019,1.253,21.005c-25.099,20.009-38.14,45.845-38.14,76.378c0,43.62,26.107,79.01,75.497,102.345
				c3.743,1.77,8.215,0.168,9.985-3.578c1.77-3.745,0.168-8.215-3.578-9.985c-55.297-26.125-66.904-62.7-66.904-88.782
				c0-26.967,11.723-49.284,34.94-66.689c0.369-0.221,0.713-0.476,1.036-0.753c10.417-7.635,23.068-14.314,37.963-20.002
				c5.368-2.05,9.946-6.087,12.89-11.369c5.997-10.758,17.361-17.44,29.659-17.44c7.516,0,14.637,2.411,20.594,6.972
				c4.172,3.195,9.39,4.609,14.686,3.981c21.112-2.503,44.062-3.773,68.21-3.773c24.148,0,47.097,1.27,68.21,3.773
				c5.293,0.628,10.513-0.786,14.685-3.981c5.956-4.561,13.077-6.972,20.593-6.972c12.297,0,23.662,6.683,29.659,17.44
				c2.944,5.281,7.521,9.318,12.89,11.369c14.893,5.687,27.544,12.366,37.96,19.999c0.324,0.279,0.669,0.535,1.04,0.757
				c23.217,17.405,34.939,39.721,34.939,66.688c0,18.454-5.52,35.27-16.405,49.98c-10.513,14.207-26.022,26.539-46.096,36.653
				c-39.357,19.831-93.812,30.313-157.477,30.313c-44.563,0-86.057-5.401-119.995-15.62c-3.967-1.193-8.15,1.052-9.344,5.019
				c-1.194,3.966,1.053,8.15,5.019,9.344c35.321,10.635,78.31,16.257,124.32,16.257c65.998,0,122.787-11.037,164.226-31.917
				c46.286-23.323,70.751-57.912,70.751-100.03c0-30.534-13.042-56.37-38.14-76.379c0.816-6.986,1.253-14.03,1.253-21.005
				c0-2.23-0.042-4.488-0.123-6.709c-0.152-4.139-3.633-7.371-7.771-7.219c-4.139,0.152-7.372,3.632-7.219,7.771
				c0.075,2.038,0.113,4.11,0.113,6.157c0,3.694-0.134,7.411-0.385,11.126c-9.259-5.681-19.7-10.764-31.315-15.2
				c-2.082-0.795-3.908-2.45-5.14-4.66c-8.643-15.505-25.028-25.137-42.761-25.137c-10.841,0-21.116,3.48-29.713,10.063
				c-1.039,0.795-2.425,1.155-3.799,0.995c-21.697-2.573-45.24-3.877-69.976-3.877s-48.279,1.305-69.975,3.877
				c-1.378,0.163-2.763-0.2-3.8-0.995c-8.597-6.583-18.872-10.063-29.713-10.063c-17.732,0-34.117,9.632-42.76,25.137
				c-1.232,2.21-3.057,3.864-5.14,4.66c-11.616,4.436-22.056,9.519-31.315,15.2c-0.251-3.716-0.385-7.433-0.385-11.126
				c0-95.647,82.133-173.459,183.09-173.459c41.678,0,82.462,13.622,114.839,38.357c0.777,0.594,1.545,1.199,2.311,1.804
				c0.03,0.024,0.061,0.048,0.092,0.072c30.553,24.171,52.219,57.427,61.142,93.973c0.983,4.024,5.044,6.488,9.065,5.507
				c4.024-0.983,6.49-5.041,5.507-9.065c-1.723-7.058-3.892-13.999-6.461-20.794c19.603-4.764,38.985-14.911,51.213-27.139
				C506.571,140.789,513.02,124.061,511.869,106.548z M75.501,166.777c-17.853-3.826-35.687-12.818-46.602-23.732
				c-9.904-9.904-14.675-22.184-13.799-35.513c0.436-6.63,2.288-13.248,5.388-19.54c26.34,2.903,55.718,22.641,72.844,48.988
				C86.487,146.334,80.499,156.298,75.501,166.777z M103.122,124.68c-18.21-25.762-46.136-44.851-73.38-50.408
				c0.967-1.1,1.966-2.184,3.019-3.237c10.533-10.534,23.494-16.806,36.496-17.661c13.324-0.876,25.609,3.895,35.513,13.799
				c8.454,8.453,16.009,21.513,20.708,35.583C117.425,109.482,109.942,116.811,103.122,124.68z M386.555,102.658
				c4.702-14.033,12.242-27.051,20.676-35.485c9.903-9.903,22.182-14.679,35.513-13.799c13.002,0.854,25.963,7.126,36.497,17.66
				c1.053,1.053,2.052,2.137,3.019,3.237c-27.228,5.554-55.137,24.623-73.347,50.361
				C402.115,116.77,394.642,109.412,386.555,102.658z M436.513,166.775c-4.975-10.43-10.942-20.424-17.816-29.837
				c17.13-26.325,46.491-46.043,72.817-48.945c3.1,6.293,4.952,12.91,5.388,19.54c0.877,13.329-3.895,25.609-13.799,35.513
				C472.19,153.956,454.361,162.947,436.513,166.775z"/>
			<path d="M256.001,379.793c12.458,0,24.307-5.397,32.507-14.806c2.721-3.123,2.396-7.86-0.727-10.582
				c-3.124-2.721-7.861-2.397-10.582,0.727c-5.351,6.14-13.077,9.661-21.198,9.661c-8.121,0-15.848-3.522-21.198-9.661
				c-2.721-3.122-7.458-3.448-10.582-0.727c-3.122,2.722-3.448,7.459-0.727,10.582C231.694,374.396,243.542,379.793,256.001,379.793
				z"/>
			<path d="M382.053,259.459c0-12.442-10.122-22.564-22.564-22.564c-12.442,0-22.564,10.122-22.564,22.564
				c0,12.442,10.123,22.564,22.564,22.564C371.931,282.024,382.053,271.901,382.053,259.459z M351.925,259.459
				c0-4.171,3.394-7.564,7.564-7.564c4.17,0,7.564,3.393,7.564,7.564c0,4.171-3.393,7.564-7.564,7.564
				C355.318,267.023,351.925,263.63,351.925,259.459z"/>
			<path d="M152.511,282.024c12.442,0,22.564-10.122,22.564-22.564c0-12.442-10.123-22.564-22.564-22.564
				c-12.441,0-22.564,10.122-22.564,22.564C129.947,271.901,140.069,282.024,152.511,282.024z M152.511,251.895
				c4.171,0,7.564,3.393,7.564,7.564c0,4.171-3.394,7.564-7.564,7.564c-4.17,0-7.564-3.393-7.564-7.564
				C144.947,255.289,148.34,251.895,152.511,251.895z"/>
			<path d="M336.263,176.574v14.568c0,4.142,3.358,7.5,7.5,7.5s7.5-3.358,7.5-7.5v-14.568c0-4.142-3.358-7.5-7.5-7.5
				S336.263,172.432,336.263,176.574z"/>
			<path d="M160.737,176.574v14.568c0,4.142,3.358,7.5,7.5,7.5c4.142,0,7.5-3.358,7.5-7.5v-14.568c0-4.142-3.358-7.5-7.5-7.5
				C164.095,169.074,160.737,172.432,160.737,176.574z"/>
		</g>
	</g>
</g>
<g>
</g>
<g>
</g>
<g>
</g>
<g>
</g>
<g>
</g>
<g>
</g>
<g>
</g>
<g>
</g>
<g>
</g>
<g>
</g>
<g>
</g>
<g>
</g>
<g>
</g>
<g>
</g>
<g>
</g>
</svg>
