<?xml version="1.0" encoding="iso-8859-1"?>
<!-- Generator: Adobe Illustrator 19.0.0, SVG Export Plug-In . SVG Version: 6.00 Build 0)  -->
<svg version="1.1" id="Capa_1" xmlns="http://www.w3.org/2000/svg" xmlns:xlink="http://www.w3.org/1999/xlink" x="0px" y="0px"
	 viewBox="0 0 512.001 512.001" style="enable-background:new 0 0 512.001 512.001;" xml:space="preserve">
<g>
	<g>
		<g>
			<path d="M512,255.92c0-13.936-9.986-25.579-23.177-28.162c5.368-5.411,8.324-12.581,8.324-20.207
				c0-7.666-2.985-14.874-8.406-20.294c-4.997-4.997-11.632-7.967-18.684-8.361c-4.107-0.226-7.675,2.934-7.907,7.07
				c-0.231,4.135,2.934,7.676,7.069,7.907c3.363,0.188,6.529,1.605,8.915,3.991c2.588,2.588,4.013,6.029,4.013,9.688
				c0,3.66-1.425,7.1-4.014,9.688l-9.98,9.98h-38.75l16.76-16.76c2.929-2.929,2.929-7.678,0-10.606
				c-2.93-2.929-7.678-2.929-10.607,0l-27.367,27.367h-60.077c-1.74-5.557-3.981-10.935-6.687-16.071l64.1-64.088h23.959
				c15.826,0,28.701-12.875,28.701-28.701c0-15.826-12.875-28.701-28.701-28.701h-7.146v-7.146
				c0-15.826-12.875-28.701-28.701-28.701s-28.701,12.876-28.701,28.701v23.957l-64.107,64.096
				c-5.179-2.727-10.602-4.982-16.208-6.727v-59.866l39.995-39.996c11.189-11.191,11.189-29.399-0.001-40.59
				c-11.164-11.164-29.312-11.186-40.509-0.076C281.576,10.054,269.903,0,255.92,0c-13.964,0-25.625,10.028-28.176,23.259
				c-11.2-11.058-29.308-11.016-40.455,0.129c-11.189,11.19-11.188,29.398,0.001,40.589l39.93,39.929v59.982
				c-5.58,1.747-10.978,3.999-16.132,6.72l-63.994-64.006V82.643c0-15.826-12.875-28.701-28.701-28.701S89.691,66.817,89.691,82.643
				v7.146h-7.146c-15.826,0-28.701,12.876-28.701,28.701c0,15.826,12.875,28.701,28.701,28.701h23.956l64.03,64.041
				c-2.712,5.16-4.956,10.563-6.693,16.147h-59.96L64.01,187.511c-11.19-11.189-29.398-11.189-40.589,0.001
				c-11.126,11.127-11.184,29.189-0.184,40.395C10.016,230.467,0,242.123,0,256.08c0,14.011,10.094,25.702,23.391,28.201
				c-11.158,11.193-11.149,29.378,0.03,40.558c5.421,5.421,12.629,8.406,20.295,8.406s14.874-2.986,20.295-8.407l40.056-40.056
				h59.817c1.769,5.676,4.034,11.116,6.745,16.272l-63.992,63.981h-23.96c-15.826,0-28.701,12.875-28.701,28.701
				s12.875,28.701,28.701,28.701h7.146v7.146c0,15.826,12.875,28.701,28.7,28.701c3.592,0,7.099-0.657,10.424-1.954
				c3.859-1.505,5.768-5.853,4.263-9.712c-1.504-3.86-5.855-5.766-9.712-4.263c-1.581,0.617-3.255,0.929-4.975,0.929
				c-7.555,0-13.7-6.147-13.7-13.701v-14.646c0-4.142-3.357-7.5-7.5-7.5H82.677c-7.555,0-13.701-6.146-13.701-13.701
				s6.146-13.701,13.701-13.701h27.066c1.989,0,3.896-0.79,5.303-2.196l63.81-63.799c5.514,7.342,12.05,13.854,19.414,19.339
				l-63.848,63.836c-1.407,1.406-2.197,3.314-2.197,5.304v18.669c0,4.142,3.357,7.5,7.5,7.5s7.5-3.358,7.5-7.5v-15.562
				l64.081-64.069c5.099,2.654,10.471,4.876,16.074,6.611v60.115l-39.835,39.836c-11.189,11.191-11.189,29.399,0.001,40.589
				c5.421,5.421,12.629,8.406,20.295,8.406c7.572,0,14.694-2.917,20.092-8.213c2.613,13.153,14.239,23.1,28.148,23.1
				c13.982,0,25.654-10.053,28.185-23.31l0.017,0.017c5.595,5.595,12.944,8.392,20.294,8.392c7.35,0,14.699-2.797,20.294-8.393
				c5.422-5.421,8.407-12.628,8.407-20.295c-0.001-7.666-2.986-14.874-8.407-20.294l-40.09-40.09v-59.915
				c5.595-1.752,11.008-4.013,16.175-6.744l64.112,64.124v23.96c0,15.826,12.875,28.701,28.7,28.701
				c15.826,0,28.701-12.875,28.701-28.701v-7.146h7.147c15.825,0,28.7-12.876,28.7-28.701c0-15.826-12.875-28.701-28.7-28.701
				h-23.957l-64.167-64.179c2.702-5.147,4.937-10.536,6.669-16.104h60.027l39.962,39.962c5.596,5.595,12.944,8.392,20.294,8.392
				c7.35,0,14.7-2.798,20.294-8.393c5.422-5.421,8.407-12.628,8.407-20.294c0-7.625-2.956-14.795-8.321-20.206
				C502.015,281.498,512,269.855,512,255.92z M284.621,44.006l10.011-10.012c5.342-5.341,14.035-5.343,19.377,0
				c5.343,5.342,5.342,14.034,0,19.376l-29.388,29.388V44.006z M227.38,468.248l-9.852,9.852c-5.342,5.342-14.033,5.342-19.375,0
				c-5.342-5.342-5.343-14.034-0.001-19.376l29.228-29.228V468.248z M284.782,429.242l29.483,29.482
				c2.588,2.588,4.014,6.029,4.014,9.689c0,3.66-1.425,7.1-4.014,9.688c-5.339,5.342-14.032,5.343-19.375,0l-10.108-10.108V429.242z
				 M377.739,114.88c1.407-1.407,2.197-3.315,2.197-5.304V82.512c0-7.555,6.147-13.701,13.701-13.701
				c7.555,0,13.701,6.147,13.701,13.701v14.646c0,4.142,3.357,7.5,7.5,7.5h14.646c7.555,0,13.701,6.146,13.701,13.701
				s-6.146,13.701-13.701,13.701h-27.065c-1.989,0-3.896,0.79-5.303,2.196l-63.923,63.911c-2.756-3.67-5.774-7.16-9.051-10.432
				c-3.242-3.236-6.698-6.217-10.329-8.942L377.739,114.88z M197.898,53.371c-5.343-5.342-5.343-14.035-0.002-19.376
				c5.342-5.341,14.035-5.343,19.377,0l9.947,9.947v38.751L197.898,53.371z M114.913,134.388c-1.406-1.407-3.314-2.197-5.304-2.197
				H82.546c-7.555,0-13.701-6.146-13.701-13.701s6.146-13.701,13.701-13.701h14.646c4.143,0,7.5-3.358,7.5-7.5V82.643
				c0-7.555,6.146-13.701,13.701-13.701s13.701,6.146,13.701,13.701v27.066c0,1.989,0.79,3.897,2.196,5.303l63.825,63.836
				c-3.65,2.745-7.123,5.749-10.378,9.01c-3.252,3.258-6.247,6.732-8.983,10.382L114.913,134.388z M34.028,198.119
				c5.341-5.341,14.034-5.342,19.375-0.001l29.262,29.261H43.912l-9.884-9.884C28.687,212.153,28.687,203.461,34.028,198.119z
				 M53.403,314.231c-2.588,2.588-6.028,4.013-9.688,4.013c-3.66,0-7.101-1.425-9.688-4.012c-5.342-5.342-5.342-14.034,0-19.376
				l10.074-10.074h38.75L53.403,314.231z M397.248,377.706c1.406,1.407,3.315,2.197,5.304,2.197h27.064
				c7.555,0,13.7,6.146,13.7,13.701s-6.146,13.701-13.7,13.701H414.97c-4.143,0-7.5,3.358-7.5,7.5v14.646
				c0,7.555-6.146,13.701-13.701,13.701s-13.7-6.146-13.7-13.701v-27.066c0-1.989-0.79-3.897-2.196-5.303l-63.948-63.959
				c3.636-2.737,7.097-5.732,10.341-8.982c3.263-3.269,6.267-6.755,9.011-10.42L397.248,377.706z M478.133,313.976
				c-5.34,5.342-14.031,5.341-19.375,0l-29.355-29.355h38.752l9.979,9.978c2.588,2.588,4.013,6.028,4.013,9.688
				C482.147,307.946,480.722,311.387,478.133,313.976z M483.299,269.621h-11.38c-0.46-0.042-0.922-0.042-1.381,0H411.96
				c-0.464-0.043-0.931-0.043-1.395,0h-68.101c-3.456,0-6.466,2.362-7.286,5.72c-7.121,29.15-30.551,52.624-59.69,59.801
				c-3.351,0.825-5.706,3.831-5.706,7.282v140.875c0,7.555-6.146,13.701-13.7,13.701c-7.555,0-13.701-6.147-13.701-13.701v-10.577
				c0.208-1.007,0.208-2.046,0-3.053v-56.913c0.208-1.007,0.208-2.047,0-3.054v-67.238c0-3.457-2.362-6.465-5.72-7.286
				c-29.15-7.122-52.624-30.552-59.802-59.69c-0.825-3.351-3.831-5.706-7.282-5.706H28.701c-7.555,0-13.701-6.146-13.701-13.701
				s6.146-13.701,13.701-13.701h10.867c0.901,0.166,1.827,0.166,2.728,0h57.239c0.451,0.083,0.907,0.127,1.364,0.127
				c0.457,0,0.913-0.044,1.364-0.127h67.274c3.456,0,6.465-2.362,7.286-5.72c7.122-29.151,30.552-52.625,59.691-59.801
				c3.351-0.825,5.706-3.831,5.706-7.282V28.701c0-7.555,6.146-13.701,13.7-13.701c7.554,0,13.701,6.147,13.701,13.701v140.836
				c0,3.457,2.362,6.465,5.72,7.286c29.151,7.122,52.625,30.552,59.802,59.689c0.825,3.351,3.831,5.706,7.282,5.706h140.874
				c7.555,0,13.701,6.146,13.701,13.701C497,263.474,490.853,269.621,483.299,269.621z"/>
			<path d="M256,201.9c-29.831,0-54.1,24.269-54.1,54.1s24.268,54.1,54.1,54.1c29.832,0,54.101-24.269,54.101-54.1
				S285.831,201.9,256,201.9z M256,295.1c-21.56,0-39.1-17.54-39.1-39.1s17.54-39.1,39.1-39.1s39.101,17.54,39.101,39.1
				S277.56,295.1,256,295.1z"/>
		</g>
	</g>
</g>
<g>
</g>
<g>
</g>
<g>
</g>
<g>
</g>
<g>
</g>
<g>
</g>
<g>
</g>
<g>
</g>
<g>
</g>
<g>
</g>
<g>
</g>
<g>
</g>
<g>
</g>
<g>
</g>
<g>
</g>
</svg>
