<?xml version="1.0" encoding="iso-8859-1"?>
<!-- Generator: Adobe Illustrator 19.0.0, SVG Export Plug-In . SVG Version: 6.00 Build 0)  -->
<svg version="1.1" id="Capa_1" xmlns="http://www.w3.org/2000/svg" xmlns:xlink="http://www.w3.org/1999/xlink" x="0px" y="0px"
	 viewBox="0 0 511.998 511.998" style="enable-background:new 0 0 511.998 511.998;" xml:space="preserve">
<g>
	<g>
		<g>
			<path d="M297.271,448.658c-0.274-4.134-3.875-7.264-7.982-6.985c-4.134,0.275-7.261,3.849-6.985,7.982l1.694,25.438
				c0.264,3.963,3.561,7.002,7.476,7.002c0.168,0,0.337-0.006,0.506-0.017c4.134-0.275,7.261-3.849,6.985-7.982L297.271,448.658z"/>
			<path d="M435.002,294.52c-2.888-4.78-6.093-9.372-9.56-13.71c10.189-17.502,13.304-40.272,7.852-64.102
				c-0.925-4.037-4.94-6.562-8.984-5.638c-4.038,0.924-6.563,4.946-5.639,8.984c4.956,21.659,1.649,42.073-8.385,56.655
				c-0.202,0.253-0.39,0.513-0.555,0.785c-3.928,5.491-8.827,10.125-14.629,13.63c-21.197,12.81-50.137,8.072-73.728-12.065
				c-3.34-2.851-7.598-4.214-11.959-3.838c-4.42,0.378-8.423,2.475-11.273,5.905c-11.507,13.851-26.475,21.478-42.148,21.478
				c-15.672,0-30.641-7.628-42.148-21.478c-2.85-3.429-6.853-5.526-11.272-5.904c-4.365-0.375-8.619,0.988-11.959,3.839
				c-23.589,20.137-52.529,24.872-73.728,12.064c-6.048-3.655-11.052-8.497-15.007-14.19c-0.023-0.031-0.044-0.064-0.067-0.095
				c-15.055-21.77-14.612-56.103,3.367-85.857c6.405-10.599,14.385-19.635,23.766-26.904c3.681,4.347,7.996,8.054,12.858,10.992
				c8.221,4.967,17.514,7.398,27.134,7.397c15.06-0.001,30.915-5.962,44.663-17.479c0.003,0.001,0.07-0.02,0.145,0.065
				c11.387,13.405,26.392,20.788,42.25,20.788c15.858,0,30.863-7.382,42.252-20.788c0.071-0.084,0.139-0.066,0.158-0.053
				c22.515,18.861,50.69,22.813,71.781,10.069c4.863-2.938,9.179-6.646,12.86-10.994c9.354,7.24,17.349,16.291,23.764,26.906
				c1.409,2.332,3.887,3.622,6.426,3.622c1.321,0,2.659-0.349,3.872-1.082c3.545-2.142,4.683-6.752,2.54-10.298
				c-7.397-12.241-16.655-22.7-27.469-31.048c-0.342-0.268-0.693-0.539-1.042-0.81c1.998-4.27,3.556-8.866,4.607-13.739
				c4.236-19.635-0.234-40.931-12.264-58.428c-18.108-26.338-39.509-46.734-63.604-60.62C298.785,6.424,276.696,0,255.995,0
				s-42.79,6.424-63.881,18.578c-24.096,13.886-45.496,34.281-63.604,60.62c-12.029,17.497-16.5,38.793-12.264,58.428
				c1.051,4.873,2.608,9.469,4.606,13.738c-0.334,0.258-0.67,0.518-0.995,0.773c-10.862,8.388-20.12,18.847-27.516,31.087
				c-19.893,32.921-21.014,70.982-5.729,97.502c-3.493,4.362-6.719,8.984-9.625,13.794c-11.56,19.132-17.697,40.263-17.749,61.109
				c-0.05,20.534,6.08,39.668,17.262,53.877c1.479,1.88,3.678,2.862,5.898,2.862c1.623,0,3.259-0.525,4.633-1.607
				c3.256-2.561,3.817-7.277,1.256-10.532c-19.199-24.398-18.567-64.678,1.538-97.952c1.879-3.109,3.921-6.117,6.081-9.021
				c3.868,4.094,8.267,7.71,13.223,10.705c26.824,16.209,62.632,10.912,91.224-13.494c0.271-0.23,0.588-0.338,0.94-0.302
				c0.227,0.019,0.658,0.116,1.016,0.545c14.408,17.342,33.475,26.892,53.686,26.892c20.212,0,39.278-9.55,53.686-26.892
				c0.357-0.43,0.789-0.527,1.016-0.546c0.351-0.037,0.671,0.072,0.94,0.302c28.591,24.407,64.398,29.704,91.224,13.494
				c4.933-2.981,9.358-6.572,13.251-10.668c2.15,2.893,4.182,5.888,6.053,8.984c12.342,20.425,17.631,43.361,14.893,64.583
				c-2.655,20.582-12.597,37.041-27.993,46.344c-22.946,13.865-54.452,9.137-80.263-12.042c-1.705-1.399-3.599-2.436-5.581-3.16
				c-0.426-0.188-0.871-0.339-1.332-0.445c-7.113-2.027-15.154,0.055-20.28,5.939c-12.594,14.453-28.794,22.413-45.614,22.413
				s-33.021-7.96-45.614-22.413c-5.105-5.859-13.099-7.946-20.19-5.961c-0.562,0.119-1.103,0.295-1.611,0.533
				c-1.913,0.721-3.74,1.739-5.391,3.093c-22.516,18.476-50.094,24.656-71.968,16.128c-3.861-1.506-8.208,0.404-9.712,4.264
				c-1.505,3.859,0.404,8.207,4.263,9.712c23.895,9.316,52.819,4.764,77.692-11.695l-3.475,64.049
				c-0.404,7.457,2.201,14.55,7.337,19.972s12.077,8.408,19.545,8.408h98.25c7.469,0,14.41-2.986,19.546-8.408
				s7.741-12.515,7.337-19.972l-3.475-64.029c28.952,19.232,62.619,21.965,88.294,6.451c19.39-11.716,31.859-32.052,35.112-57.263
				C455.104,344.208,449.091,317.836,435.002,294.52z M140.871,87.695c16.83-24.479,36.591-43.361,58.732-56.121
				C218.419,20.731,237.919,15,255.995,15c18.076,0,37.575,5.731,56.392,16.574c22.142,12.76,41.902,31.642,58.732,56.121
				c9.7,14.107,13.331,31.153,9.963,46.767c-1.195,5.539-3.214,10.585-5.93,14.982c-0.063,0.099-0.13,0.195-0.188,0.296
				c-3.259,5.18-7.493,9.444-12.535,12.49c-15.518,9.375-36.868,5.951-54.391-8.729c-6.334-5.307-15.855-4.482-21.224,1.84
				c-8.49,9.995-19.435,15.499-30.819,15.499c-11.384,0-22.328-5.504-30.818-15.499c-2.992-3.522-7.271-5.337-11.572-5.337
				c-3.417,0-6.848,1.148-9.652,3.498c-17.523,14.68-38.874,18.105-54.391,8.729c-5.039-3.045-9.273-7.305-12.53-12.482
				c-0.067-0.117-0.145-0.231-0.219-0.345c-2.702-4.388-4.712-9.42-5.904-14.941C127.539,118.849,131.17,101.803,140.871,87.695z
				 M313.775,493.276c-2.274,2.401-5.348,3.724-8.655,3.724h-98.25c-3.307,0-6.381-1.322-8.654-3.723
				c-2.274-2.401-3.429-5.542-3.249-8.844l3.869-71.304c0.077,0.077,0.164,0.139,0.237,0.223
				c5.846,6.709,12.368,12.279,19.362,16.615l-1.864,23.857c-0.322,4.13,2.764,7.739,6.894,8.062
				c0.198,0.016,0.396,0.023,0.592,0.023c3.877,0,7.162-2.985,7.47-6.917l1.41-18.05c7.42,2.613,15.17,3.968,23.059,3.968
				c21.222,0,41.437-9.787,56.923-27.559c0.073-0.083,0.16-0.146,0.237-0.223l3.87,71.304
				C317.204,487.735,316.049,490.875,313.775,493.276z"/>
		</g>
	</g>
</g>
<g>
</g>
<g>
</g>
<g>
</g>
<g>
</g>
<g>
</g>
<g>
</g>
<g>
</g>
<g>
</g>
<g>
</g>
<g>
</g>
<g>
</g>
<g>
</g>
<g>
</g>
<g>
</g>
<g>
</g>
</svg>
