<?xml version="1.0" encoding="iso-8859-1"?>
<!-- Generator: Adobe Illustrator 19.0.0, SVG Export Plug-In . SVG Version: 6.00 Build 0)  -->
<svg version="1.1" id="Capa_1" xmlns="http://www.w3.org/2000/svg" xmlns:xlink="http://www.w3.org/1999/xlink" x="0px" y="0px"
	 viewBox="0 0 512.001 512.001" style="enable-background:new 0 0 512.001 512.001;" xml:space="preserve">
<g>
	<g>
		<g>
			<path d="M340.566,368.602c-4.142,0-7.5,3.358-7.5,7.5v18.264c0,4.142,3.358,7.5,7.5,7.5s7.5-3.358,7.5-7.5v-18.264
				C348.066,371.96,344.708,368.602,340.566,368.602z"/>
			<path d="M355.054,221.3c-4.783-5.679-16.393-15.205-40.407-15.205c-24.013,0-35.623,9.526-40.406,15.205
				c-4.596,5.456-9.533,15.105-6.95,30.092c1.95,11.307,9.404,27.838,33.847,42.373c4.167,2.478,8.837,3.717,13.509,3.717
				c4.671,0,9.343-1.239,13.509-3.717c24.443-14.536,31.898-31.066,33.847-42.373C364.586,236.407,359.65,226.757,355.054,221.3z
				 M347.221,248.844c-2.696,15.638-17.905,26.78-26.731,32.028c-3.603,2.143-8.08,2.144-11.684,0
				c-8.826-5.249-24.036-16.389-26.732-32.028c-1.306-7.573-0.115-13.421,3.64-17.879c5.283-6.271,15.829-9.868,28.934-9.868
				c13.105,0,23.651,3.597,28.935,9.868C347.336,235.423,348.527,241.271,347.221,248.844z"/>
			<path d="M373.983,350.725v-18.264c0-4.142-3.358-7.5-7.5-7.5s-7.5,3.358-7.5,7.5v18.264c0,4.142,3.358,7.5,7.5,7.5
				S373.983,354.867,373.983,350.725z"/>
			<path d="M307.147,332.461v18.264c0,4.142,3.358,7.5,7.5,7.5c4.142,0,7.5-3.358,7.5-7.5v-18.264c0-4.142-3.358-7.5-7.5-7.5
				C310.505,324.961,307.147,328.319,307.147,332.461z"/>
			<path d="M482.69,310.319c2.678-12.63,4.049-25.519,4.049-38.483c0-54.241-23.25-105.195-65.467-143.473
				c-42.011-38.092-97.819-59.07-157.144-59.07c-26.189,0-52.202,4.246-76.632,12.369c-13.279-5.718-25.803-13.237-37.24-22.422
				c-22.316-17.918-33.733-36.527-36.701-41.805C104.305,0.99,83.398-4.861,66.95,4.388c-16.445,9.252-22.299,30.16-13.047,46.606
				c4.696,8.347,17.533,28.901,40.617,50.438c-16.296-1.488-30.867-5.367-42.557-11.371c-16.864-8.66-37.61-2.096-46.248,14.635
				c-4.194,8.123-4.974,17.393-2.195,26.103c2.779,8.709,8.783,15.814,16.906,20.008c15.712,8.11,33.365,13.779,52.608,16.923
				c-20.44,30.989-31.516,66.747-31.516,104.105c0,10.193,0.85,20.422,2.517,30.481c-9.286,7.176-15.283,18.412-15.283,31.03
				c0,4.898,0.896,9.672,2.629,14.143c-17.539,7.535-29.488,25.038-29.488,44.714c0,26.817,21.816,48.634,48.634,48.634h81.606
				c2.861,0,5.678-0.182,8.454-0.502c15.521,9.44,32.122,16.996,49.471,22.566c-2.903,4.944-4.455,10.588-4.455,16.473
				c0,8.714,3.394,16.908,9.556,23.071c6.36,6.36,14.715,9.541,23.071,9.541s16.709-3.18,23.07-9.541l7.467-7.467
				c1.481,2.72,3.349,5.239,5.578,7.467c6.162,6.162,14.355,9.556,23.07,9.556c8.714,0,16.907-3.394,23.07-9.556l31.093-31.093
				c2.451-2.451,4.455-5.224,6.001-8.267c2.485-0.79,4.962-1.609,7.421-2.482c3.903-1.385,5.945-5.673,4.56-9.577
				c-1.386-3.903-5.673-5.944-9.577-4.56c-23.477,8.331-48.252,12.656-73.671,12.891c-0.026,0-0.053,0.001-0.079,0.001
				c-0.702,0.006-1.402,0.022-2.105,0.022c-20.086,0-39.809-2.582-58.702-7.604c-0.173-0.055-0.348-0.101-0.525-0.143
				c-15.152-4.068-29.766-9.711-43.6-16.86c25.971-11.302,44.181-37.201,44.181-67.284c0-40.444-32.904-73.349-73.349-73.349H67.958
				c-3.384,0-6.668,0.431-9.803,1.241c-1.081-7.797-1.636-15.682-1.636-23.546c0-37.928,12.443-74.111,35.223-104.636
				c0.428-0.435,0.802-0.923,1.115-1.454c11.644-15.288,25.888-29.134,42.497-41.016c3.369-2.41,4.146-7.095,1.736-10.463
				c-2.41-3.369-7.095-4.146-10.463-1.736c-16.894,12.087-31.539,26.064-43.689,41.476c-20.632-2.562-39.328-8.115-55.631-16.529
				c-4.563-2.355-7.935-6.346-9.496-11.238c-1.561-4.892-1.123-10.098,1.232-14.661c4.852-9.397,16.545-13.065,26.066-8.174
				c16.062,8.25,35.658,12.826,58.242,13.603c5.047,0.163,9.475-2.748,11.31-7.442c1.835-4.697,0.553-9.858-3.269-13.148
				C84.895,73.602,70.697,50.252,66.976,43.639c-5.196-9.237-1.909-20.981,7.328-26.177c9.238-5.196,20.98-1.909,26.178,7.328
				c3.301,5.869,15.969,26.544,40.383,46.147c8.597,6.903,17.762,12.944,27.37,18.087c-3.187,1.383-6.349,2.815-9.46,4.338
				c-3.72,1.821-5.26,6.313-3.438,10.034c1.822,3.721,6.315,5.26,10.034,3.438c30.122-14.746,64.271-22.543,98.758-22.543
				c114.477,0,207.609,84.132,207.609,187.543c0,32.522-9.36,64.56-27.071,92.651c-17.242,27.352-42.04,50.548-71.71,67.084
				c-3.618,2.017-4.917,6.584-2.9,10.202c1.372,2.462,3.926,3.851,6.558,3.851c1.235,0,2.488-0.306,3.644-0.95
				c2.228-1.241,4.423-2.527,6.599-3.837h49.91c40.444,0,73.349-32.904,73.349-73.349
				C510.118,345.206,499.949,324.198,482.69,310.319z M269.421,474.324c14.443-0.305,28.685-1.869,42.624-4.652l-22.166,22.166
				c-3.329,3.329-7.755,5.162-12.463,5.162s-9.134-1.833-12.463-5.163c-2.321-2.32-3.925-5.219-4.675-8.369L269.421,474.324z
				 M205.443,467.267c14.049,3.483,28.504,5.705,43.198,6.623l-17.947,17.948c-3.329,3.329-7.755,5.162-12.463,5.162
				c-4.708,0-9.134-1.833-12.463-5.163c-3.329-3.33-5.163-7.755-5.163-12.463C200.604,474.827,202.328,470.553,205.443,467.267z
				 M67.958,309.141h62.628c0.97,0.204,2.035,0.21,3.009,0.018c31.501,0.779,56.887,26.646,56.887,58.33
				c0,32.173-26.175,58.348-58.348,58.348H50.529c-18.545,0-33.634-15.087-33.634-33.634c0-15.688,10.978-29.369,26.198-32.801
				h37.04c4.142,0,7.5-3.358,7.5-7.5s-3.358-7.5-7.5-7.5H46.432c-1.756-3.402-2.677-7.164-2.677-11.056
				C43.754,320,54.612,309.141,67.958,309.141z M436.77,425.837h-28.049c19.386-15.089,35.909-33.16,48.636-53.349
				c9.098-14.432,16.163-29.833,21.084-45.8c10.58,10.814,16.675,25.426,16.675,40.801
				C495.117,399.663,468.943,425.837,436.77,425.837z"/>
			<path d="M381.57,210.095c0-5.308,4.319-9.627,9.627-9.627c5.308,0,9.626,4.319,9.626,9.627c0,4.142,3.358,7.5,7.5,7.5
				s7.5-3.358,7.5-7.5c0-13.579-11.047-24.628-24.627-24.628c-13.58,0-24.628,11.048-24.628,24.628c0,4.142,3.358,7.5,7.5,7.5
				S381.57,214.237,381.57,210.095z"/>
			<path d="M262.726,210.095c0-13.579-11.047-24.628-24.627-24.628s-24.628,11.048-24.628,24.628c0,4.142,3.358,7.5,7.5,7.5
				s7.5-3.358,7.5-7.5c0-5.308,4.319-9.627,9.627-9.627s9.626,4.319,9.626,9.627c0,4.142,3.358,7.5,7.5,7.5
				C259.368,217.595,262.726,214.237,262.726,210.095z"/>
			<path d="M281.229,376.102v18.264c0,4.142,3.358,7.5,7.5,7.5s7.5-3.358,7.5-7.5v-18.264c0-4.142-3.358-7.5-7.5-7.5
				S281.229,371.96,281.229,376.102z"/>
			<path d="M262.811,358.225c4.142,0,7.5-3.358,7.5-7.5v-18.264c0-4.142-3.358-7.5-7.5-7.5s-7.5,3.358-7.5,7.5v18.264
				C255.311,354.867,258.669,358.225,262.811,358.225z"/>
		</g>
	</g>
</g>
<g>
</g>
<g>
</g>
<g>
</g>
<g>
</g>
<g>
</g>
<g>
</g>
<g>
</g>
<g>
</g>
<g>
</g>
<g>
</g>
<g>
</g>
<g>
</g>
<g>
</g>
<g>
</g>
<g>
</g>
</svg>
