<?xml version="1.0" encoding="iso-8859-1"?>
<!-- Generator: Adobe Illustrator 19.0.0, SVG Export Plug-In . SVG Version: 6.00 Build 0)  -->
<svg version="1.1" id="Capa_1" xmlns="http://www.w3.org/2000/svg" xmlns:xlink="http://www.w3.org/1999/xlink" x="0px" y="0px"
	 viewBox="0 0 512 512" style="enable-background:new 0 0 512 512;" xml:space="preserve">
<g>
	<g>
		<g>
			<path d="M135.064,421.722c-32.042-20.398-48.289-52.543-48.289-95.542c0-37.194,12.084-72.017,34.386-100.132
				c0.006-0.008,0.012-0.015,0.018-0.023c4.586-5.779,9.594-11.282,15.028-16.455c2.14-2.037,4.335-4.007,6.573-5.919
				c0.043-0.033,0.081-0.07,0.123-0.104c30.759-26.223,70.562-40.571,113.096-40.571c10.505,0,20.831,0.869,30.899,2.574
				c0.319,0.074,0.642,0.135,0.973,0.168c2.605,0.456,5.19,0.972,7.758,1.54c0.345,0.105,0.693,0.178,1.041,0.232
				c22.613,5.145,43.734,14.629,62.382,28.154c3.351,2.431,8.042,1.686,10.475-1.668c2.432-3.353,1.686-8.042-1.668-10.475
				c-17.29-12.54-36.515-21.884-57.014-27.836c3.627-2.416,7.879-3.306,10.911-2.241c3.913,1.373,8.188-0.683,9.561-4.593
				c1.371-3.908-0.685-8.188-4.593-9.561c-10.09-3.542-22.211,0.494-30.003,8.902c2.054-9.367,8.489-15.828,18.771-18.55
				c4.005-1.06,6.392-5.165,5.331-9.17c-1.06-4.003-5.162-6.39-9.169-5.331c-17.583,4.654-28.467,17.24-30.358,34.443
				c-8.302-1.05-16.746-1.589-25.298-1.589c-42.948,0-83.382,13.541-115.771,38.444c-11.382-21.328-10.824-38.076-8.061-48.759
				c5.511-21.306,24.671-38.068,47.679-41.712c20.655-3.274,39.177,5.333,50.818,23.609c7.003,10.992,21.646,14.239,32.637,7.237
				c10.992-7.002,14.24-21.642,7.238-32.638c-21.899-34.376-58.569-51.162-98.089-44.903c-41.318,6.543-75.901,37.314-86.055,76.57
				c-5.614,21.71-6.544,55.571,19.591,95.352c-1.038,1.399-2.06,2.808-3.053,4.235c-9.843-4.724-20.707-7.2-31.811-7.2
				C31.905,218.21,0,248.765,0,286.321c0,37.556,31.905,68.11,71.123,68.11c0.993,0,1.991-0.026,2.99-0.067
				c6.026,34.602,23.736,61.448,52.897,80.011c1.248,0.795,2.642,1.174,4.021,1.174c2.479,0,4.904-1.228,6.334-3.473
				C139.588,428.582,138.559,423.946,135.064,421.722z M100.918,129.578c8.681-33.56,38.37-59.886,73.879-65.51
				c33.436-5.297,64.5,8.964,83.092,38.146c2.559,4.019,1.372,9.37-2.646,11.929c-4.019,2.559-9.368,1.372-11.927-2.645
				c-14.999-23.548-38.99-34.615-65.816-30.365c-28.817,4.563-52.87,25.771-59.854,52.771c-3.574,13.814-4.357,35.519,10.866,62.342
				c-0.888,0.812-1.774,1.627-2.647,2.458c-3.453,3.288-6.746,6.698-9.889,10.214C95.464,175.488,96.258,147.6,100.918,129.578z
				 M43.142,284.105c1.373,1.076,3.004,1.598,4.623,1.598c2.225,0,4.428-0.986,5.907-2.873c5.812-7.414,15.982-10.911,25.922-9.427
				c-5.149,16.788-7.819,34.522-7.819,52.776c0,4.516,0.162,8.926,0.485,13.231c-0.379,0.007-0.759,0.02-1.137,0.02
				C40.177,339.43,15,315.605,15,286.32c0-29.285,25.177-53.11,56.123-53.11c8.254,0,16.329,1.714,23.726,4.989
				c-3.854,6.726-7.244,13.699-10.158,20.885c-16.138-3.537-32.964,1.914-42.823,14.491
				C39.312,276.835,39.883,281.55,43.142,284.105z"/>
			<path d="M327.9,321.801c4.143,0,7.5-3.358,7.5-7.5v-12.136c0-4.142-3.357-7.5-7.5-7.5s-7.5,3.358-7.5,7.5v12.136
				C320.4,318.443,323.758,321.801,327.9,321.801z"/>
			<path d="M184.1,294.665c-4.143,0-7.5,3.358-7.5,7.5v12.136c0,4.142,3.357,7.5,7.5,7.5s7.5-3.358,7.5-7.5v-12.136
				C191.6,298.023,188.242,294.665,184.1,294.665z"/>
			<path d="M440.877,218.21c-11.098,0-21.956,2.472-31.795,7.191c-4.045-5.784-8.464-11.368-13.265-16.722
				c-2.765-3.084-7.507-3.343-10.591-0.577c-3.084,2.765-3.343,7.507-0.577,10.591c5.685,6.34,10.79,13.029,15.313,20.024
				c0.079,0.152,0.155,0.305,0.246,0.453c0.153,0.25,0.321,0.485,0.497,0.711c6.03,9.51,10.978,19.579,14.812,30.109
				c0.086,0.364,0.19,0.728,0.334,1.086c0.087,0.217,0.186,0.427,0.291,0.631c6.002,17.104,9.082,35.399,9.082,54.473
				c0,42.999-16.247,75.145-48.289,95.542c-28.471,18.124-69.159,27.314-120.935,27.314c-35.996,0-66.925-4.507-91.926-13.396
				c-3.905-1.386-8.192,0.651-9.579,4.555c-1.388,3.903,0.651,8.191,4.554,9.579c26.619,9.463,59.238,14.262,96.951,14.262
				c54.675,0,98.073-9.979,128.99-29.661c29.16-18.563,46.869-45.409,52.896-80.011c1,0.041,1.998,0.067,2.991,0.067
				c39.218,0,71.123-30.554,71.123-68.11C512,248.765,480.095,218.21,440.877,218.21z M440.877,339.431
				c-0.378,0-0.758-0.013-1.138-0.02c0.322-4.305,0.485-8.716,0.485-13.231c0-18.352-2.622-36.048-7.736-52.785
				c9.914-1.452,20.044,2.041,25.841,9.435c1.479,1.887,3.682,2.873,5.907,2.873c1.619,0,3.25-0.522,4.623-1.598
				c3.259-2.556,3.83-7.27,1.274-10.53c-9.84-12.551-26.62-18.003-42.725-14.512c-2.915-7.181-6.318-14.154-10.197-20.892
				c7.38-3.258,15.436-4.962,23.666-4.962c30.946,0,56.123,23.825,56.123,53.11C497,315.606,471.823,339.431,440.877,339.431z"/>
			<path d="M283.984,323.587v-14.893c0-7.219-5.873-13.092-13.092-13.092h-29.785c-7.219,0-13.092,5.873-13.092,13.092v14.893
				c0,15.431,12.554,27.984,27.984,27.984S283.984,339.018,283.984,323.587z M268.985,323.587c0,7.16-5.825,12.984-12.984,12.984
				c-7.16,0-12.985-5.824-12.985-12.984v-12.984h25.969V323.587z"/>
			<path d="M358.827,395.909c26.314-18.786,40.222-46.337,40.222-79.677c0-54.434-44.957-98.718-100.218-98.718
				c-14.778,0-29.504,3.266-42.831,9.474c-13.327-6.208-28.053-9.474-42.831-9.474c-55.261,0-100.218,44.285-100.218,98.718
				c0,33.34,13.908,60.892,40.222,79.677c24.937,17.802,60.493,27.212,102.827,27.212S333.891,413.711,358.827,395.909z
				 M127.951,316.231c0-46.163,38.229-83.718,85.218-83.718c13.88,0,27.138,3.194,39.405,9.494c2.15,1.105,4.701,1.105,6.852,0
				c12.268-6.3,25.525-9.494,39.405-9.494c46.989,0,85.218,37.556,85.218,83.718c0,57.539-47.869,91.89-128.049,91.89
				S127.951,373.77,127.951,316.231z"/>
		</g>
	</g>
</g>
<g>
</g>
<g>
</g>
<g>
</g>
<g>
</g>
<g>
</g>
<g>
</g>
<g>
</g>
<g>
</g>
<g>
</g>
<g>
</g>
<g>
</g>
<g>
</g>
<g>
</g>
<g>
</g>
<g>
</g>
</svg>
