<?xml version="1.0" encoding="iso-8859-1"?>
<!-- Generator: Adobe Illustrator 19.0.0, SVG Export Plug-In . SVG Version: 6.00 Build 0)  -->
<svg version="1.1" id="Capa_1" xmlns="http://www.w3.org/2000/svg" xmlns:xlink="http://www.w3.org/1999/xlink" x="0px" y="0px"
	 viewBox="0 0 511.999 511.999" style="enable-background:new 0 0 511.999 511.999;" xml:space="preserve">
<g>
	<g>
		<g>
			<path d="M165.351,221.763c13.222,0,23.98-10.757,23.98-23.981s-10.757-23.981-23.98-23.981
				c-13.223,0-23.981,10.757-23.981,23.981C141.371,211.006,152.128,221.763,165.351,221.763z M165.351,188.802
				c4.951,0,8.979,4.028,8.979,8.98c0,4.951-4.028,8.98-8.979,8.98c-4.951,0-8.98-4.028-8.98-8.98
				C156.371,192.831,160.399,188.802,165.351,188.802z"/>
			<path d="M386.671,261.108c0,13.222,10.758,23.98,23.981,23.98c13.223,0,23.98-10.757,23.98-23.98
				c0-13.223-10.757-23.981-23.98-23.981C397.429,237.128,386.671,247.885,386.671,261.108z M419.632,261.108
				c0,4.951-4.028,8.979-8.979,8.979c-4.952,0-8.98-4.028-8.98-8.979s4.028-8.98,8.98-8.98
				C415.604,252.128,419.632,256.157,419.632,261.108z"/>
			<path d="M467.285,174.656c-6.257-17.14-27.78-25.085-47.978-17.713c-20.199,7.373-31.542,27.315-25.285,44.456
				c3.133,8.583,10.046,15.102,19.469,18.353c4.14,1.429,8.553,2.141,13.051,2.141c5.137,0,10.384-0.93,15.459-2.781
				C462.199,211.738,473.542,191.795,467.285,174.656z M418.384,205.572c-5.069-1.75-8.717-5.058-10.271-9.316
				c-3.42-9.37,3.909-20.684,16.339-25.221c3.506-1.28,7.048-1.886,10.405-1.886c8.543,0,15.882,3.924,18.338,10.65
				c3.42,9.37-3.909,20.684-16.338,25.221C430.566,207.317,424.005,207.512,418.384,205.572z"/>
			<path d="M98.51,219.751c9.421-3.251,16.337-9.769,19.469-18.353c3.133-8.583,2.044-18.023-3.067-26.579
				c-4.811-8.054-12.701-14.403-22.217-17.877c-20.199-7.372-41.722,0.572-47.979,17.713c-3.133,8.583-2.044,18.023,3.067,26.579
				c4.811,8.054,12.701,14.403,22.217,17.877c5.074,1.852,10.32,2.781,15.458,2.781C89.957,221.892,94.37,221.18,98.51,219.751z
				 M75.144,205.02c-6.289-2.296-11.433-6.372-14.483-11.477c-2.75-4.604-3.409-9.484-1.854-13.742
				c2.456-6.727,9.792-10.65,18.337-10.65c3.356,0,6.9,0.606,10.406,1.886c6.29,2.296,11.433,6.372,14.484,11.478
				c2.75,4.604,3.408,9.484,1.854,13.742c-1.554,4.258-5.202,7.567-10.271,9.316C87.996,207.512,81.435,207.316,75.144,205.02z"/>
			<path d="M370.63,197.782c0-13.224-10.758-23.981-23.981-23.981c-13.223,0-23.98,10.757-23.98,23.981
				c0,13.222,10.757,23.981,23.98,23.981C359.873,221.763,370.63,211.006,370.63,197.782z M337.669,197.782
				c0-4.952,4.028-8.98,8.979-8.98c4.952,0,8.98,4.028,8.98,8.98c0,4.951-4.028,8.98-8.98,8.98
				C341.698,206.763,337.669,202.735,337.669,197.782z"/>
			<path d="M499.598,145.01c-9.436-12.255-24.449-21.476-43.418-26.663c-4.007-1.095-8.121,1.261-9.213,5.256
				c-1.093,3.995,1.261,8.12,5.256,9.212c15.791,4.318,28.062,11.698,35.488,21.344c11.357,14.754,12.398,38.822,2.855,66.034
				c-9.958,28.397-29.951,55.678-54.851,74.849c-21.452,16.516-48.164,26.298-75.214,27.545
				c-23.163,1.071-44.667-4.199-59.669-14.522v-74.359c0-16.375,4.053-32.609,11.719-46.951c3.953-7.394,6.388-15.579,7.158-23.954
				c2.146-1.677,4.345-3.279,6.569-4.776c28.025-18.856,61.089-29.27,93.1-29.325c4.143-0.007,7.494-3.371,7.487-7.513
				c-0.007-4.138-3.363-7.487-7.5-7.487h-0.013c-34.604,0.06-70.258,11.162-100.53,31.274c-2.387-12.428-8.449-23.837-17.669-32.928
				c-2.627-2.591-5.449-4.906-8.416-6.968c7.146-14.397,19.637-26.939,33.627-32.728c3.828-1.584,5.647-5.971,4.063-9.798
				c-1.583-3.827-5.971-5.649-9.797-4.063c-17.325,7.169-32.408,22.094-41.16,39.556c-7.416-2.847-15.382-4.296-23.578-4.187
				c-7.532,0.105-14.876,1.566-21.758,4.232c-8.748-17.482-23.843-32.426-41.182-39.6c-3.827-1.584-8.213,0.235-9.798,4.063
				c-1.584,3.828,0.235,8.214,4.063,9.798c14.015,5.799,26.522,18.374,33.662,32.801c-2.918,2.033-5.695,4.31-8.283,6.849
				c-9.499,9.32-15.724,21.131-18.009,33.926c-0.166-0.113-0.33-0.233-0.497-0.345c-68.671-46.202-152.562-38.406-181.691-0.57
				c-14.511,18.848-16.379,48.061-5.125,80.149c10.896,31.069,32.712,60.873,59.855,81.771c5.09,3.919,10.445,7.491,16.007,10.706
				c-25.682,31.869-28.838,72.022-6.227,94.633c14.84,14.84,38.032,19.016,62.365,11.326c8.345,15.579,21.177,25.955,36.321,29.314
				c3.539,0.785,7.113,1.171,10.688,1.171c15.979,0,31.986-7.7,45.068-21.8c7.19,5.108,15.967,8.124,25.439,8.124
				c9.054,0,17.477-2.749,24.483-7.453c12.972,13.659,28.768,21.123,44.482,21.123c3.563,0,7.122-0.383,10.642-1.164
				c15.143-3.359,27.976-13.737,36.322-29.314c24.334,7.688,47.525,3.514,62.364-11.326c22.616-22.616,19.454-62.779-6.242-94.651
				c5.566-3.217,10.933-6.771,16.022-10.688c27.143-20.898,48.96-50.702,59.855-81.771
				C515.977,193.071,514.108,163.857,499.598,145.01z M354.704,337.724c2.149,0,4.316-0.049,6.49-0.15
				c6.842-0.315,13.661-1.146,20.4-2.42c2.248,2.066,4.56,4.224,6.911,6.456c16.939,17.158,16.999,34.961,13.94,38.018
				c-0.76,0.76-2.812,1.572-6.29,1.572c-3.834,0-8.264-0.97-12.811-2.805l-22.549-9.099c-7.055-2.845-15.193,0.542-18.141,7.556
				l-9.422,22.415c-1.928,4.585-4.736,8.112-6.832,8.577c-0.214,0.048-0.413,0.069-0.646,0.069c-4.775,0-18.933-9.722-24.026-32.683
				c-0.302-1.36-0.599-2.744-0.895-4.131v-45.597C315.94,333.411,334.714,337.724,354.704,337.724z M76.283,295.044
				c-24.9-19.17-44.893-46.452-54.851-74.849c-9.543-27.212-8.502-51.281,2.856-66.034c24.566-31.91,100.435-37.174,161.43,3.865
				c2.832,1.905,5.615,3.975,8.309,6.167c0.881,7.732,3.169,15.256,6.781,22.138c7.814,14.889,11.944,31.06,11.944,46.765v73.836
				C182.337,329.288,121.732,330.034,76.283,295.044z M178.847,438.266c-11.239-2.493-20.869-10.744-27.113-23.233
				c-2.806-5.608-9.392-8.311-15.321-6.284c-19.515,6.664-37.791,4.017-48.895-7.086c-17.354-17.354-12.964-51.053,9.31-77.022
				c5.289,2.37,10.716,4.434,16.244,6.179c-0.053,0.05-0.105,0.101-0.156,0.153c-5.276,5.327-9.635,11.15-12.956,17.307
				c-1.967,3.646-0.606,8.195,3.04,10.162c1.133,0.611,2.352,0.901,3.554,0.901c2.668,0,5.252-1.428,6.607-3.94
				c2.625-4.865,6.101-9.505,10.333-13.793c2.351-2.231,4.656-4.383,6.891-6.437c7.193,1.358,14.484,2.191,21.796,2.458
				c1.725,0.063,3.441,0.094,5.149,0.094c20.741,0,40.081-4.627,55.422-13.076v38.673c-0.696,3.611-1.506,7.507-2.481,11.906
				c-5.094,22.962-19.252,32.684-24.027,32.684c-0.232,0-0.431-0.021-0.649-0.07c-2.092-0.464-4.9-3.991-6.828-8.575l-9.422-22.415
				c-2.947-7.012-11.083-10.402-18.141-7.556l-22.549,9.099c-4.546,1.835-8.976,2.805-12.81,2.805c-3.478,0-5.53-0.813-6.29-1.572
				c-0.118-0.118-0.428-0.483-0.752-1.313c-1.503-3.859-5.851-5.77-9.711-4.266c-3.859,1.503-5.77,5.851-4.266,9.711
				c0.996,2.557,2.383,4.736,4.122,6.475c3.903,3.902,9.746,5.965,16.897,5.965c5.74,0,12.111-1.347,18.425-3.895l21.631-8.729
				l9.039,21.504c2.346,5.579,7.728,15.26,17.405,17.406c1.29,0.287,2.566,0.426,3.901,0.426c8.812,0,19.24-6.438,27.348-18
				c1.21,6.127,3.699,11.797,7.17,16.731C208.358,435.233,193.015,441.408,178.847,438.266z M285.833,371.977v24.389
				c0,16.013-13.026,29.04-29.04,29.04c-16.013,0-29.04-13.027-29.04-29.04v-32.409c0-0.011,0-0.021,0-0.032v-130.83
				c0-18.125-4.724-36.706-13.662-53.736c-3.838-7.314-5.725-15.589-5.454-23.93c0.455-14.052,7.218-26.73,17.474-35.301
				c0.154,0.753,0.296,1.505,0.417,2.258c0.591,3.688,3.777,6.315,7.396,6.315c0.395,0,0.794-0.031,1.196-0.095
				c4.09-0.655,6.874-4.502,6.219-8.592c-0.424-2.644-1.015-5.279-1.748-7.891c5.165-2.026,10.731-3.185,16.514-3.266
				c6.224-0.088,12.279,1.009,17.921,3.167c-0.746,2.644-1.348,5.312-1.777,7.989c-0.655,4.09,2.129,7.937,6.219,8.592
				c0.402,0.064,0.802,0.095,1.195,0.095c3.62,0,6.806-2.627,7.397-6.315c0.131-0.819,0.29-1.638,0.46-2.456
				c1.066,0.886,2.106,1.812,3.104,2.796c9.255,9.127,14.353,21.312,14.353,34.308c0,0.67-0.034,1.337-0.062,2.005
				c0,0.006-0.001,0.012-0.001,0.018c-0.304,7.209-2.208,14.301-5.59,20.627c-8.825,16.51-13.49,35.19-13.49,54.023v138.209h0.001
				C285.833,371.936,285.833,371.956,285.833,371.977z M424.48,401.663c-11.101,11.103-29.381,13.752-48.894,7.086
				c-5.933-2.027-12.517,0.676-15.321,6.286c-6.244,12.487-15.874,20.739-27.113,23.232c-13.786,3.055-28.775-2.761-41.018-15.655
				c3.506-4.708,6.084-10.14,7.488-16.025c7.916,10.507,17.754,16.326,26.131,16.326c1.335,0,2.611-0.14,3.897-0.425
				c9.681-2.148,15.062-11.827,17.409-17.408l9.038-21.503l21.631,8.729c6.314,2.548,12.685,3.895,18.425,3.895
				c7.151,0,12.994-2.063,16.898-5.966c10.627-10.627,7.504-37.579-13.97-59.261c-0.055-0.055-0.109-0.108-0.165-0.161
				c-0.003-0.003-0.006-0.006-0.009-0.009c5.529-1.746,10.958-3.806,16.25-6.176C437.444,350.599,441.837,384.307,424.48,401.663z"
				/>
			<path d="M350.025,281.061c13.223,0,23.98-10.757,23.98-23.981c0-13.222-10.757-23.98-23.98-23.98
				c-13.224,0-23.98,10.757-23.98,23.98C326.045,270.303,336.802,281.061,350.025,281.061z M350.025,248.1
				c4.951,0,8.979,4.028,8.979,8.979s-4.028,8.98-8.979,8.98c-4.951,0-8.979-4.028-8.979-8.98
				C341.045,252.128,345.074,248.1,350.025,248.1z"/>
			<path d="M185.956,257.08c0-13.222-10.757-23.98-23.98-23.98c-13.223,0-23.981,10.757-23.981,23.98
				c0,13.223,10.757,23.981,23.981,23.981C175.199,281.061,185.956,270.303,185.956,257.08z M152.995,257.08
				c0-4.951,4.028-8.979,8.98-8.979c4.951,0,8.979,4.028,8.979,8.979s-4.028,8.98-8.979,8.98S152.995,262.032,152.995,257.08z"/>
			<path d="M101.348,237.128c-13.222,0-23.981,10.757-23.981,23.981c0,13.222,10.757,23.98,23.981,23.98
				c13.222,0,23.98-10.757,23.98-23.98C125.329,247.885,114.572,237.128,101.348,237.128z M101.348,270.088
				c-4.951,0-8.98-4.028-8.98-8.979s4.028-8.98,8.98-8.98c4.951,0,8.979,4.028,8.979,8.98
				C110.329,266.059,106.3,270.088,101.348,270.088z"/>
		</g>
	</g>
</g>
<g>
</g>
<g>
</g>
<g>
</g>
<g>
</g>
<g>
</g>
<g>
</g>
<g>
</g>
<g>
</g>
<g>
</g>
<g>
</g>
<g>
</g>
<g>
</g>
<g>
</g>
<g>
</g>
<g>
</g>
</svg>
