<?xml version="1.0" encoding="iso-8859-1"?>
<!-- Generator: Adobe Illustrator 19.0.0, SVG Export Plug-In . SVG Version: 6.00 Build 0)  -->
<svg version="1.1" id="Capa_1" xmlns="http://www.w3.org/2000/svg" xmlns:xlink="http://www.w3.org/1999/xlink" x="0px" y="0px"
	 viewBox="0 0 512 512" style="enable-background:new 0 0 512 512;" xml:space="preserve">
<g>
	<g>
		<g>
			<path d="M180.18,130.062v11.531c0,4.142,3.358,7.5,7.5,7.5c4.142,0,7.5-3.358,7.5-7.5v-11.531c0-4.142-3.358-7.5-7.5-7.5
				C183.538,122.562,180.18,125.92,180.18,130.062z"/>
			<path d="M485.449,326.587c-14.641,0-26.551,11.911-26.551,26.551c0,20.995-17.08,38.076-38.076,38.076
				c-20.995,0-38.076-17.081-38.076-38.076v-59.28h21.717c16.768,0,30.41-13.642,30.41-30.41c0-14.289-9.909-26.301-23.215-29.543
				c5.11-16.007,7.705-32.667,7.705-49.664c0-25.987-5.924-50.833-17.607-73.848c-1.875-3.693-6.388-5.168-10.083-3.293
				c-3.693,1.875-5.167,6.389-3.292,10.082c10.605,20.891,15.982,43.453,15.982,67.058c0,16.754-2.772,33.142-8.228,48.797H115.864
				c-5.456-15.655-8.228-32.043-8.228-48.797c0-81.808,66.556-148.364,148.364-148.364c41.638,0,81.615,17.66,109.681,48.453
				c2.791,3.062,7.534,3.281,10.595,0.491c3.061-2.79,3.281-7.534,0.491-10.595C345.865,40.322,301.847,20.877,256,20.877
				c-90.08,0-163.364,73.285-163.364,163.364c0,16.997,2.595,33.658,7.706,49.664c-13.306,3.242-23.215,15.254-23.215,29.543
				c0,16.768,13.642,30.41,30.41,30.41h21.717v59.28c0,20.995-17.081,38.076-38.076,38.076c-11.738,0-22.652-5.317-29.944-14.587
				c-2.561-3.256-7.276-3.82-10.532-1.258c-3.256,2.561-3.819,7.276-1.258,10.532c10.154,12.91,25.365,20.313,41.734,20.313
				c29.266,0,53.076-23.81,53.076-53.076v-59.28h23.102v59.28c0,42.004-34.173,76.178-76.178,76.178
				C49.173,429.316,15,395.143,15,353.139c0-6.37,5.182-11.551,11.551-11.551c5.402,0,10.029,3.665,11.25,8.915
				c0.939,4.034,4.97,6.546,9.005,5.604c4.034-0.939,6.543-4.971,5.604-9.005c-2.812-12.078-13.446-20.513-25.86-20.513
				C11.911,326.587,0,338.498,0,353.139c0,50.275,40.902,91.178,91.178,91.178c50.276,0,91.178-40.902,91.178-91.178v-59.28h13.695
				v170.713c0,14.64,11.911,26.551,26.551,26.551c14.641,0,26.551-11.911,26.551-26.551V293.858h13.695v170.713
				c0,14.64,11.911,26.551,26.551,26.551c14.64,0,26.551-11.911,26.551-26.551V293.858h13.695v59.28
				c0,50.275,40.902,91.178,91.178,91.178S512,403.414,512,353.139C512,338.498,500.089,326.587,485.449,326.587z M234.152,464.572
				L234.152,464.572c0,6.369-5.182,11.551-11.551,11.551c-6.369,0-11.551-5.182-11.551-11.551V293.858h23.102V464.572z
				 M300.95,464.572c0,6.369-5.182,11.551-11.551,11.551c-6.37,0-11.551-5.182-11.551-11.551V293.858h23.102V464.572z
				 M107.537,278.858c-8.497,0-15.41-6.913-15.41-15.41c0-8.497,6.913-15.41,15.41-15.41h3.061c0.009,0,0.017,0.002,0.026,0.002
				c0.014,0,0.029-0.002,0.043-0.002h290.667c0.014,0,0.029,0.002,0.043,0.002c0.009,0,0.017-0.002,0.026-0.002h3.062
				c8.497,0,15.41,6.913,15.41,15.41c0,8.497-6.913,15.41-15.41,15.41H107.537z M420.822,429.316
				c-42.004,0-76.178-34.173-76.178-76.178v-59.28h23.102v59.28c0,29.266,23.81,53.076,53.076,53.076s53.076-23.81,53.076-53.076
				c0-6.37,5.182-11.551,11.551-11.551c6.369,0,11.551,5.182,11.551,11.551C497,395.143,462.827,429.316,420.822,429.316z"/>
			<path d="M241.849,123.452c-7.065,0-12.814,5.748-12.814,12.813v14.151c0,14.868,12.096,26.964,26.964,26.964
				c14.868,0,26.964-12.096,26.964-26.964v-14.151c0-7.065-5.748-12.813-12.813-12.813
				C270.15,123.452,241.849,123.452,241.849,123.452z M267.965,150.417L267.965,150.417c-0.001,6.597-5.368,11.964-11.965,11.964
				s-11.964-5.367-11.964-11.964v-11.965h23.929V150.417z"/>
			<path d="M316.82,130.062v11.531c0,4.142,3.358,7.5,7.5,7.5c4.142,0,7.5-3.358,7.5-7.5v-11.531c0-4.142-3.358-7.5-7.5-7.5
				C320.178,122.562,316.82,125.92,316.82,130.062z"/>
		</g>
	</g>
</g>
<g>
</g>
<g>
</g>
<g>
</g>
<g>
</g>
<g>
</g>
<g>
</g>
<g>
</g>
<g>
</g>
<g>
</g>
<g>
</g>
<g>
</g>
<g>
</g>
<g>
</g>
<g>
</g>
<g>
</g>
</svg>
