<?xml version="1.0" encoding="iso-8859-1"?>
<!-- Generator: Adobe Illustrator 19.0.0, SVG Export Plug-In . SVG Version: 6.00 Build 0)  -->
<svg version="1.1" id="Capa_1" xmlns="http://www.w3.org/2000/svg" xmlns:xlink="http://www.w3.org/1999/xlink" x="0px" y="0px"
	 viewBox="0 0 511.999 511.999" style="enable-background:new 0 0 511.999 511.999;" xml:space="preserve">
<g>
	<g>
		<g>
			<path d="M161.308,111.919v14.717c0,4.142,3.358,7.5,7.5,7.5c4.142,0,7.5-3.358,7.5-7.5v-14.717c0-4.142-3.358-7.5-7.5-7.5
				C164.666,104.419,161.308,107.778,161.308,111.919z"/>
			<path d="M237.94,105.557c-7.875,0-14.281,6.407-14.281,14.281v18.06c0,17.833,14.508,32.341,32.341,32.341
				s32.341-14.508,32.341-32.341v-18.06c0-7.875-6.407-14.281-14.281-14.281H237.94z M273.342,137.898L273.342,137.898
				c-0.001,9.562-7.78,17.341-17.342,17.341s-17.341-7.779-17.341-17.341v-17.341h34.683V137.898z"/>
			<path d="M462.435,249.299c2.446-7.506,4.238-15.171,5.304-22.936c3.755-27.367-0.323-52.512-12.121-74.737
				c-1.942-3.659-6.482-5.049-10.141-3.108c-3.659,1.942-5.05,6.482-3.108,10.141c10.291,19.388,13.827,41.48,10.509,65.664
				c-3.247,23.668-13.936,46.418-30.913,65.792c-14.996,17.115-34.94,31.656-58.126,42.459v-49.304c0-4.142-3.358-7.5-7.5-7.5
				c-4.142,0-7.5,3.358-7.5,7.5v60.59c0,0.012,0,0.025,0,0.037v18.417c0,7.154-5.82,12.975-12.975,12.975
				c-7.154,0-12.975-5.82-12.975-12.975v-5.982c0-0.017,0-0.034,0-0.052v-73.01c0-4.142-3.358-7.5-7.5-7.5
				c-0.594,0-1.17,0.076-1.724,0.207c-16.824-12.401-37.001-19.156-57.666-19.156c-20.666,0-40.842,6.754-57.666,19.156
				c-0.554-0.131-1.13-0.207-1.724-0.207c-4.142,0-7.5,3.358-7.5,7.5v73.009c0,0.017,0,0.034,0,0.052v5.982
				c0,7.154-5.821,12.975-12.975,12.975s-12.975-5.82-12.975-12.975v-18.417c0-0.012,0-0.025,0-0.037v-60.59
				c0-4.142-3.358-7.5-7.5-7.5c-4.142,0-7.5,3.358-7.5,7.5v49.305c-23.186-10.803-43.13-25.344-58.126-42.459
				C73.057,270.74,62.367,247.99,59.12,224.323c-7.181-52.348,17.833-94.357,70.434-118.288c5.09-2.316,8.839-6.87,10.031-12.182
				c3.036-13.539,15.326-23.366,29.222-23.366c8.683,0,16.932,3.766,22.631,10.331c3.53,4.066,8.748,6.122,13.969,5.51
				c15.793-1.866,32.814-2.812,50.592-2.812s34.799,0.946,50.592,2.812c5.22,0.62,10.439-1.443,13.969-5.51
				c5.699-6.565,13.948-10.331,22.631-10.331c13.897,0,26.186,9.827,29.222,23.366c1.191,5.313,4.941,9.867,10.031,12.182
				c15.575,7.086,28.891,15.844,39.577,26.03c2.998,2.858,7.745,2.745,10.603-0.254c2.858-2.998,2.744-7.746-0.254-10.603
				c-11.902-11.345-26.609-21.044-43.715-28.826c-0.836-0.381-1.437-1.058-1.606-1.811c-4.558-20.33-23.003-35.084-43.859-35.084
				c-13.031,0-25.408,5.648-33.958,15.497c-0.268,0.308-0.604,0.479-0.882,0.447c-16.375-1.934-33.988-2.915-52.352-2.915
				s-35.978,0.981-52.353,2.915c-0.276,0.034-0.613-0.138-0.881-0.447c-8.55-9.849-20.928-15.497-33.958-15.497
				c-20.855,0-39.3,14.755-43.859,35.084c-0.169,0.753-0.769,1.43-1.606,1.811c-30.049,13.671-52.139,32.8-65.658,56.857
				c-12.622,22.462-17.265,49.131-13.424,77.124c1.065,7.766,2.857,15.431,5.304,22.936C17.117,271.594,0,298.237,0,326.625
				c0,26.073,14.734,51.081,42.61,72.319c1.358,1.035,2.955,1.535,4.54,1.535c2.26,0,4.496-1.018,5.971-2.955
				c2.51-3.295,1.874-8.001-1.42-10.511C27.691,368.719,15,347.839,15,326.625c0-15.908,7.206-39.302,40.168-62.943
				c5.87,12.889,13.779,25.127,23.584,36.318c1.203,1.372,2.436,2.728,3.695,4.07l-12.65,6.559
				c-6.633,3.44-11.53,9.257-13.789,16.38c-2.258,7.123-1.608,14.699,1.832,21.332c4.83,9.315,14.353,15.102,24.852,15.102
				c4.446,0,8.893-1.087,12.86-3.145l36.564-18.959c5.185,2.739,10.538,5.294,16.043,7.654v13.318
				c0,15.425,12.549,27.975,27.975,27.975c14.394,0,26.279-10.928,27.805-24.923c5.964,1.048,12.022,1.906,18.154,2.583
				l-12.789,30.937c-1.583,3.828,0.238,8.214,4.066,9.796c0.937,0.387,1.908,0.571,2.862,0.571c2.945,0,5.739-1.746,6.934-4.637
				l14.613-35.348c6.022,0.349,12.095,0.546,18.22,0.546c17.848,0,35.313-1.505,52.06-4.448
				c1.384,12.693,11.29,22.857,23.861,24.639c-0.283,2.097,0.023,4.274,0.951,6.305l16.105,35.246
				c0.041,0.089,0.15,0.327-0.013,0.645c-0.173,0.339-0.461,0.397-0.557,0.416c-29.345,5.904-60.435,8.898-92.408,8.898
				c-66.08,0-127.853-12.728-173.94-35.839c-3.702-1.858-8.209-0.36-10.066,3.342c-1.857,3.703-0.36,8.209,3.342,10.066
				C123.47,443.219,187.631,456.513,256,456.513c32.964,0,65.05-3.093,95.366-9.192c4.76-0.957,8.755-3.984,10.959-8.303
				c2.197-4.306,2.305-9.298,0.296-13.697l-13.014-28.479l73.024,19.132c8.993,2.357,18.4,1.074,26.488-3.609
				c40.549-23.478,62.88-53.927,62.88-85.738C512,298.237,494.883,271.594,462.435,249.299z M88.648,346.982
				c-1.87,0.969-3.873,1.461-5.956,1.461c-4.874,0-9.294-2.684-11.535-7.007c-1.596-3.077-1.897-6.59-0.85-9.894
				c1.047-3.304,3.318-6.001,6.395-7.597l17.105-8.869c7.047,6.228,14.736,12.021,22.974,17.318L88.648,346.982z M307.891,350.157
				c-16.623,3.083-34.044,4.655-51.891,4.655c-17.846,0-35.267-1.572-51.89-4.655v-59.689c14.849-12.044,33.145-18.648,51.89-18.648
				s37.041,6.604,51.891,18.648V350.157z M418.192,315.076l17.105,8.869c3.077,1.595,5.348,4.293,6.395,7.597
				c1.048,3.304,0.746,6.817-0.85,9.894c-2.241,4.322-6.662,7.007-11.536,7.007c-2.082,0-4.086-0.491-5.956-1.461l-28.133-14.587
				C403.457,327.097,411.146,321.305,418.192,315.076z M441.604,399.383c-4.643,2.688-10.029,3.427-15.17,2.081l-71.48-18.727
				c5.462-5.109,8.886-12.372,8.886-20.423v-13.318c5.505-2.36,10.859-4.915,16.044-7.654l36.563,18.959
				c3.967,2.058,8.414,3.145,12.861,3.145c10.499,0,20.021-5.787,24.852-15.102c3.44-6.634,4.09-14.21,1.832-21.333
				c-2.259-7.123-7.156-12.94-13.79-16.379l-12.65-6.559c1.259-1.341,2.492-2.697,3.695-4.07
				c9.806-11.191,17.715-23.429,23.584-36.318C489.794,287.323,497,310.716,497,326.625
				C497,352.859,477.327,378.698,441.604,399.383z"/>
			<path d="M335.692,111.919v14.717c0,4.142,3.358,7.5,7.5,7.5c4.142,0,7.5-3.358,7.5-7.5v-14.717c0-4.142-3.358-7.5-7.5-7.5
				C339.05,104.419,335.692,107.778,335.692,111.919z"/>
		</g>
	</g>
</g>
<g>
</g>
<g>
</g>
<g>
</g>
<g>
</g>
<g>
</g>
<g>
</g>
<g>
</g>
<g>
</g>
<g>
</g>
<g>
</g>
<g>
</g>
<g>
</g>
<g>
</g>
<g>
</g>
<g>
</g>
</svg>
