<?xml version="1.0" encoding="iso-8859-1"?>
<!-- Generator: Adobe Illustrator 19.0.0, SVG Export Plug-In . SVG Version: 6.00 Build 0)  -->
<svg version="1.1" id="Capa_1" xmlns="http://www.w3.org/2000/svg" xmlns:xlink="http://www.w3.org/1999/xlink" x="0px" y="0px"
	 viewBox="0 0 512.002 512.002" style="enable-background:new 0 0 512.002 512.002;" xml:space="preserve">
<g>
	<g>
		<g>
			<path d="M459.965,325.218c-2.635-7.24-8.297-12.893-15.532-15.51c-11.152-4.032-28.155-9.018-48.069-11.05
				c-0.595-4.523-1.377-9.326-2.397-14.32c11.303-2.189,20.912-5.061,27.447-7.278c5.488-1.863,9.909-6.001,12.127-11.356
				c2.218-5.354,2.018-11.405-0.546-16.604c-3.05-6.181-7.814-15.003-14.265-24.551c8.957-5.919,16.59-12,22.581-17.252
				c4.358-3.821,6.858-9.337,6.858-15.132c-0.001-5.795-2.5-11.31-6.858-15.131c-5.991-5.252-13.623-11.334-22.58-17.253
				c6.452-9.549,11.215-18.37,14.265-24.551c2.564-5.198,2.764-11.25,0.546-16.604c-2.219-5.354-6.639-9.493-12.128-11.355
				c-6.534-2.217-16.143-5.089-27.446-7.277c2.148-10.517,3.244-20.212,3.766-28.161c0.381-5.784-1.751-11.451-5.848-15.549
				c-4.099-4.098-9.753-6.231-15.551-5.851c-7.949,0.522-17.644,1.619-28.162,3.767c-2.189-11.303-5.062-20.913-7.278-27.446
				c-1.861-5.489-6-9.909-11.354-12.127s-11.406-2.019-16.604,0.545c-6.18,3.049-15.001,7.811-24.552,14.265
				c-5.919-8.958-12-16.589-17.252-22.58C267.311,2.5,261.796,0,256.001,0c-5.795,0-11.311,2.5-15.131,6.858
				c-5.252,5.991-11.333,13.623-17.252,22.58c-9.549-6.453-18.371-11.215-24.551-14.265c-5.198-2.564-11.252-2.763-16.604-0.545
				c-5.355,2.218-9.493,6.638-11.355,12.127c-2.216,6.534-5.089,16.144-7.277,27.447c-10.518-2.148-20.214-3.245-28.163-3.767
				c-5.782-0.38-11.451,1.752-15.55,5.851c-4.097,4.098-6.229,9.765-5.848,15.548c0.522,7.949,1.618,17.644,3.766,28.161
				c-11.303,2.189-20.912,5.061-27.446,7.277c-5.489,1.862-9.91,6.001-12.128,11.355c-2.218,5.354-2.019,11.406,0.547,16.604
				c3.048,6.179,7.811,15,14.264,24.551c-8.958,5.919-16.59,12.001-22.58,17.253c-4.358,3.821-6.857,9.335-6.858,15.131
				c0,5.795,2.5,11.311,6.858,15.132c5.991,5.252,13.623,11.333,22.58,17.252c-6.451,9.547-11.215,18.369-14.265,24.551
				c-2.564,5.198-2.764,11.249-0.546,16.603c2.218,5.355,6.639,9.493,12.128,11.356c6.534,2.217,16.143,5.089,27.446,7.278
				c-1.02,4.995-1.802,9.797-2.397,14.32c-19.915,2.031-36.917,7.018-48.07,11.05c-7.235,2.617-12.897,8.27-15.532,15.51
				c-2.635,7.24-1.932,15.209,1.93,21.864c6.187,10.664,13.313,20.76,21.186,30.008c1.483,1.743,3.592,2.639,5.715,2.639
				c1.719,0,3.446-0.587,4.857-1.788c3.154-2.685,3.535-7.419,0.85-10.573c-7.29-8.565-13.896-17.923-19.633-27.812
				c-1.625-2.8-1.919-6.156-0.809-9.207c1.11-3.051,3.493-5.433,6.538-6.533c9.784-3.538,24.418-7.87,41.561-9.914
				c0.021,5.289,2.12,10.382,5.886,14.148c4.098,4.098,9.76,6.229,15.55,5.85c7.949-0.523,17.644-1.619,28.162-3.767
				c2.189,11.302,5.061,20.913,7.277,27.447c0.428,1.262,0.99,2.459,1.645,3.595l-48.358-17.601
				c-3.898-1.418-8.197,0.591-9.613,4.483c-1.417,3.892,0.591,8.196,4.482,9.613l68.226,24.832c0.848,0.308,1.713,0.454,2.564,0.454
				c3.063,0,5.94-1.892,7.049-4.937c0.976-2.681,0.327-5.556-1.443-7.55c1.164-0.331,2.305-0.764,3.407-1.308
				c4.664-2.301,10.833-5.581,17.681-9.821v44.975c-16.136,13.082-43.972,16.421-67.702,7.783
				c-13.638-4.963-26.613-12.238-38.567-21.622c-3.256-2.557-7.972-1.989-10.53,1.268c-2.558,3.258-1.99,7.973,1.269,10.531
				c13.202,10.365,27.568,18.412,42.698,23.919c10.61,3.862,21.789,5.728,32.697,5.728c14.536,0,28.573-3.333,40.136-9.66v58.635
				c0,17.151,13.953,31.105,31.105,31.105h16.299c17.151,0,31.104-13.954,31.104-31.105V422.26
				c11.563,6.327,25.598,9.66,40.136,9.659c10.906,0,22.088-1.867,32.697-5.728c48.589-17.685,77.211-57.156,89.947-79.11
				C461.897,340.427,462.6,332.457,459.965,325.218z M419.542,255.738c0.895,1.812,0.472,3.426,0.14,4.227
				c-0.332,0.801-1.174,2.242-3.088,2.891c-6.211,2.107-15.417,4.849-26.217,6.894c-2.478-8.573-5.707-17.392-9.956-26.047
				c9.123-3.116,17.641-7.067,25.454-11.376C412.074,241.419,416.644,249.863,419.542,255.738z M416.594,121.478
				c1.914,0.649,2.756,2.09,3.088,2.891c0.332,0.801,0.755,2.414-0.139,4.226c-2.899,5.875-7.468,14.319-13.667,23.412
				c-7.813-4.309-16.331-8.26-25.455-11.376c4.248-8.655,7.477-17.474,9.955-26.047C401.177,116.628,410.383,119.37,416.594,121.478
				z M319.573,28.625c1.813-0.893,3.425-0.471,4.227-0.139c0.801,0.332,2.24,1.174,2.89,3.088
				c2.107,6.211,4.849,15.417,6.895,26.218c-8.573,2.478-17.392,5.707-26.047,9.956c-3.116-9.123-7.068-17.642-11.376-25.455
				C305.255,36.092,313.699,31.523,319.573,28.625z M185.312,31.573c0.649-1.913,2.089-2.755,2.89-3.087
				c0.801-0.331,2.413-0.755,4.227,0.14c5.875,2.898,14.318,7.467,23.412,13.667c-4.309,7.813-8.261,16.332-11.377,25.455
				c-8.655-4.248-17.474-7.478-26.047-9.956C180.463,46.99,183.206,37.784,185.312,31.573z M92.46,128.594
				c-0.894-1.812-0.471-3.426-0.14-4.226c0.332-0.801,1.174-2.242,3.088-2.891c6.211-2.107,15.417-4.85,26.218-6.895
				c2.478,8.573,5.707,17.392,9.955,26.047c-9.123,3.116-17.642,7.068-25.455,11.376C99.926,142.911,95.358,134.468,92.46,128.594z
				 M95.409,262.855c-1.915-0.649-2.757-2.09-3.089-2.891c-0.332-0.801-0.755-2.415,0.139-4.226
				c2.899-5.875,7.469-14.32,13.668-23.412c7.813,4.309,16.331,8.261,25.454,11.376c-4.248,8.655-7.477,17.474-9.955,26.047
				C110.825,267.705,101.619,264.963,95.409,262.855z M192.43,355.707c-1.811,0.894-3.426,0.471-4.227,0.139
				c-0.801-0.332-2.241-1.174-2.89-3.087c-2.107-6.211-4.849-15.418-6.895-26.218c8.573-2.478,17.392-5.707,26.047-9.956
				c3.116,9.123,7.068,17.641,11.376,25.454C206.748,348.24,198.304,352.809,192.43,355.707z M280.255,480.895
				c0,8.88-7.225,16.105-16.104,16.105h-16.299c-8.88,0-16.105-7.225-16.105-16.105V366.326c3.179,4.162,6.274,7.898,9.123,11.147
				c3.82,4.359,9.335,6.859,15.131,6.859c5.796,0,11.31-2.5,15.131-6.858c2.849-3.25,5.944-6.986,9.123-11.148V480.895z
				 M259.852,367.586c-1.331,1.519-2.984,1.746-3.851,1.746c-0.866,0-2.52-0.227-3.852-1.747
				c-8.842-10.085-24.956-30.769-33.536-55.983c-1.374-4.039-4.431-7.294-8.385-8.933c-1.828-0.757-3.766-1.134-5.699-1.134
				c-2.247,0-4.488,0.509-6.547,1.522c-23.895,11.761-49.915,14.993-63.299,15.873c-2.015,0.138-3.346-0.876-3.959-1.489
				c-0.612-0.613-1.62-1.942-1.488-3.958c0.88-13.384,4.112-39.405,15.872-63.299c1.885-3.828,2.026-8.292,0.389-12.246
				c-1.639-3.954-4.895-7.011-8.934-8.385c-25.213-8.581-45.897-24.694-55.982-33.535c-1.52-1.332-1.747-2.985-1.747-3.853
				c0.001-0.867,0.228-2.52,1.747-3.852c10.085-8.841,30.769-24.955,55.982-33.536c4.039-1.374,7.295-4.43,8.933-8.384
				c1.639-3.955,1.497-8.418-0.387-12.247c-11.761-23.894-14.993-49.915-15.873-63.3c-0.132-2.016,0.876-3.345,1.488-3.958
				c0.613-0.613,1.947-1.621,3.959-1.489c13.384,0.88,39.403,4.112,63.301,15.873c3.827,1.883,8.29,2.024,12.245,0.386
				c3.954-1.638,7.01-4.894,8.385-8.933c8.58-25.214,24.693-45.897,33.535-55.983c1.332-1.515,2.985-1.742,3.852-1.742
				c0.867,0,2.52,0.227,3.852,1.747c8.842,10.085,24.955,30.768,33.536,55.983c1.374,4.039,4.43,7.294,8.384,8.932
				c3.953,1.638,8.415,1.498,12.247-0.387c23.896-11.761,49.915-14.993,63.298-15.873c2.034-0.126,3.347,0.876,3.96,1.489
				c0.612,0.613,1.62,1.942,1.488,3.959c-0.88,13.384-4.112,39.405-15.873,63.299c-1.884,3.829-2.025,8.292-0.387,12.247
				c1.638,3.954,4.893,7.01,8.933,8.384c25.214,8.581,45.897,24.694,55.982,33.536c1.52,1.332,1.746,2.985,1.747,3.852
				c0,0.867-0.227,2.52-1.747,3.853c-10.085,8.841-30.77,24.954-55.982,33.535c-4.039,1.375-7.295,4.431-8.934,8.385
				c-1.638,3.954-1.496,8.417,0.388,12.245c11.761,23.895,14.993,49.916,15.873,63.3c0.132,2.016-0.876,3.345-1.489,3.958
				c-0.612,0.613-1.942,1.628-3.958,1.489c-13.384-0.88-39.404-4.112-63.3-15.873c-3.826-1.883-8.291-2.024-12.245-0.387
				c-3.955,1.636-7.011,4.891-8.386,8.93C284.809,336.816,268.695,357.501,259.852,367.586z M333.584,326.542
				c-2.046,10.8-4.788,20.007-6.895,26.218c-0.648,1.913-2.089,2.755-2.89,3.087c-0.802,0.332-2.416,0.754-4.228-0.139
				c-5.874-2.899-14.319-7.468-23.412-13.668c4.309-7.813,8.261-16.332,11.376-25.454
				C316.192,320.834,325.011,324.064,333.584,326.542z M445.061,339.555c-11.717,20.196-37.964,56.476-82.104,72.542
				c-23.731,8.638-51.567,5.299-67.702-7.783v-44.975c6.848,4.241,13.017,7.521,17.681,9.822c1.102,0.543,2.243,0.977,3.407,1.307
				c-1.77,1.993-2.419,4.869-1.443,7.55c1.108,3.046,3.984,4.937,7.049,4.937c0.852,0,1.718-0.146,2.564-0.454l68.226-24.832
				c3.892-1.417,5.899-5.721,4.482-9.613c-1.416-3.892-5.72-5.901-9.613-4.483l-48.358,17.601c0.656-1.135,1.218-2.333,1.646-3.595
				c2.217-6.534,5.089-16.144,7.277-27.447c10.518,2.148,20.213,3.244,28.162,3.767c5.781,0.374,11.452-1.752,15.55-5.85
				c3.766-3.766,5.865-8.859,5.886-14.148c17.143,2.044,31.777,6.376,41.561,9.914c3.045,1.1,5.428,3.482,6.538,6.533
				C446.979,333.399,446.686,336.755,445.061,339.555z"/>
			<circle cx="192.057" cy="232.174" r="7.32"/>
			<circle cx="328.207" cy="196.571" r="7.321"/>
			<circle cx="298.926" cy="181.93" r="7.32"/>
			<circle cx="295.076" cy="139.934" r="7.32"/>
			<circle cx="216.926" cy="256" r="7.32"/>
			<path d="M366.102,192.167c0-18.779-4.813-37.322-13.92-53.624c-2.021-3.617-6.591-4.91-10.205-2.89
				c-3.616,2.02-4.91,6.589-2.891,10.206c7.86,14.071,12.016,30.085,12.016,46.309c0,52.438-42.662,95.1-95.101,95.1
				s-95.101-42.662-95.101-95.1c0-52.438,42.662-95.102,95.101-95.102c22.692,0,44.664,8.123,61.867,22.873
				c3.146,2.696,7.878,2.332,10.575-0.812c2.696-3.145,2.333-7.879-0.812-10.576c-19.919-17.079-45.358-26.485-71.63-26.485
				c-60.71,0-110.101,49.391-110.101,110.101c0,60.71,49.391,110.1,110.101,110.1C316.711,302.267,366.102,252.876,366.102,192.167z
				"/>
			<circle cx="313.567" cy="221.983" r="7.321"/>
		</g>
	</g>
</g>
<g>
</g>
<g>
</g>
<g>
</g>
<g>
</g>
<g>
</g>
<g>
</g>
<g>
</g>
<g>
</g>
<g>
</g>
<g>
</g>
<g>
</g>
<g>
</g>
<g>
</g>
<g>
</g>
<g>
</g>
</svg>
