<?xml version="1.0" encoding="iso-8859-1"?>
<!-- Generator: Adobe Illustrator 19.0.0, SVG Export Plug-In . SVG Version: 6.00 Build 0)  -->
<svg version="1.1" id="Capa_1" xmlns="http://www.w3.org/2000/svg" xmlns:xlink="http://www.w3.org/1999/xlink" x="0px" y="0px"
	 viewBox="0 0 512.006 512.006" style="enable-background:new 0 0 512.006 512.006;" xml:space="preserve">
<g>
	<g>
		<g>
			<path d="M268.017,359.862c-3.034,3.481-7.414,5.478-12.017,5.478c-4.603,0-8.982-1.997-12.017-5.478
				c-2.722-3.123-7.46-3.448-10.582-0.726c-3.123,2.721-3.447,7.459-0.727,10.582c5.884,6.751,14.386,10.622,23.325,10.622
				c8.94,0,17.441-3.872,23.325-10.622c2.721-3.123,2.397-7.86-0.727-10.582C275.476,356.413,270.739,356.74,268.017,359.862z"/>
			<path d="M187.368,303.466v-12.093c0-4.142-3.357-7.5-7.5-7.5s-7.5,3.358-7.5,7.5v12.093c0,4.142,3.357,7.5,7.5,7.5
				C184.011,310.966,187.368,307.608,187.368,303.466z"/>
			<path d="M339.632,303.466v-12.093c0-4.142-3.357-7.5-7.5-7.5s-7.5,3.358-7.5,7.5v12.093c0,4.142,3.357,7.5,7.5,7.5
				C336.274,310.966,339.632,307.608,339.632,303.466z"/>
			<path d="M505.148,164.918c-4.419-4.419-10.289-6.852-16.533-6.852h-0.037c-21.551,0.034-63.099,5.486-99.23,41.618
				c-2.746,2.746-5.328,5.57-7.764,8.433c-0.114-0.085-0.223-0.174-0.338-0.259c-11.093-8.26-23.682-15.135-37.549-20.583
				l1.465-16.745l9.876-0.816c21.14-1.746,40.902-9.875,57.152-23.51l4.987-4.185c3.173-2.663,3.587-7.393,0.924-10.566
				c-2.662-3.172-7.393-3.587-10.566-0.924l-4.986,4.185c-13.86,11.629-30.716,18.563-48.745,20.052l-16.179,1.337
				c-3.642,0.301-6.536,3.182-6.854,6.821l-1.687,19.283c-10.173-3.085-20.921-5.478-32.184-7.153l9.682-110.665
				c0.784-8.976,8.728-15.644,17.705-14.856c4.349,0.38,8.289,2.432,11.095,5.776c2.807,3.344,4.143,7.581,3.762,11.929
				l-4.155,47.488c-0.192,2.202,0.596,4.377,2.155,5.944c1.559,1.567,3.739,2.366,5.934,2.184l8.037-0.664
				c11.254-0.93,21.773-5.257,30.424-12.515l30.566-25.648c6.902-5.794,17.232-4.888,23.024,2.014
				c5.792,6.903,4.889,17.232-2.015,23.025c-3.173,2.663-3.587,7.393-0.924,10.566c2.662,3.172,7.392,3.587,10.566,0.924
				c13.238-11.109,14.972-30.918,3.862-44.158c-11.11-13.239-30.92-14.971-44.157-3.863l-30.566,25.648
				c-6.047,5.074-13.356,8.169-21.188,8.98l3.38-38.619c0.729-8.34-1.833-16.465-7.214-22.879
				c-5.382-6.413-12.939-10.347-21.28-11.077c-17.229-1.501-32.45,11.279-33.954,28.493l-9.642,110.209
				c-8.426-0.758-17.096-1.149-25.996-1.149c-8.9,0-17.57,0.391-25.996,1.149l-9.642-110.209c-1.504-17.215-16.732-30-33.955-28.494
				c-8.341,0.729-15.897,4.664-21.279,11.077c-5.381,6.414-7.942,14.539-7.213,22.879l3.379,38.619
				c-7.832-0.811-15.142-3.906-21.188-8.979L109.54,72.536c-13.238-11.109-33.047-9.377-44.158,3.863
				c-11.109,13.239-9.376,33.048,3.862,44.157l30.566,25.649c16.249,13.635,36.012,21.764,57.151,23.51l9.876,0.816l1.465,16.745
				c-13.866,5.448-26.456,12.324-37.549,20.583c-0.114,0.085-0.224,0.174-0.338,0.259c-2.436-2.863-5.018-5.687-7.764-8.433
				c-36.132-36.132-77.68-41.584-99.23-41.618h-0.037c-6.244,0-12.114,2.433-16.533,6.852C2.424,169.346-0.01,175.231,0,181.489
				c0.011,7.047,0.611,16.242,2.665,26.678c0.03,0.189,0.066,0.376,0.111,0.561c4.296,21.38,14.737,47.887,38.842,71.992
				c11.489,11.489,23.76,20.075,36.55,25.586c-0.302,4.112-0.458,8.294-0.458,12.548c0,41.339,14.211,77.947,41.098,105.867
				c2.873,2.984,7.621,3.073,10.604,0.2c2.983-2.873,3.073-7.621,0.2-10.605c-24.142-25.07-36.902-58.081-36.902-95.463
				c0-5.6,0.283-11.035,0.833-16.315c0.026-0.164,0.04-0.328,0.055-0.492c1.67-15.532,5.72-29.663,12.13-42.335
				c0.42-0.585,0.75-1.222,0.986-1.893c6.71-12.646,15.81-23.81,27.295-33.424c0.026-0.022,0.052-0.044,0.078-0.066
				c1.817-1.518,3.692-2.998,5.627-4.439c11.167-8.315,24.064-15.101,38.423-20.302c0.468-0.12,0.916-0.282,1.342-0.484
				c13.506-4.768,28.289-8.14,44.14-10.063c0.079-0.004,0.157-0.002,0.236-0.008c0.273-0.024,0.541-0.064,0.805-0.116
				c10.042-1.175,20.504-1.776,31.343-1.776s21.301,0.602,31.343,1.776c0.263,0.052,0.531,0.092,0.805,0.116
				c0.087,0.007,0.173,0.007,0.259,0.011c15.842,1.923,30.617,5.294,44.117,10.06c0.426,0.202,0.874,0.364,1.342,0.484
				c14.358,5.201,27.255,11.987,38.423,20.302c1.935,1.441,3.81,2.921,5.627,4.439c0.026,0.022,0.052,0.044,0.078,0.066
				c11.485,9.614,20.585,20.778,27.295,33.424c0.236,0.672,0.566,1.309,0.986,1.893c6.41,12.672,10.46,26.803,12.13,42.335
				c0.014,0.164,0.029,0.328,0.055,0.492c0.549,5.279,0.833,10.715,0.833,16.315c0,42.774-16.374,79.161-47.352,105.227
				c-29.476,24.802-70.649,38.46-115.939,38.46c-37.913,0-72.689-9.4-100.567-27.185c-3.49-2.228-8.128-1.204-10.356,2.289
				c-2.228,3.492-1.202,8.129,2.29,10.356c30.292,19.325,67.857,29.54,108.634,29.54c48.816,0,93.421-14.91,125.596-41.983
				c34.474-29.007,52.695-69.362,52.695-116.704c0-4.254-0.156-8.436-0.458-12.548c12.79-5.511,25.061-14.097,36.55-25.586
				c24.105-24.105,34.546-50.611,38.842-71.991c0.044-0.185,0.081-0.372,0.111-0.562c2.053-10.436,2.653-19.63,2.664-26.677
				C512.01,175.231,509.576,169.346,505.148,164.918z M80.106,290.669c-9.625-4.767-18.972-11.648-27.881-20.557
				c-18.267-18.267-27.764-38.057-32.577-55.288c32.529,2.269,56.54,15.966,71.509,40.814
				C85.996,266.468,82.303,278.182,80.106,290.669z M99.437,240.915c-18.459-25.948-46.317-39.808-83.039-41.291
				c-1.051-6.987-1.39-13.175-1.398-18.158c-0.004-2.242,0.869-4.352,2.458-5.94c1.586-1.586,3.69-2.458,5.927-2.458h0.014
				c19.235,0.03,56.33,4.906,88.646,37.224c2.436,2.436,4.723,4.933,6.877,7.46C111.428,224.775,104.928,232.518,99.437,240.915z
				 M182.917,182.205l-1.687-19.283c-0.318-3.639-3.213-6.52-6.854-6.821l-16.179-1.337c-18.029-1.489-34.885-8.422-48.744-20.051
				l-30.565-25.648c-6.903-5.793-7.807-16.122-2.015-23.025c5.794-6.904,16.123-7.807,23.025-2.015l30.565,25.648
				c8.65,7.258,19.17,11.586,30.424,12.515l8.037,0.664c2.194,0.182,4.374-0.617,5.934-2.184c1.56-1.567,2.348-3.742,2.155-5.944
				l-4.154-47.489c-0.381-4.348,0.955-8.585,3.761-11.929c2.806-3.344,6.746-5.395,11.094-5.775
				c8.974-0.788,16.922,5.88,17.706,14.857l9.682,110.664C203.838,176.726,193.089,179.12,182.917,182.205z M459.775,270.112
				c-8.909,8.909-18.256,15.789-27.881,20.557c-2.197-12.487-5.89-24.201-11.051-35.031c14.969-24.848,38.98-38.545,71.509-40.814
				C487.539,232.055,478.043,251.845,459.775,270.112z M495.602,199.623c-36.722,1.483-64.58,15.343-83.039,41.291
				c-5.49-8.396-11.991-16.14-19.485-23.164c2.154-2.527,4.441-5.024,6.877-7.46c32.316-32.318,69.411-37.194,88.646-37.224h0.014
				c2.236,0,4.341,0.872,5.927,2.458c1.589,1.589,2.462,3.698,2.458,5.94C496.992,186.448,496.653,192.637,495.602,199.623z"/>
			<path d="M294.938,322.763c0.831-6.721-1.092-12.946-5.56-18.002c-6.784-7.675-18.949-12.076-33.377-12.076
				c-14.428,0-26.593,4.401-33.377,12.076c-4.469,5.056-6.392,11.281-5.561,18.001c2.314,18.715,21.615,29.898,38.938,29.898
				S292.623,341.477,294.938,322.763z M280.051,320.921c-0.999,8.084-10.902,16.739-24.051,16.739s-23.052-8.655-24.051-16.74
				c-0.301-2.431,0.307-4.409,1.913-6.226c3.764-4.258,12.454-7.01,22.138-7.01s18.374,2.752,22.138,7.01
				C279.744,316.512,280.352,318.49,280.051,320.921z"/>
		</g>
	</g>
</g>
<g>
</g>
<g>
</g>
<g>
</g>
<g>
</g>
<g>
</g>
<g>
</g>
<g>
</g>
<g>
</g>
<g>
</g>
<g>
</g>
<g>
</g>
<g>
</g>
<g>
</g>
<g>
</g>
<g>
</g>
</svg>
