<?xml version="1.0" encoding="iso-8859-1"?>
<!-- Generator: Adobe Illustrator 19.0.0, SVG Export Plug-In . SVG Version: 6.00 Build 0)  -->
<svg version="1.1" id="Capa_1" xmlns="http://www.w3.org/2000/svg" xmlns:xlink="http://www.w3.org/1999/xlink" x="0px" y="0px"
	 viewBox="0 0 512 512" style="enable-background:new 0 0 512 512;" xml:space="preserve">
<g>
	<g>
		<g>
			<path d="M490.467,208.186c-2.297-3.447-6.955-4.376-10.4-2.081c-3.446,2.298-4.378,6.954-2.08,10.401
				C490.603,235.431,497,257.409,497,281.828c0,38.816-16.344,71.639-47.265,94.917c-29.125,21.928-69.646,34.003-114.098,34.003
				c-117.926,0-191.288-60.333-220.623-116.795c-3.945-7.593-3.945-16.659,0-24.252c16.986-32.694,48.736-66.685,95.352-89.51
				c0.721-0.218,1.415-0.549,2.057-0.988c18.505-8.848,39.307-15.941,62.417-20.519c0.494-0.046,0.986-0.136,1.47-0.283
				c18.337-3.533,38.107-5.496,59.327-5.496c29.584,0,57.256,5.298,81.049,15.258c0.268,0.13,0.541,0.25,0.823,0.348
				c13.292,5.646,25.361,12.75,35.844,21.219c3.221,2.602,7.944,2.101,10.547-1.121c2.603-3.222,2.102-7.944-1.121-10.547
				c-10.915-8.817-23.351-16.283-36.974-22.299c-7.486-18.412-19.99-33.497-37.228-44.859
				c-18.44-12.155-41.967-19.775-69.927-22.649c-54.382-5.586-123.238-0.785-138.324,31.14c-6.932,14.67-1.718,31.939,15.472,51.417
				c-19.987,10.675-37.245,23.314-51.779,36.952c-4.878-8.001-11.211-15.92-18.929-23.638
				c-33.339-33.34-77.61-40.974-101.033-42.557c-6.502-0.443-12.866,1.945-17.463,6.543c-4.597,4.597-6.982,10.962-6.543,17.464
				c1.583,23.421,9.216,67.691,42.557,101.032c5.875,5.876,11.886,10.965,17.965,15.217c-6.079,4.253-12.09,9.342-17.965,15.217
				C9.268,330.387,1.635,374.656,0.052,398.078c-0.439,6.501,1.946,12.867,6.543,17.464c4.237,4.237,9.975,6.595,15.938,6.595
				c0.507,0,1.016-0.017,1.526-0.052c11.334-0.766,22.587-2.566,33.447-5.35c4.012-1.029,6.431-5.115,5.402-9.128
				c-1.029-4.012-5.112-6.431-9.128-5.402c-9.972,2.557-20.312,4.211-30.732,4.915c-2.215,0.151-4.288-0.626-5.846-2.184
				c-1.558-1.558-2.333-3.634-2.184-5.846c1.441-21.324,8.32-61.559,38.198-91.437c8.275-8.275,16.743-14.733,25.17-19.196
				c2.454-1.3,3.99-3.85,3.99-6.628c0-2.778-1.535-5.328-3.99-6.628c-8.426-4.462-16.894-10.921-25.17-19.196
				c-29.878-29.878-36.757-70.113-38.198-91.437c-0.149-2.213,0.626-4.289,2.184-5.847c1.558-1.558,3.633-2.332,5.846-2.184
				c21.325,1.441,61.56,8.321,91.438,38.198c7.933,7.933,14.161,15.998,18.583,24.036c-8.143,8.768-15.24,17.819-21.275,26.926
				L69.23,201.618c-2.877-2.979-7.625-3.063-10.605-0.185c-2.98,2.877-3.063,7.625-0.185,10.605l45.316,46.929
				c-0.702,1.274-1.39,2.548-2.051,3.819c-6.195,11.924-6.195,26.161,0,38.083c0.66,1.271,1.349,2.545,2.051,3.819l-45.317,46.93
				c-2.878,2.98-2.795,7.728,0.185,10.605c1.456,1.406,3.333,2.105,5.209,2.105c1.963,0,3.925-0.767,5.396-2.29l42.564-44.079
				c6.035,9.106,13.132,18.158,21.275,26.926c-4.422,8.038-10.65,16.103-18.583,24.036c-8.356,8.355-18.147,15.512-29.102,21.271
				c-3.667,1.927-5.076,6.462-3.149,10.128c1.342,2.553,3.948,4.012,6.645,4.012c1.176,0,2.37-0.277,3.483-0.863
				c12.293-6.462,23.305-14.517,32.729-23.942c7.718-7.718,14.051-15.636,18.929-23.638
				c41.564,39.002,105.415,69.859,191.618,69.859c47.685,0,91.41-13.147,123.119-37.02C493.589,362.504,512,325.538,512,281.827
				C511.999,254.396,504.755,229.619,490.467,208.186z M193.888,125.807c9.214-19.501,61.04-29.017,123.229-22.626
				c41.645,4.279,71.603,19.658,87.814,44.796c-17.763-5.512-37.026-8.83-57.212-9.777c-6.056-8.951-12.865-16.256-19.028-20.339
				c-3.45-2.287-8.105-1.343-10.395,2.11c-2.287,3.453-1.342,8.107,2.111,10.395c2.514,1.665,5.372,4.323,8.264,7.618
				c-18.057,0.352-35.104,2.072-51.144,4.936c-7.057-9.478-16.67-16.982-28.649-22.344c-3.782-1.692-8.218,0.001-9.91,3.782
				c-1.692,3.781,0.001,8.217,3.782,9.91c7.091,3.174,13.107,7.241,17.997,12.137c-18.455,4.403-35.442,10.361-50.974,17.487
				C198.754,152.176,188.506,137.196,193.888,125.807z"/>
			<path d="M439.186,260.189c0,4.142,3.357,7.5,7.5,7.5s7.5-3.358,7.5-7.5c0-1.472,1.197-2.67,2.67-2.67s2.67,1.198,2.67,2.67
				c0,4.142,3.357,7.5,7.5,7.5c4.142,0,7.5-3.358,7.5-7.5c0-9.743-7.927-17.67-17.67-17.67
				C447.113,242.519,439.186,250.445,439.186,260.189z"/>
			<path d="M192.171,329.497c1.431,12.079,7.723,24,18.196,34.472c10.473,10.473,22.393,16.765,34.472,18.196
				c1.748,0.207,3.481,0.31,5.197,0.31c11.636,0,22.478-4.735,31.612-13.869c17.533-17.533,29.626-38.397,34.052-58.747
				c4.073-18.732,1.307-35.114-7.4-43.822c-2.845-2.844-6.52-5.042-10.816-6.587c-0.912-3.113-3.785-5.389-7.194-5.389
				c-5.925,0-10.744-4.82-10.744-10.744s4.819-10.744,10.744-10.744c4.143,0,7.5-3.358,7.5-7.5c0-4.142-3.357-7.5-7.5-7.5
				c-5.925,0-10.744-4.82-10.744-10.744c0-5.925,4.819-10.745,10.744-10.745c4.143,0,7.5-3.358,7.5-7.5c0-4.142-3.357-7.5-7.5-7.5
				c-14.195,0-25.744,11.549-25.744,25.745c0,7.123,2.909,13.579,7.6,18.244c-4.691,4.666-7.6,11.121-7.6,18.244
				c0,5.363,1.65,10.347,4.467,14.474c-1.496,0.242-3.004,0.512-4.535,0.845c-16.677,3.627-33.695,12.41-48.946,25.109
				c-0.484-1.234-0.751-2.561-0.751-3.94c0-5.924,4.82-10.744,10.744-10.744c4.142,0,7.5-3.358,7.5-7.5c0-4.142-3.358-7.5-7.5-7.5
				c-5.924,0-10.744-4.82-10.744-10.744c0-5.924,4.82-10.744,10.744-10.744c4.142,0,7.5-3.358,7.5-7.5c0-4.142-3.358-7.5-7.5-7.5
				c-14.195,0-25.744,11.549-25.744,25.744c0,7.123,2.909,13.579,7.6,18.244c-4.691,4.666-7.6,11.121-7.6,18.244
				c0,5.194,1.601,10.226,4.459,14.448C194.815,304.426,190.639,316.566,192.171,329.497z M216.336,303.295
				c15.525-15.524,33.753-26.179,51.328-30.001c4.804-1.045,9.175-1.496,13.034-1.496c8.304,0,14.236,2.088,16.993,4.845
				c4.04,4.039,6.642,14.891,3.351,30.028c-3.822,17.575-14.477,35.803-30.002,51.328c-7.216,7.217-15.442,10.34-24.437,9.27
				c-1.862-0.22-3.749-0.637-5.644-1.218l30.418-30.418c2.929-2.929,2.929-7.678,0-10.606c-2.93-2.929-7.678-2.929-10.607,0
				l-33.686,33.687c-2.091-1.589-4.136-3.377-6.111-5.351c-1.907-1.907-3.703-3.96-5.34-6.122l33.676-33.676
				c2.929-2.929,2.929-7.678,0-10.607c-2.929-2.929-7.678-2.929-10.606,0l-30.383,30.383
				C205.341,323.502,206.778,312.854,216.336,303.295z"/>
			<path d="M363.275,260.189c0-1.472,1.198-2.67,2.671-2.67c1.473,0,2.67,1.198,2.67,2.67c0,4.142,3.357,7.5,7.5,7.5
				s7.5-3.358,7.5-7.5c0-9.743-7.927-17.67-17.67-17.67c-9.744,0-17.671,7.927-17.671,17.67c0,4.142,3.357,7.5,7.5,7.5
				S363.275,264.331,363.275,260.189z"/>
			<path d="M416.535,267.148c-1.297,1.489-3.168,2.342-5.134,2.342s-3.837-0.853-5.134-2.342c-2.721-3.123-7.459-3.448-10.581-0.727
				c-3.123,2.721-3.449,7.458-0.728,10.582c4.147,4.759,10.14,7.488,16.442,7.488c6.303,0,12.296-2.729,16.442-7.488
				c2.722-3.123,2.396-7.86-0.728-10.582C423.993,263.699,419.255,264.024,416.535,267.148z"/>
			<path d="M344.041,342.038c4.143,0,7.5-3.358,7.5-7.5c0-4.142-3.357-7.5-7.5-7.5c-14.195,0-25.744,11.549-25.744,25.744
				s11.549,25.744,25.744,25.744c4.143,0,7.5-3.358,7.5-7.5c0-4.142-3.357-7.5-7.5-7.5c-5.925,0-10.744-4.82-10.744-10.744
				C333.297,346.858,338.117,342.038,344.041,342.038z"/>
		</g>
	</g>
</g>
<g>
</g>
<g>
</g>
<g>
</g>
<g>
</g>
<g>
</g>
<g>
</g>
<g>
</g>
<g>
</g>
<g>
</g>
<g>
</g>
<g>
</g>
<g>
</g>
<g>
</g>
<g>
</g>
<g>
</g>
</svg>
