<?xml version="1.0" encoding="iso-8859-1"?>
<!-- Generator: Adobe Illustrator 19.0.0, SVG Export Plug-In . SVG Version: 6.00 Build 0)  -->
<svg version="1.1" id="Capa_1" xmlns="http://www.w3.org/2000/svg" xmlns:xlink="http://www.w3.org/1999/xlink" x="0px" y="0px"
	 viewBox="0 0 511.999 511.999" style="enable-background:new 0 0 511.999 511.999;" xml:space="preserve">
<g>
	<g>
		<g>
			<path d="M503.457,183.835c14.309-25.6,10.289-57.492-9.775-77.556C477.704,90.3,454.73,84.232,432.223,90.051
				c-3.816,0.986-7.907,0.319-11.226-1.829c-8.341-5.396-18.018-8.249-27.985-8.249c-6.969,0-13.775,1.427-20.057,4.08
				c-3.909-10.359-9.923-19.755-17.7-27.532c-13.062-13.062-29.987-20.874-48.945-22.592c-3.364-0.305-6.326-1.953-8.125-4.522
				C285.288,10.993,263.627,0,240.246,0c-24.395,0-47.282,12.301-59.728,32.102c-1.68,2.672-4.638,4.489-7.914,4.861
				c-24.07,2.736-45.767,12.723-61.092,28.119c-2.922,2.936-2.911,7.685,0.024,10.606c2.935,2.922,7.684,2.911,10.606-0.024
				c12.933-12.993,31.456-21.444,52.156-23.797c7.879-0.896,14.775-5.19,18.919-11.783C202.942,24.612,220.962,15,240.246,15
				c18.494,0,35.561,8.603,45.653,23.012c4.338,6.194,11.285,10.151,19.057,10.855c15.418,1.397,29.144,7.711,39.692,18.26
				c6.93,6.93,12.132,15.47,15.224,24.909c-1.999,1.675-3.887,3.503-5.632,5.489c-2.043,2.324-4.98,3.856-8.271,4.313
				c-32.622,4.53-56.299,29.024-56.299,58.242c0,15.602,6.819,30.305,19.202,41.401c2.71,2.428,4.354,5.874,4.511,9.454
				c0.564,12.917,5.911,25.066,15.054,34.209c1.234,1.234,2.525,2.387,3.856,3.475c-6.425,6.306-13.862,11.445-21.999,15.275
				c-0.408,0.146-0.796,0.328-1.166,0.539c-10.758,4.859-22.688,7.457-35.085,7.457c-16.852,0-33.351-5.006-46.979-14.152
				c3.806-10.233,4.476-21.575,1.58-32.435c-0.907-3.4-0.558-7.112,0.983-10.452c10.103-21.906,5.431-48.085-11.628-65.144
				c-13.816-13.816-33.505-19.698-52.67-15.734c-2.517,0.52-5.341,0.28-8.17-0.694c-9.756-3.361-19.995-5.065-30.434-5.065
				c-6.41,0-12.693,0.635-18.818,1.88c-1.765-5.203-2.67-10.569-2.67-16c0-3.789,0.438-7.582,1.301-11.274
				c0.943-4.033-1.563-8.067-5.596-9.01c-4.035-0.945-8.067,1.563-9.01,5.596c-1.124,4.81-1.694,9.752-1.694,14.688
				c0,6.86,1.108,13.627,3.261,20.185c-2.202,0.841-4.379,1.763-6.525,2.778c-3.781,1.787-8.008,2.106-11.907,0.897
				c-20.592-6.38-42.848-0.882-58.081,14.351c-18.686,18.685-22.35,47.606-8.912,70.33c2.033,3.438,2.771,7.493,2.08,11.419
				c-3.098,17.595,2.582,35.629,15.195,48.242c10.487,10.487,24.542,16.024,38.785,16.023c7.936,0,15.931-1.72,23.396-5.26
				c0.898-0.426,1.826-0.763,2.772-1.015l-0.026,18.69c-0.042,29.977,17.924,56.515,45.771,67.609l42.025,16.746l-5.21,88.991
				c-0.423,7.22,2.181,14.378,7.144,19.64c4.962,5.262,11.956,8.279,19.188,8.279h107.29c7.232,0,14.227-3.018,19.189-8.279
				c4.962-5.262,7.566-12.42,7.143-19.64L331.931,469c-0.243-4.135-3.787-7.3-7.926-7.049c-4.135,0.242-7.29,3.79-7.049,7.926
				l0.883,15.081c0.185,3.16-0.909,6.168-3.081,8.471c-2.171,2.303-5.111,3.571-8.276,3.571h-107.29
				c-3.165,0-6.104-1.268-8.276-3.571c-2.172-2.303-3.266-5.311-3.081-8.471l5.518-94.246c0.001-0.008,0.001-0.016,0.001-0.023
				l2.142-36.58c0.001-0.007,0.001-0.014,0.001-0.021l3.894-66.5c5.639-2.603,10.875-6.196,15.433-10.755
				c1.841-1.841,3.524-3.805,5.054-5.864c15.851,10.298,34.826,15.923,54.164,15.923c0.276,0,0.551-0.009,0.826-0.011
				c0.202,1.635,0.338,3.081,0.404,4.341c0.208,4.004,3.52,7.111,7.483,7.111c0.131,0,0.263-0.003,0.395-0.01
				c4.137-0.215,7.315-3.742,7.101-7.879c-0.076-1.453-0.216-3.036-0.421-4.775c5.515-0.86,10.903-2.164,16.111-3.897l2.885,49.266
				c0.001,0.016,0.001,0.032,0.003,0.047l2.139,36.536c0.001,0.017,0.002,0.034,0.003,0.051l3.888,66.396
				c0.233,3.986,3.539,7.062,7.48,7.062c0.147,0,0.296-0.004,0.445-0.013c4.135-0.242,7.291-3.79,7.049-7.926l-3.579-61.133
				l52.019-20.645c26.728-10.607,43.999-36.043,43.999-64.8v-22.766c4.834,0.969,9.805,1.47,14.839,1.47
				c36.812,0,66.76-26.458,66.76-58.978c0-4.32-0.537-8.639-1.595-12.837C501.431,190.141,501.85,186.708,503.457,183.835z
				 M178.996,379.31l-37.397-14.901c-22.099-8.805-36.357-29.865-36.323-53.654l0.023-16.902c6.46,1.514,13.089,2.329,19.792,2.444
				l-0.02,14.486c-0.022,15.623,9.342,29.453,23.855,35.236l31.289,12.468L178.996,379.31z M181.139,342.708l-26.66-10.623
				c-8.766-3.493-14.421-11.846-14.408-21.281l0.021-15.444c5.463-0.782,10.84-2.029,16.077-3.768
				c2.977-0.988,6.037-1.167,8.844-0.518c6.388,1.479,12.839,1.748,19.094,0.93L181.139,342.708z M216.007,208.569
				c-3.003,6.511-3.662,13.827-1.855,20.6c3.523,13.208-0.283,27.408-9.932,37.057c-4.093,4.093-8.936,7.126-14.17,9.005
				c-0.186,0.055-0.369,0.115-0.548,0.183c-6.667,2.279-13.942,2.705-21.104,1.048c-5.495-1.273-11.358-0.963-16.955,0.895
				c-7.934,2.634-16.25,3.97-24.717,3.97c-7.889,0-15.659-1.159-23.095-3.445c-7.474-2.297-15.475-1.721-22.528,1.625
				c-15.145,7.183-33.288,4.042-45.147-7.817c-9.157-9.156-13.28-22.253-11.029-35.033c1.313-7.449-0.087-15.14-3.941-21.656
				c-9.951-16.828-7.234-38.248,6.607-52.088c8.176-8.176,19.085-12.566,30.279-12.566c4.255,0,8.553,0.634,12.756,1.937
				c7.492,2.322,15.576,1.731,22.758-1.665c10.392-4.913,21.61-7.404,33.341-7.404c8.772,0,17.368,1.429,25.548,4.247
				c5.374,1.852,10.94,2.267,16.094,1.202c14.202-2.939,28.793,1.417,39.026,11.651C220.03,172.95,223.491,192.342,216.007,208.569z
				 M320.603,275.52c9.291-4.9,17.734-11.302,24.971-19.034c8.495,3.434,17.792,4.562,26.905,3.216v26.909
				c0,8.217-4.935,15.485-12.573,18.516l-36.716,14.571L320.603,275.52z M407.275,286.611c0,22.57-13.555,42.533-34.533,50.858
				l-47.41,18.815l-1.219-20.814l41.326-16.401c13.389-5.313,22.04-18.054,22.04-32.458V255.07c0.019-0.009,0.039-0.017,0.058-0.027
				c4.046-1.973,8.902-1.735,12.994,0.637c2.179,1.263,4.433,2.401,6.744,3.423V286.611z M490.363,176.516
				c-3.482,6.23-4.416,13.564-2.629,20.65c0.756,3.001,1.14,6.086,1.14,9.171c0,24.249-23.219,43.978-51.76,43.978
				c-10.42,0-20.469-2.632-29.06-7.612c-4.575-2.652-9.654-3.99-14.709-3.99c-4.249,0-8.481,0.945-12.383,2.848
				c-14.03,6.843-30.875,4.02-41.919-7.022c-6.483-6.483-10.274-15.098-10.675-24.257c-0.332-7.587-3.789-14.867-9.486-19.971
				c-9.165-8.212-14.211-18.948-14.211-30.229c0-21.65,18.237-39.896,43.363-43.385c6.853-0.952,13.058-4.244,17.474-9.269
				c6.954-7.914,16.979-12.454,27.504-12.454c7.07,0,13.93,2.02,19.837,5.842c6.834,4.421,15.264,5.791,23.128,3.757
				c17.309-4.473,34.917,0.129,47.099,12.312C498.416,132.226,501.413,156.747,490.363,176.516z"/>
			<path d="M225.733,312.768c0.382-1.525,0.737-2.946,1.041-4.238c0.949-4.032-1.551-8.07-5.583-9.019
				c-4.035-0.948-8.07,1.551-9.019,5.582c-0.289,1.23-0.628,2.582-0.991,4.035c-1.506,6.023-3.381,13.517-4.244,21.543
				c-0.443,4.119,2.537,7.816,6.655,8.259c0.272,0.029,0.543,0.043,0.811,0.043c3.782,0,7.034-2.853,7.448-6.699
				C222.604,325.28,224.34,318.342,225.733,312.768z"/>
			<path d="M289.983,378.507c-0.381-4.125-4.038-7.157-8.158-6.778c-4.124,0.381-7.159,4.034-6.778,8.158
				c0.704,7.617,1.576,13.363,2.419,18.919c0.89,5.861,1.73,11.396,2.203,18.383c0.269,3.96,3.565,6.994,7.476,6.994
				c0.17,0,0.342-0.006,0.514-0.018c4.133-0.28,7.256-3.857,6.976-7.99c-0.516-7.608-1.401-13.443-2.338-19.621
				C291.484,391.212,290.645,385.688,289.983,378.507z"/>
			<path d="M226.114,467.523c4.142,0,7.5-3.358,7.5-7.5c0-1.405,0.699-5.174,1.316-8.499c1.193-6.432,2.678-14.437,2.678-21.671
				c0-4.142-3.358-7.5-7.5-7.5c-4.142,0-7.5,3.358-7.5,7.5c0,5.854-1.345,13.107-2.426,18.936c-0.876,4.721-1.567,8.45-1.567,11.235
				C218.614,464.165,221.971,467.523,226.114,467.523z"/>
		</g>
	</g>
</g>
<g>
</g>
<g>
</g>
<g>
</g>
<g>
</g>
<g>
</g>
<g>
</g>
<g>
</g>
<g>
</g>
<g>
</g>
<g>
</g>
<g>
</g>
<g>
</g>
<g>
</g>
<g>
</g>
<g>
</g>
</svg>
